<?xml version="1.0" encoding="UTF-8" standalone="no"?>
<svg
   xmlns:dc="http://purl.org/dc/elements/1.1/"
   xmlns:cc="http://creativecommons.org/ns#"
   xmlns:rdf="http://www.w3.org/1999/02/22-rdf-syntax-ns#"
   xmlns:svg="http://www.w3.org/2000/svg"
   xmlns="http://www.w3.org/2000/svg"
   xmlns:sodipodi="http://sodipodi.sourceforge.net/DTD/sodipodi-0.dtd"
   xmlns:inkscape="http://www.inkscape.org/namespaces/inkscape"
   width="118.21176mm"
   height="118.21176mm"
   viewBox="0 0 118.21176 118.21176"
   version="1.1"
   id="svg8"
   inkscape:version="1.0.1 (0767f8302a, 2020-10-17)"
   sodipodi:docname="logo.svg">
  <defs
     id="defs2">
    <clipPath
       clipPathUnits="userSpaceOnUse"
       id="clipPath919">
      <rect
         style="fill:#373d42;fill-opacity:1;stroke-width:0.132292"
         id="rect921"
         width="75.075615"
         height="122.26219"
         x="-81.080437"
         y="97.286598" />
    </clipPath>
  </defs>
  <sodipodi:namedview
     id="base"
     pagecolor="#ffffff"
     bordercolor="#666666"
     borderopacity="1.0"
     inkscape:pageopacity="0.0"
     inkscape:pageshadow="2"
     inkscape:zoom="0.85436767"
     inkscape:cx="58.878815"
     inkscape:cy="160.53938"
     inkscape:document-units="mm"
     inkscape:current-layer="layer2"
     inkscape:document-rotation="0"
     showgrid="false"
     inkscape:snap-global="false"
     inkscape:window-width="1920"
     inkscape:window-height="1043"
     inkscape:window-x="0"
     inkscape:window-y="0"
     inkscape:window-maximized="1"
     fit-margin-top="0"
     fit-margin-left="0"
     fit-margin-right="0"
     fit-margin-bottom="0" />
  <metadata
     id="metadata5">
    <rdf:RDF>
      <cc:Work
         rdf:about="">
        <dc:format>image/svg+xml</dc:format>
        <dc:type
           rdf:resource="http://purl.org/dc/dcmitype/StillImage" />
        <dc:title></dc:title>
      </cc:Work>
    </rdf:RDF>
  </metadata>
  <g
     inkscape:groupmode="layer"
     id="layer2"
     inkscape:label="Layer 2"
     style="opacity:1"
     transform="translate(-20.482927,-91.057144)">
    <g
       id="g945"
       transform="translate(-98.924914,-22.997059)"
       style="stroke:none">
      <path
         style="fill:#7d7772;fill-opacity:1;stroke:none;stroke-width:0.265;stroke-linecap:butt;stroke-linejoin:round;stroke-miterlimit:4;stroke-dasharray:none;stroke-opacity:1"
         d="m 159.57659,171.12136 4.65997,-4.26333 33.98685,2.76838 5.04657,0.84528 -6.29879,6.88156 z"
         id="path856"
         sodipodi:nodetypes="cccccc" />
      <path
         style="fill:#484037;fill-opacity:1;stroke:none;stroke-width:0.265;stroke-linecap:butt;stroke-linejoin:round;stroke-miterlimit:4;stroke-dasharray:none;stroke-opacity:1"
         d="m 198.55603,180.19593 -1.59013,-2.90834 -37.27658,-6.31291 -2.30078,1.50144 -8.39159,37.78488 40.89193,11.61466 z"
         id="path890"
         sodipodi:nodetypes="ccccccc" />
      <path
         style="fill:#795689;fill-opacity:1;stroke:none;stroke-width:0.265;stroke-linecap:butt;stroke-linejoin:round;stroke-miterlimit:4;stroke-dasharray:none;stroke-opacity:1"
         d="m 154.35253,186.24826 19.73429,2.93989 21.21809,7.09348 -1.1032,5.0777 -19.94435,-6.67649 -20.99822,-3.24441 z"
         id="path850"
         sodipodi:nodetypes="ccccccc" />
      <path
         style="fill:#795689;fill-opacity:1;stroke:none;stroke-width:0.265;stroke-linecap:butt;stroke-linejoin:round;stroke-miterlimit:4;stroke-dasharray:none;stroke-opacity:1"
         d="m 152.03026,197.15964 20.8525,2.26119 20.45058,7.25684 -1.09701,4.8096 -20.142,-7.7426 -20.87574,-2.751 z"
         id="path852"
         sodipodi:nodetypes="ccccccc" />
      <path
         style="fill:#584b38;fill-opacity:1;stroke:none;stroke-width:0.265;stroke-linecap:butt;stroke-linejoin:round;stroke-miterlimit:4;stroke-dasharray:none;stroke-opacity:1"
         d="m 164.79614,170.52853 26.83188,4.88047 2.71594,-0.27191 0.292,-20.2141 -31.04979,-4.07506 z"
         id="path854"
         sodipodi:nodetypes="cccccc" />
      <path
         style="fill:#57385e;fill-opacity:1;stroke:none;stroke-width:0.265;stroke-linecap:butt;stroke-linejoin:round;stroke-miterlimit:4;stroke-dasharray:none;stroke-opacity:1"
         d="m 200.87726,150.62033 -6.12657,4.46946 c 0,0 -30.78847,-3.97749 -31.25685,-4.21543 l -9.32307,-5.34741 z"
         id="path858"
         sodipodi:nodetypes="ccscc" />
      <path
         style="fill:#654572;fill-opacity:1;stroke:none;stroke-width:0.265;stroke-linecap:butt;stroke-linejoin:round;stroke-miterlimit:4;stroke-dasharray:none;stroke-opacity:1"
         d="m 201.83042,150.99632 1.07192,-10.40247 -1.30188,-0.36727 -2.70299,-4.77511 -41.63987,-2.37305 -2.24388,3.53827 -1.99796,-0.19315 0.23771,9.24861 z"
         id="path860"
         sodipodi:nodetypes="ccccccccc" />
      <path
         style="fill:#a585a4;fill-opacity:1;stroke:none;stroke-width:0.265;stroke-linecap:butt;stroke-linejoin:round;stroke-miterlimit:4;stroke-dasharray:none;stroke-opacity:1"
         d="m 201.83042,150.99632 6.02843,-4.74316 0.46361,-9.57712 -5.42012,3.91781 z"
         id="path862"
         sodipodi:nodetypes="ccccc" />
      <path
         style="fill:#a88db5;fill-opacity:1;stroke:none;stroke-width:0.265;stroke-linecap:butt;stroke-linejoin:round;stroke-miterlimit:4;stroke-dasharray:none;stroke-opacity:1"
         d="m 201.45129,140.22658 1.45105,0.36727 5.41717,-3.6849 -1.35097,-0.58357 z"
         id="path864"
         sodipodi:nodetypes="ccccc" />
      <path
         style="fill:#bfadbb;fill-opacity:1;stroke:none;stroke-width:0.265;stroke-linecap:butt;stroke-linejoin:round;stroke-miterlimit:4;stroke-dasharray:none;stroke-opacity:1"
         d="m 198.86235,135.48269 5.78038,-2.55651 2.21803,3.53393 -5.26399,3.75835 z"
         id="path866" />
      <path
         style="fill:#a88db5;fill-opacity:1;stroke:none;stroke-width:0.265;stroke-linecap:butt;stroke-linejoin:round;stroke-miterlimit:4;stroke-dasharray:none;stroke-opacity:1"
         d="m 157.2576,133.07842 41.63613,2.44561 5.749,-2.59785 -38.48676,-2.424 z"
         id="path868"
         sodipodi:nodetypes="ccccc" />
      <path
         style="fill:#9fa1a3;fill-opacity:1;stroke:none;stroke-width:0.265;stroke-linecap:butt;stroke-linejoin:round;stroke-miterlimit:4;stroke-dasharray:none;stroke-opacity:1"
         d="m 197.71488,132.93686 -4.09638,1.80194 0.24917,-5.35361 3.73487,-1.17822 z"
         id="path870"
         sodipodi:nodetypes="ccccc" />
      <path
         style="fill:#acb0b5;fill-opacity:1;stroke:none;stroke-width:0.265;stroke-linecap:butt;stroke-linejoin:round;stroke-miterlimit:4;stroke-dasharray:none;stroke-opacity:1"
         d="m 197.60254,128.20697 -3.731,-3.13839 -1.13695,4.04489 1.13308,0.38959 z"
         id="path872"
         sodipodi:nodetypes="ccccc" />
      <path
         style="fill:#5a666f;fill-opacity:1;stroke:none;stroke-width:0.265;stroke-linecap:butt;stroke-linejoin:round;stroke-miterlimit:4;stroke-dasharray:none;stroke-opacity:1"
         d="m 193.6185,134.7388 -4.78559,-0.14707 0.96775,-5.99878 4.06701,0.79224 z"
         id="path874" />
      <path
         style="fill:#373e42;fill-opacity:1;stroke:none;stroke-width:0.265;stroke-linecap:butt;stroke-linejoin:round;stroke-miterlimit:4;stroke-dasharray:none;stroke-opacity:1"
         d="m 194.67249,121.67561 -4.29286,25.48076 -2.11847,1.59496 -28.15628,-3.08388 -1.73434,-1.94389 4.02878,-23.80817 2.05484,-0.99641 28.36442,0.64632 z"
         id="path876" />
      <path
         style="fill:#b0a07f;fill-opacity:1;stroke:none;stroke-width:0.265;stroke-linecap:butt;stroke-linejoin:round;stroke-miterlimit:4;stroke-dasharray:none;stroke-opacity:1"
         d="m 192.81135,120.96611 -4.25301,26.09772 -28.75063,-2.72447 4.06584,-24.35428 z"
         id="path878" />
      <path
         style="fill:#373d42;fill-opacity:1;stroke:none;stroke-width:0.265;stroke-linecap:butt;stroke-linejoin:round;stroke-miterlimit:4;stroke-dasharray:none;stroke-opacity:1"
         d="m 180.73105,125.32564 c 0.84515,0.49646 0.74283,1.64438 0.74283,1.64438 0,0 -0.009,2.69767 -0.29834,2.88786 -0.28949,0.19019 -1.46165,1.29336 -1.85509,1.17892 -0.39344,-0.11445 -0.66917,-0.98943 -0.72044,-1.59684 -0.0513,-0.6074 0.0203,-2.2597 0.70809,-3.17687 0.68782,-0.91717 1.42295,-0.93745 1.42295,-0.93745 z"
         id="path880" />
      <path
         style="fill:#373d42;fill-opacity:1;stroke:none;stroke-width:0.265;stroke-linecap:butt;stroke-linejoin:round;stroke-miterlimit:4;stroke-dasharray:none;stroke-opacity:1"
         d="m 174.08851,125.07624 c 0.35428,0.63398 0.923,3.0974 0.64214,3.67544 -0.28087,0.57804 -0.88454,2.15552 -1.51852,1.99983 -0.63398,-0.1557 -1.69892,-0.74236 -1.55324,-1.59707 0.14567,-0.8547 -0.14428,-3.08155 0.65798,-3.59642 0.80226,-0.51487 1.77164,-0.48178 1.77164,-0.48178 z"
         id="path882" />
      <path
         style="fill:#373d42;fill-opacity:1;stroke:none;stroke-width:0.265;stroke-linecap:butt;stroke-linejoin:round;stroke-miterlimit:4;stroke-dasharray:none;stroke-opacity:1"
         d="m 169.44882,133.34522 -1.07333,0.93931 1.5283,3.50063 2.75431,1.94015 c 0,0 2.98925,0.19812 3.33211,-0.001 0.34286,-0.19929 3.68429,-1.23789 3.68429,-1.23789 l 3.29505,-3.69199 -1.54066,-0.53515 -0.14357,-0.35778 2.41727,0.0508 1.071,2.01312 -0.60974,0.41255 -0.71998,-0.90948 -2.27393,3.41788 -4.91099,1.98141 -4.20849,-0.23867 -2.90487,-2.5443 -1.57842,-3.63558 -1.34231,0.73793 -0.045,-0.43259 1.61827,-1.75277 1.70405,-0.045 z"
         id="path884" />
      <path
         style="fill:#8e877f;fill-opacity:1;stroke:none;stroke-width:0.265;stroke-linecap:butt;stroke-linejoin:round;stroke-miterlimit:4;stroke-dasharray:none;stroke-opacity:1"
         d="m 198.43354,180.03371 -1.51656,-2.74445 6.353,-6.81757 1.51727,1.97147 z"
         id="path886"
         sodipodi:nodetypes="ccccc" />
      <path
         style="fill:#6c5c4b;fill-opacity:1;stroke:none;stroke-width:0.265;stroke-linecap:butt;stroke-linejoin:round;stroke-miterlimit:4;stroke-dasharray:none;stroke-opacity:1"
         d="m 204.78725,172.44316 -2.90531,30.83177 -0.46411,4.03857 -9.4477,19.08329 -2.28167,1.00469 0.16613,-5.48034 8.63156,-42.04033 z"
         id="path888"
         sodipodi:nodetypes="cccccccc" />
      <path
         style="fill:#3d3428;fill-opacity:1;stroke:none;stroke-width:0.265;stroke-linecap:butt;stroke-linejoin:round;stroke-miterlimit:4;stroke-dasharray:none;stroke-opacity:1"
         d="m 189.88844,221.83455 -0.19998,5.56693 -41.04289,-11.71684 0.3081,-5.49834 z"
         id="path892"
         sodipodi:nodetypes="ccccc" />
      <path
         style="fill:#927f68;fill-opacity:1;stroke:none;stroke-width:0.265;stroke-linecap:butt;stroke-linejoin:round;stroke-miterlimit:4;stroke-dasharray:none;stroke-opacity:1"
         d="m 197.81341,171.21001 -3.59701,4.01497 0.40149,-20.14011 4.55815,-3.18009 z"
         id="path951"
         sodipodi:nodetypes="ccccc" />
    </g>
    <g
       id="g1017"
       transform="translate(-98.925034,-22.997192)"
       style="opacity:1;stroke-width:4.3;stroke-miterlimit:4;stroke-dasharray:none">
      <path
         id="path971"
         style="fill:none;fill-opacity:1;stroke:#000000;stroke-width:16.252;stroke-linecap:butt;stroke-linejoin:round;stroke-miterlimit:4;stroke-dasharray:none;stroke-opacity:1"
         d="m 545.74219,399.95703 -7.76563,3.76563 -7.85156,46.39648 -11.58203,3.35352 -8.48047,13.37304 -7.55078,-0.72851 0.89844,34.95508 38.70312,19.66211 c 0.0404,0.0205 0.20442,0.0555 0.36133,0.0898 l 3.71484,60.42383 -1.26953,-0.10352 -17.61133,16.11328 -8.27148,5.1211 -31.71484,142.80859 -1.32813,20.49805 155.12305,44.28515 8.62304,-3.79687 35.70704,-72.12695 1.7539,-15.26368 10.98242,-116.52929 -5.73632,-7.45118 -19.07227,-3.19531 -1.12109,-0.0918 4.7207,-66.88671 5.35742,-3.94532 4.67578,0.51172 22.78321,-17.92773 1.71093,-35.29492 0.0312,-0.0215 -0.0312,-0.0137 0.043,-0.86719 -0.76758,0.55469 -4.34961,-1.87891 -0.5,0.36329 -8.29101,-13.21094 -26.22461,-1.65235 -0.38477,-16.18359 -13.34179,-11.22461 2.26757,-13.46094 -7.00585,-7.97656 z"
         transform="matrix(0.26458333,0,0,0.26458333,20.059726,13.096873)"
         sodipodi:nodetypes="ccccccccccccccccccccccccccccccccccccccccc" />
    </g>
  </g>
</svg>
