<?xml version="1.0" encoding="UTF-8" standalone="no"?>
<!-- Created with Inkscape (http://www.inkscape.org/) -->

<svg
   xmlns:dc="http://purl.org/dc/elements/1.1/"
   xmlns:cc="http://creativecommons.org/ns#"
   xmlns:rdf="http://www.w3.org/1999/02/22-rdf-syntax-ns#"
   xmlns:svg="http://www.w3.org/2000/svg"
   xmlns="http://www.w3.org/2000/svg"
   xmlns:xlink="http://www.w3.org/1999/xlink"
   xmlns:sodipodi="http://sodipodi.sourceforge.net/DTD/sodipodi-0.dtd"
   xmlns:inkscape="http://www.inkscape.org/namespaces/inkscape"
   width="1365.3333"
   height="1365.3333"
   viewBox="0 0 361.24442 361.24442"
   version="1.1"
   id="svg8"
   inkscape:version="0.92.5 (2060ec1f9f, 2020-04-08)"
   sodipodi:docname="ari-tex.svg"
   inkscape:export-filename="/home/severinlemaignan/src/officebots/assets/ari-tex.png"
   inkscape:export-xdpi="72"
   inkscape:export-ydpi="72">
  <defs
     id="defs2" />
  <sodipodi:namedview
     id="base"
     pagecolor="#ffffff"
     bordercolor="#666666"
     borderopacity="1.0"
     inkscape:pageopacity="0.0"
     inkscape:pageshadow="2"
     inkscape:zoom="1.0916245"
     inkscape:cx="1225.3964"
     inkscape:cy="1193.4183"
     inkscape:document-units="px"
     inkscape:current-layer="layer4"
     showgrid="false"
     fit-margin-top="0"
     fit-margin-left="0"
     fit-margin-right="0"
     fit-margin-bottom="0"
     units="px"
     inkscape:window-width="1920"
     inkscape:window-height="1016"
     inkscape:window-x="0"
     inkscape:window-y="27"
     inkscape:window-maximized="1" />
  <metadata
     id="metadata5">
    <rdf:RDF>
      <cc:Work
         rdf:about="">
        <dc:format>image/svg+xml</dc:format>
        <dc:type
           rdf:resource="http://purl.org/dc/dcmitype/StillImage" />
        <dc:title></dc:title>
      </cc:Work>
    </rdf:RDF>
  </metadata>
  <g
     inkscape:groupmode="layer"
     id="layer5"
     inkscape:label="Layer 4"
     sodipodi:insensitive="true"
     style="display:inline">
    <rect
       style="display:inline;opacity:1;fill:#f8f4e7;fill-opacity:1;stroke:none;stroke-width:0.41597724;stroke-miterlimit:4;stroke-dasharray:none;stroke-opacity:1"
       id="rect936"
       width="361.24442"
       height="361.24442"
       x="3.5527137e-15"
       y="-9.56391e-14" />
  </g>
  <g
     inkscape:groupmode="layer"
     id="layer6"
     inkscape:label="Layer 5"
     sodipodi:insensitive="true"
     style="display:none">
    <image
       sodipodi:absref="/home/severinlemaignan/src/officebots/assets/ari-tex.png"
       xlink:href="ari-tex.png"
       y="-1.2712402e-05"
       x="0"
       id="image975"
       preserveAspectRatio="none"
       height="361.24442"
       width="361.24442" />
  </g>
  <g
     inkscape:groupmode="layer"
     id="layer4"
     inkscape:label="Layer 3"
     style="display:inline">
    <rect
       style="opacity:1;fill:#e4c270;fill-opacity:1;stroke:none;stroke-width:0.5;stroke-miterlimit:4;stroke-dasharray:none;stroke-opacity:1"
       id="rect870"
       width="47.287655"
       height="40.286064"
       x="76.694321"
       y="70.947769" />
    <rect
       style="opacity:1;fill:#e4c270;fill-opacity:1;stroke:none;stroke-width:0.5;stroke-miterlimit:4;stroke-dasharray:none;stroke-opacity:1"
       id="rect872"
       width="46.210491"
       height="6.1398554"
       x="77.986931"
       y="120.28204" />
    <rect
       style="opacity:1;fill:#e4c270;fill-opacity:1;stroke:none;stroke-width:0.5;stroke-miterlimit:4;stroke-dasharray:none;stroke-opacity:1"
       id="rect874"
       width="54.373974"
       height="5.544013"
       x="69.939857"
       y="186.82123" />
    <rect
       style="opacity:1;fill:#e4c270;fill-opacity:1;stroke:none;stroke-width:0.80043936;stroke-miterlimit:4;stroke-dasharray:none;stroke-opacity:1"
       id="rect876"
       width="26.440678"
       height="47.543049"
       x="153.31328"
       y="144.81467" />
    <path
       style="display:inline;fill:#e4c270;fill-opacity:1;stroke:none;stroke-width:0.26458332px;stroke-linecap:butt;stroke-linejoin:miter;stroke-opacity:1"
       d="m 32.266341,318.72523 c 0.301549,0.15078 31.738614,3.01553 31.738614,3.01553 l 60.308875,0.0559 36.67578,-3.41172 5.97047,35.82286 -140.73263,3.62493 -3.83817,-28.57299 z"
       id="path887"
       inkscape:connector-curvature="0" />
    <rect
       y="182.56953"
       x="189.77582"
       height="39.133076"
       width="57.572441"
       id="rect907"
       style="opacity:1;fill:#e4c270;fill-opacity:1;stroke:none;stroke-width:1.07158828;stroke-miterlimit:4;stroke-dasharray:none;stroke-opacity:1" />
    <ellipse
       style="opacity:1;fill:#e4c270;fill-opacity:1;stroke:none;stroke-width:0.5;stroke-miterlimit:4;stroke-dasharray:none;stroke-opacity:1"
       id="path909"
       ry="6.8980608"
       rx="9.1597195"
       cy="220.30536"
       cx="214.36758" />
    <ellipse
       style="opacity:1;fill:#c8c4b7;fill-opacity:1;stroke:none;stroke-width:0.5;stroke-miterlimit:4;stroke-dasharray:none;stroke-opacity:1"
       id="path911"
       cx="214.36758"
       cy="233.53607"
       rx="4.9379554"
       ry="4.9756503" />
    <path
       style="fill:#e4c270;fill-opacity:1;stroke:none;stroke-width:0.26458332px;stroke-linecap:butt;stroke-linejoin:miter;stroke-opacity:1"
       d="m 197.66901,234.36534 5.65415,8.97125 2.33704,19.9026 -0.75388,10.02668 -9.12203,16.88706 -2.18627,-11.00675 3.09094,-0.90466 3.46787,-7.38807 -0.22616,-9.57437 -1.50777,-16.05778 -2.71399,-2.71399 z"
       id="path932"
       inkscape:connector-curvature="0" />
    <path
       inkscape:connector-curvature="0"
       id="path934"
       d="m 231.59389,234.36534 -5.65415,8.97125 -2.33704,19.9026 0.75388,10.02668 9.12203,16.88706 2.18627,-11.00675 -3.09094,-0.90466 -3.46787,-7.38807 0.22616,-9.57437 1.50777,-16.05778 2.71399,-2.71399 z"
       style="fill:#e4c270;fill-opacity:1;stroke:none;stroke-width:0.26458332px;stroke-linecap:butt;stroke-linejoin:miter;stroke-opacity:1" />
    <rect
       y="274.83154"
       x="108.91764"
       height="5.544013"
       width="54.373974"
       id="rect956"
       style="opacity:1;fill:#e4c270;fill-opacity:1;stroke:none;stroke-width:0.5;stroke-miterlimit:4;stroke-dasharray:none;stroke-opacity:1"
       transform="rotate(17.130833)" />
    <rect
       transform="matrix(-0.95563464,0.29455463,0.29455463,0.95563464,0,0)"
       style="opacity:1;fill:#e4c270;fill-opacity:1;stroke:none;stroke-width:0.5;stroke-miterlimit:4;stroke-dasharray:none;stroke-opacity:1"
       id="rect958"
       width="54.373974"
       height="5.544013"
       x="-72.571892"
       y="330.54883" />
    <path
       transform="rotate(-16.195786)"
       style="opacity:1;fill:#e4c270;fill-opacity:1;stroke:none;stroke-width:0.5;stroke-miterlimit:4;stroke-dasharray:none;stroke-opacity:1"
       d="m -57.250576,249.42883 h 54.3739738 l 0.6971302,3.52607 -55.089638,7.58436 z"
       id="rect960"
       inkscape:connector-curvature="0"
       sodipodi:nodetypes="ccccc" />
    <path
       sodipodi:nodetypes="ccccc"
       inkscape:connector-curvature="0"
       id="path965"
       d="m 174.57204,255.60502 -52.2161,-15.16601 -1.65296,3.19169 51.12584,22.87427 z"
       style="opacity:1;fill:#e4c270;fill-opacity:1;stroke:none;stroke-width:0.5;stroke-miterlimit:4;stroke-dasharray:none;stroke-opacity:1" />
    <ellipse
       style="opacity:1;fill:#1f1c24;fill-opacity:1;stroke:none;stroke-width:0.53610355;stroke-miterlimit:4;stroke-dasharray:none;stroke-opacity:1"
       id="path996"
       cx="271.68323"
       cy="110.29427"
       rx="2.1644471"
       ry="2.7573643"
       transform="matrix(0.97233534,-0.23358936,0.10383233,0.99459482,0,0)" />
    <ellipse
       transform="matrix(0.97233534,-0.23358936,0.10383233,0.99459482,0,0)"
       ry="2.7573643"
       rx="2.1644471"
       cy="105.25022"
       cx="253.23895"
       id="ellipse1000"
       style="opacity:1;fill:#1f1c24;fill-opacity:1;stroke:none;stroke-width:0.53610355;stroke-miterlimit:4;stroke-dasharray:none;stroke-opacity:1" />
    <ellipse
       style="opacity:1;fill:#1f1c24;fill-opacity:1;stroke:none;stroke-width:0.58119649;stroke-miterlimit:4;stroke-dasharray:none;stroke-opacity:1"
       id="ellipse1002"
       cx="123.90052"
       cy="-199.44298"
       rx="1.9655862"
       ry="3.568598"
       transform="matrix(0.54116003,0.84091963,-0.9875482,0.15731673,0,0)" />
    <path
       style="fill:#e4c270;stroke:none;stroke-width:0.99999994px;stroke-linecap:butt;stroke-linejoin:miter;stroke-opacity:1;fill-opacity:1"
       d="M 1037.0645 82.572266 L 1029.9121 107.81445 L 1092.1777 142.3125 L 1085.0254 171.3418 L 1119.5234 191.53711 L 1112.3711 220.56641 L 1087.1289 263.05859 L 1130.043 274.83789 L 1126.6758 289.98438 L 1039.5879 335.42188 L 1065.6719 340.89062 L 1190.625 281.99023 L 1214.1855 284.51562 L 1225.9648 271.05273 L 1217.1309 259.27148 L 1243.6348 215.51758 L 1252.8906 165.45312 L 1225.123 124.64258 L 1174.2168 117.49023 L 1122.0488 130.11328 L 1095.123 127.58789 L 1076.1895 101.50391 L 1037.0645 82.572266 z M 1174.6387 128.00977 L 1218.3926 136.00195 L 1238.166 164.61133 L 1233.959 199.53125 L 1170.8516 266.8457 L 1168.748 231.92578 L 1139.7188 209.62695 L 1136.7734 191.11523 L 1101.8535 160.4043 L 1106.0605 147.7832 L 1174.6387 128.00977 z "
       transform="scale(0.26458333)"
       id="path1004" />
    <circle
       style="opacity:1;fill:#e4c270;fill-opacity:1;stroke:none;stroke-width:0.5;stroke-miterlimit:4;stroke-dasharray:none;stroke-opacity:1"
       id="path1008"
       cx="310.95657"
       cy="50.844429"
       r="4.8421731" />
    <path
       id="path1013"
       d="m 256.305,22.089621 1.8924,6.678661 -16.47444,9.127609 1.89238,7.680669 -9.12759,5.343342 1.89238,7.680669 6.67866,11.242723 -11.35435,3.116606 0.8909,4.007509 23.04201,12.022005 -6.90139,1.446937 -33.06051,-15.584061 -6.23372,0.668176 -3.1166,-3.562056 2.3373,-3.117122 -7.01249,-11.576553 -2.44893,-13.246222 7.34684,-10.797788 13.46893,-1.892393 13.80279,3.339849 7.12412,-0.668176 5.00948,-6.901386 z m -36.39984,12.022006 -11.57656,2.114598 -5.23171,7.569565 1.1131,9.239229 16.69717,17.810281 0.55658,-9.239229 7.68064,-5.899899 0.7793,-4.897892 9.23923,-8.1256 -1.1131,-3.339333 z"
       style="fill:#e4c270;fill-opacity:1;stroke:none;stroke-width:0.26458332px;stroke-linecap:butt;stroke-linejoin:miter;stroke-opacity:1"
       inkscape:connector-curvature="0" />
    <circle
       r="4.8421731"
       cy="50.844429"
       cx="218.85378"
       id="circle1015"
       style="opacity:1;fill:#e4c270;fill-opacity:1;stroke:none;stroke-width:0.5;stroke-miterlimit:4;stroke-dasharray:none;stroke-opacity:1" />
  </g>
  <g
     inkscape:groupmode="layer"
     id="layer3"
     inkscape:label="Layer 2"
     sodipodi:insensitive="true"
     style="display:none">
    <image
       sodipodi:absref="/home/severinlemaignan/src/officebots/assets/ARI-body ARI-head-UV.png"
       xlink:href="ARI-body ARI-head-UV.png"
       y="-1.1368684e-13"
       x="0"
       id="image834"
       preserveAspectRatio="none"
       height="361.24442"
       width="361.24442" />
  </g>
</svg>
