<?xml version="1.0" encoding="UTF-8" standalone="no"?>
<svg
   xmlns:dc="http://purl.org/dc/elements/1.1/"
   xmlns:cc="http://creativecommons.org/ns#"
   xmlns:rdf="http://www.w3.org/1999/02/22-rdf-syntax-ns#"
   xmlns:svg="http://www.w3.org/2000/svg"
   xmlns="http://www.w3.org/2000/svg"
   xmlns:sodipodi="http://sodipodi.sourceforge.net/DTD/sodipodi-0.dtd"
   xmlns:inkscape="http://www.inkscape.org/namespaces/inkscape"
   inkscape:version="1.0.1 (0767f8302a, 2020-10-17)"
   sodipodi:docname="BRL.svg"
   viewBox="0 0 565.03998 203.46667"
   height="203.46667"
   width="565.03998"
   xml:space="preserve"
   id="svg2"
   version="1.1"><metadata
     id="metadata8"><rdf:RDF><cc:Work
         rdf:about=""><dc:format>image/svg+xml</dc:format><dc:type
           rdf:resource="http://purl.org/dc/dcmitype/StillImage" /><dc:title /></cc:Work></rdf:RDF></metadata><defs
     id="defs6" /><sodipodi:namedview
     pagecolor="#ffffff"
     bordercolor="#666666"
     borderopacity="1"
     objecttolerance="10"
     gridtolerance="10"
     guidetolerance="10"
     inkscape:pageopacity="0"
     inkscape:pageshadow="2"
     inkscape:window-width="1920"
     inkscape:window-height="1043"
     id="namedview4"
     showgrid="false"
     inkscape:zoom="1.2857497"
     inkscape:cx="279.63152"
     inkscape:cy="180.98124"
     inkscape:window-x="0"
     inkscape:window-y="0"
     inkscape:window-maximized="1"
     inkscape:current-layer="g12"
     inkscape:document-rotation="0" /><g
     id="g10"
     inkscape:groupmode="layer"
     inkscape:label="ink_ext_XXXXXX"
     transform="matrix(1.3333333,0,0,-1.3333333,0,203.46667)"><g
       id="g12"
       transform="scale(0.1)"><g
         id="g908"
         transform="rotate(-1.6468101,-4247.036,-9413.1571)"><path
           id="path14"
           style="fill:none;stroke:#112552;stroke-width:10;stroke-linecap:butt;stroke-linejoin:miter;stroke-miterlimit:4;stroke-dasharray:none;stroke-opacity:1"
           d="m 1555.3,1497.15 c -0.6549,27.121 7.8506,64.8583 -31.4593,47.1809 -30.9456,-7.1855 -51.3578,1.8274 -56.9596,-17.325 -22.8102,-16.7602 -43.7747,-34.4937 -39.4839,-65.5446 -11.8501,-116.0149 -28.2351,-231.9257 -39.4399,-347.7524 10.2161,-81.6058 29.9363,-162.47065 33.7046,-244.57912 1.5536,-69.72226 -2.3664,-140.09538 2.6695,-209.40356 29.4446,-59.58176 28.7914,-131.14156 58.4886,-189.14322 62.6721,-35.47526 142.625,-38.78231 189.2948,-101.90102 31.7298,-20.13489 130.6841,-1.46551 98.1859,43.66814 -22.3127,21.20129 34.078,48.81329 9.698,68.93921 -28.288,25.57612 -50.125,87.64898 -95.8225,66.64292 -75.5939,5.57256 -49.902,128.33445 -111.6147,166.78448 -27.5481,59.69127 1.7561,124.10578 6.2896,185.80821 15.407,63.52156 -4.845,127.83246 -8.1752,191.76876 -6.7508,51.4889 -12.7855,102.9786 -2.6869,154.4834 7.762,48.7333 9.2512,97.4247 -0.2198,146.0429 -4.1564,34.7767 -8.3128,69.5533 -12.4692,104.33 z" /><path
           id="path16"
           style="fill:#112552;fill-opacity:1;fill-rule:nonzero;stroke:none"
           d="m 933.509,1160.61 c 22.37384,34.0115 36.98469,18.8661 48.97035,-12.9024 13.04908,-18.7402 46.98765,10.0763 69.86065,8.2024 -4.8959,-39.0407 1.8407,-49.0265 26.6989,-13.7492 12.85,17.233 -31.513,-29.0161 -17.1389,-49.1908 51.5075,26.2195 20.0934,72.1422 93.4234,68.1028 50.951,20.0852 141.2612,6.1776 170.0371,18.7499 -67.8877,72.867 -3.4097,-161.8993 -21.4136,-99.7066 60.1748,5.4712 -1.6494,-98.78894 -22.2519,-29.0227 -41.7907,0.9849 -83.6274,-39.1028 -131.6867,-11.0343 -57.9,-8.1868 9.9825,-89.96016 -49.0333,-114.89698 -50.6382,-39.19613 18.9646,-60.07069 -34.1339,-101.37262 -25.1994,-28.0287 -16.7527,-14.59089 -6.8112,-62.1147 8.4891,-35.80329 24.4519,-71.23042 11.8519,-108.09513 -8.2238,-46.05587 -7.742,-94.94709 -36.1787,-134.41979 -16.3516,-25.38707 8.6842,-54.95803 11.4622,-82.27893 8.0682,-28.42532 16.1365,-56.85063 24.2047,-85.27595 -19.7525,12.61932 -32.9084,59.91187 -58.7909,40.31003 -25.73141,0.37911 -50.48797,-46.36285 -49.31571,-24.71135 -26.88328,65.72447 -45.76661,134.98937 -65.55974,202.88237 -2.78413,134.68462 -9.653,270.02825 3.15182,404.23958 10.88451,62.09477 21.76902,124.18957 32.65353,186.28437 z" /><path
           id="path18"
           style="fill:none;stroke:#112552;stroke-width:10;stroke-linecap:butt;stroke-linejoin:miter;stroke-miterlimit:4;stroke-dasharray:none;stroke-opacity:1"
           d="m 925.583,1179.11 c 25.83345,-11.9706 50.26179,-15.9353 69.66,8.76 32.2878,-5.8941 63.4026,-16.9016 95.187,-24.99 -48.8521,20.4202 -9.3274,-15.456 -28.1246,-34.2233 -53.2429,-38.9049 9.6923,-58.6348 39.8396,-15.3203 35.9078,58.6623 132.4695,44.9516 187.92,37.1498 -0.2602,-47.002 24.3694,-59.5531 35.8938,-80.982 28.0042,-55.2787 -58.2136,-74.94283 -70.4388,-28.0942 -68.4222,-34.1185 -145.5092,-68.41772 -191.64,-131.13 -28.4545,-42.20133 -27.1326,-123.67085 20.2878,-130.88682 -10.4819,-33.9738 -31.9697,-66.56614 -35.3389,-101.43272 10.7732,-76.66027 22.9878,-155.49946 0.4026,-231.33571 -7.5494,-24.41319 -6.8884,-54.58557 -19.2146,-75.64812 -40.95247,-22.31994 -6.768,-17.12451 -43.16271,-3.74478 -22.42291,20.9107 -55.20514,-24.91484 -47.4312,21.81061 -8.65656,106.06465 -14.91718,212.43747 -37.40708,316.72285 -13.27962,71.35428 -1.85531,144.67783 -4.05773,216.91513 0.12452,86.00216 18.91946,171.00096 27.62482,256.42956 z" /><path
           id="path20"
           style="fill:#112552;fill-opacity:1;fill-rule:nonzero;stroke:none"
           d="m -0.207673,1500.54 c 20.851208,1.2527 62.195857,30.0133 52.318773,-9.98 24.46129,9.2774 49.151,36.546 73.18945,12.5187 36.94907,-5.7075 17.19668,-39.5822 15.40524,-64.5346 -9.4005,-58.7036 -23.4978,-117.1291 -15.31477,-176.8739 6.176,-94.6732 4.27008,-190.2589 16.85996,-284.27101 8.76328,-43.2256 9.90585,-88.86601 29.67316,-128.319 -27.01075,-68.71785 -41.92702,-143.71693 11.1918,-208.01642 48.05498,-87.24979 147.19659,-173.74213 253.52822,-137.30233 74.37643,21.19472 177.03742,32.652 201.37284,120.77468 22.025,87.01833 44.89532,180.15706 10.94925,267.63957 -10.52728,71.66832 -62.14017,152.10381 -146.34944,128.00851 -86.59811,12.2774 -172.42815,9.7576 -257.13728,-13.6407 -37.12479,-42.28678 -60.28738,10.4558 -59.11857,30.5768 38.16152,-29.1636 17.43272,17.5714 15.23778,40.4197 -33.15203,66.539 50.28475,35.321 82.29854,71.4022 51.44827,87.0166 150.58357,53.2053 219.10191,12.0389 83.12244,-34.9269 183.02206,-52.9839 233.91662,-136.5404 80.83935,-119.92337 62.45786,-278.78901 7.72673,-405.65496 C 700.05083,511.12024 607.53858,419.15529 495.42288,384.53189 409.03784,368.9427 297.69786,337.88639 228.40397,410.63998 187.79445,469.03934 132.86486,512.44657 70.756905,546.06894 1.315788,590.77186 19.195196,680.38265 31.260431,748.49857 c 11.185903,131.21116 -57.243439,254.77273 -44.601168,386.67623 -0.113937,109.2294 -5.241382,218.9005 -2.985076,327.7941 9.5364203,30.5594 30.408258,56.1025 52.010313,79.0211" /><path
           id="path22"
           style="fill:none;stroke:#112552;stroke-width:10;stroke-linecap:butt;stroke-linejoin:miter;stroke-miterlimit:4;stroke-dasharray:none;stroke-opacity:1"
           d="m -3.21475,1496.81 c 22.462567,3.706 60.724579,-22.0138 71.516976,3.4275 10.88608,29.781 22.953913,53.6112 46.779144,18.236 28.84265,3.7505 41.48498,10.6323 31.51396,-31.3863 -5.54774,-96.7973 -16.99701,-194.5767 -6.80076,-291.1702 8.57746,-58.5428 23.80452,-116.8878 28.20709,-175.5547 -8.68191,-58.05722 -7.90731,-118.57036 -27.16787,-173.78672 29.34076,-76.17558 66.32152,-149.15526 55.51657,-235.1849 31.33292,-75.91977 105.85218,-125.07414 188.03743,-120.16799 70.44996,3.7537 146.67858,19.14836 202.73921,64.32931 46.01059,54.29558 42.72764,131.1013 66.39225,195.40539 6.15527,74.69857 -4.20262,168.5096 -59.66621,222.75574 -48.41502,37.60407 -99.43943,108.15257 -169.22754,81.45827 -67.84935,-28.646 -135.0222,-59.22658 -206.16926,-76.54822 -17.13871,-19.50449 -23.93733,70.03512 -25.53899,50.36122 -0.7767,2.4463 -10.56902,48.0632 -8.98246,67.1457 -21.78206,57.0888 41.11507,59.0376 81.62661,73.8156 88.00605,13.1821 179.99503,21.4797 264.71013,-12.9044 73.64789,-31.8069 171.7582,-22.5404 219.71589,-98.6339 46.81581,-76.50851 17.08399,-170.94474 41.86821,-254.06401 19.09252,-94.3326 17.7853,-201.6673 -50.64006,-276.93495 C 667.19966,440.39395 571.53722,360.1886 452.46381,352.57289 364.74708,332.17213 271.53554,346.75158 196.42195,397.28869 135.12827,429.10646 85.123196,482.94406 72.914811,552.58894 39.650969,642.87184 10.058104,736.05777 12.054917,833.4864 -3.2944244,945.1973 -49.11418,1060.9265 -2.796075,1171.8288 c 47.428524,109.95 -2.7035232,225.441 -1.9003918,338.4 -8.3422602,58.7615 -0.6668056,2.0196 1.4817168,-13.4188 z" /></g><text
         xml:space="preserve"
         style="font-style:normal;font-weight:normal;font-size:274.152px;line-height:1.25;font-family:sans-serif;letter-spacing:0px;word-spacing:0px;fill:#e01b24;fill-opacity:1;stroke:none;stroke-width:6.8538"
         x="1478.26"
         y="543.86981"
         id="text912"
         transform="matrix(0.92388567,0.38266861,0.38266861,-0.92388567,0,0)"><tspan
           sodipodi:role="line"
           id="tspan910"
           x="1478.26"
           y="543.86981"
           style="font-style:normal;font-variant:normal;font-weight:normal;font-stretch:normal;font-family:DJGROSS;-inkscape-font-specification:DJGROSS;fill:#e01b24;stroke-width:6.8538">HRI rocks!</tspan></text></g></g></svg>
