<?xml version="1.0" encoding="UTF-8" standalone="no"?>
<svg
   xmlns:dc="http://purl.org/dc/elements/1.1/"
   xmlns:cc="http://creativecommons.org/ns#"
   xmlns:rdf="http://www.w3.org/1999/02/22-rdf-syntax-ns#"
   xmlns:svg="http://www.w3.org/2000/svg"
   xmlns="http://www.w3.org/2000/svg"
   xmlns:sodipodi="http://sodipodi.sourceforge.net/DTD/sodipodi-0.dtd"
   xmlns:inkscape="http://www.inkscape.org/namespaces/inkscape"
   version="1.1"
   id="mdi-timer-outline"
   width="24.5"
   height="32"
   viewBox="0 0 24.5 32"
   sodipodi:docname="cancel.svg"
   inkscape:version="1.0.1 (0767f8302a, 2020-10-17)">
  <metadata
     id="metadata9">
    <rdf:RDF>
      <cc:Work
         rdf:about="">
        <dc:format>image/svg+xml</dc:format>
        <dc:type
           rdf:resource="http://purl.org/dc/dcmitype/StillImage" />
        <dc:title></dc:title>
      </cc:Work>
    </rdf:RDF>
  </metadata>
  <defs
     id="defs7" />
  <sodipodi:namedview
     pagecolor="#ffffff"
     bordercolor="#666666"
     borderopacity="1"
     objecttolerance="10"
     gridtolerance="10"
     guidetolerance="10"
     inkscape:pageopacity="0"
     inkscape:pageshadow="2"
     inkscape:window-width="1920"
     inkscape:window-height="1052"
     id="namedview5"
     showgrid="false"
     inkscape:snap-page="true"
     fit-margin-top="0"
     fit-margin-left="0"
     fit-margin-right="0"
     fit-margin-bottom="0"
     inkscape:zoom="10.827573"
     inkscape:cx="9.2253691"
     inkscape:cy="15.319933"
     inkscape:window-x="1920"
     inkscape:window-y="0"
     inkscape:window-maximized="1"
     inkscape:current-layer="text881"
     inkscape:document-rotation="0" />
  <g
     aria-label="connect"
     id="text881"
     style="font-style:normal;font-weight:normal;font-size:6.27891px;line-height:1.25;font-family:sans-serif;letter-spacing:0px;word-spacing:0px;fill:#000000;fill-opacity:1;stroke:none;stroke-width:0.156973">
    <path
       id="rect834"
       style="fill:#000000;fill-opacity:1;stroke:none;stroke-width:0.379048"
       d="m 8.2109371,6.4475048 -1.4375,1.4375 4.0390629,4.0390622 -4.0390629,4.039062 1.4375,1.4375 4.0390629,-4.039062 4.039062,4.039062 1.4375,-1.4375 -4.039062,-4.039062 4.039062,-4.0390622 -1.4375,-1.4375 L 12.25,10.486567 Z M 12.25,1.9240674 c -5.5000005,0 -10.0000005,4.4999999 -10.0000005,9.9999996 0,5.5 4.5,10 10.0000005,10 5.5,0 10,-4.5 10,-10 0,-5.4999997 -4.5,-9.9999996 -10,-9.9999996 m 0,17.9999996 c -4.4100005,0 -8.0000005,-3.59 -8.0000005,-8 0,-4.4099997 3.59,-7.9999996 8.0000005,-7.9999996 4.41,0 8,3.5899999 8,7.9999996 0,4.41 -3.59,8 -8,8" />
    <g
       aria-label="cancel"
       id="text1002"
       style="font-size:6.39991px;line-height:1.25;font-family:FredokaOne;-inkscape-font-specification:FredokaOne;letter-spacing:0px;word-spacing:0px;stroke-width:0.0251154">
      <path
         d="m 3.5462226,27.150161 q 0,0.268797 0.1791974,0.422395 0.1791975,0.147197 0.3775947,0.147197 0.2047971,0 0.3775947,-0.115198 0.1791975,-0.121598 0.287996,-0.121598 0.1919973,0 0.4671934,0.339195 0.1471979,0.185597 0.1471979,0.332795 0,0.243197 -0.351995,0.454394 -0.3647949,0.255996 -0.8959874,0.255996 -0.5951917,0 -1.1455839,-0.428794 -0.2623963,-0.204797 -0.428794,-0.543992 -0.1663976,-0.345595 -0.1663976,-0.755189 0,-0.415995 0.1663976,-0.74879 0.1663977,-0.339195 0.428794,-0.543992 0.5311925,-0.422394 1.1327841,-0.422394 0.2431965,0 0.4735933,0.0704 0.2303967,0.064 0.3391952,0.127998 l 0.1023986,0.064 q 0.1151984,0.0768 0.1791975,0.121598 0.1663976,0.127999 0.1663976,0.294396 0,0.159998 -0.1343981,0.364795 -0.2303968,0.351995 -0.4415938,0.351995 -0.1215983,0 -0.3455951,-0.140798 -0.1151984,-0.108798 -0.3327953,-0.108798 -0.2111971,0 -0.3967945,0.153597 -0.1855973,0.153598 -0.1855973,0.428794 z"
         style="stroke-width:0.0251154"
         id="path1004" />
      <path
         d="m 7.9914601,25.81898 q 0.038399,-0.358395 0.5055929,-0.358395 0.2495965,0 0.3711948,0.0384 0.1215983,0.0384 0.1663977,0.134398 0.051199,0.096 0.057599,0.172797 0.0128,0.0704 0.0128,0.217597 v 2.239969 q 0,0.147198 -0.0128,0.223997 -0.0064,0.0704 -0.051199,0.166397 -0.089599,0.166398 -0.4415938,0.166398 -0.3455952,0 -0.4671935,-0.0832 -0.1151983,-0.0896 -0.1343981,-0.255996 -0.2367966,0.339195 -0.7935888,0.339195 -0.5503923,0 -1.0239856,-0.505593 -0.4735933,-0.505593 -0.4735933,-1.171183 0,-0.671991 0.4735933,-1.171184 0.4799933,-0.505593 1.0495852,-0.505593 0.217597,0 0.3967945,0.0768 0.1791974,0.0768 0.2495964,0.147198 0.070399,0.064 0.1151984,0.127998 z m -1.1647836,1.331181 q 0,0.211197 0.1663977,0.383995 0.1663976,0.166398 0.4031943,0.166398 0.2367967,0 0.3903945,-0.172798 0.1599978,-0.172797 0.1599978,-0.377595 0,-0.211197 -0.1535979,-0.390394 -0.1471979,-0.179198 -0.4031943,-0.179198 -0.2495965,0 -0.4095942,0.179198 -0.1535979,0.179197 -0.1535979,0.390394 z"
         style="stroke-width:0.0251154"
         id="path1006" />
      <path
         d="m 11.490311,25.460585 q 0.639991,0 1.062385,0.492793 0.428794,0.486393 0.428794,1.190384 v 1.126384 q 0,0.147198 -0.0128,0.223997 -0.0064,0.0704 -0.0512,0.159997 -0.0896,0.172798 -0.499193,0.172798 -0.454394,0 -0.524793,-0.236797 -0.0384,-0.108798 -0.0384,-0.326395 v -1.126384 q 0,-0.262397 -0.153598,-0.409595 -0.147198,-0.147198 -0.403194,-0.147198 -0.249597,0 -0.409595,0.153598 -0.153597,0.153598 -0.153597,0.403195 v 1.132784 q 0,0.147198 -0.0128,0.223997 -0.0064,0.0704 -0.0576,0.159997 -0.0832,0.172798 -0.492794,0.172798 -0.4031939,0 -0.4927926,-0.172798 -0.044799,-0.096 -0.057599,-0.166397 -0.0064,-0.0768 -0.0064,-0.223997 v -2.265568 q 0,-0.140798 0.0064,-0.211197 0.0128,-0.0768 0.063999,-0.166398 0.089599,-0.159998 0.4927927,-0.159998 0.390395,0 0.479994,0.147198 0.064,0.108799 0.064,0.262396 0.0256,-0.0448 0.115198,-0.127998 0.0896,-0.0832 0.172798,-0.134398 0.217597,-0.147198 0.479993,-0.147198 z"
         style="stroke-width:0.0251154"
         id="path1008" />
      <path
         d="m 14.546068,27.150161 q 0,0.268797 0.179198,0.422395 0.179197,0.147197 0.377594,0.147197 0.204797,0 0.377595,-0.115198 0.179197,-0.121598 0.287996,-0.121598 0.191997,0 0.467193,0.339195 0.147198,0.185597 0.147198,0.332795 0,0.243197 -0.351995,0.454394 -0.364795,0.255996 -0.895987,0.255996 -0.595192,0 -1.145584,-0.428794 -0.262396,-0.204797 -0.428794,-0.543992 -0.166398,-0.345595 -0.166398,-0.755189 0,-0.415995 0.166398,-0.74879 0.166398,-0.339195 0.428794,-0.543992 0.531192,-0.422394 1.132784,-0.422394 0.243197,0 0.473593,0.0704 0.230397,0.064 0.339196,0.127998 l 0.102398,0.064 q 0.115198,0.0768 0.179198,0.121598 0.166397,0.127999 0.166397,0.294396 0,0.159998 -0.134398,0.364795 -0.230397,0.351995 -0.441594,0.351995 -0.121598,0 -0.345595,-0.140798 -0.115198,-0.108798 -0.332795,-0.108798 -0.211197,0 -0.396795,0.153597 -0.185597,0.153598 -0.185597,0.428794 z"
         style="stroke-width:0.0251154"
         id="path1010" />
      <path
         d="m 19.953692,26.746967 q 0,0.390395 -0.198397,0.582392 -0.191998,0.185597 -0.428794,0.185597 h -1.516779 q 0,0.179198 0.211197,0.300796 0.211197,0.121598 0.422394,0.121598 0.371195,0 0.582392,-0.0768 l 0.0704,-0.0256 q 0.153598,-0.0704 0.255996,-0.0704 0.204798,0 0.351995,0.287996 0.0832,0.172797 0.0832,0.294396 0,0.569592 -1.363181,0.569592 -0.473593,0 -0.844788,-0.159998 -0.364794,-0.166398 -0.569592,-0.435194 -0.403194,-0.518393 -0.403194,-1.158384 0,-0.806388 0.518393,-1.286382 0.524792,-0.486393 1.305581,-0.486393 0.889588,0 1.305582,0.627191 0.217597,0.332796 0.217597,0.72959 z m -1.350381,0.185598 q 0.243197,0 0.243197,-0.204798 0,-0.147198 -0.115199,-0.236796 -0.108798,-0.0896 -0.319995,-0.0896 -0.204797,0 -0.409595,0.172798 -0.204797,0.166397 -0.204797,0.358395 z"
         style="stroke-width:0.0251154"
         id="path1012" />
      <path
         d="m 20.364986,24.4366 q 0,-0.147198 0.0064,-0.217597 0.0128,-0.0768 0.0576,-0.172798 0.0896,-0.172797 0.499193,-0.172797 0.390394,0 0.486393,0.172797 0.0512,0.096 0.0576,0.172798 0.0128,0.0768 0.0128,0.223997 v 2.963158 q 0,0.230397 0.0384,0.294396 0.0384,0.0576 0.166398,0.0576 0.134398,0 0.179197,0.0128 0.0448,0.0064 0.108799,0.0512 0.127998,0.0832 0.127998,0.454394 0,0.403194 -0.127998,0.492793 -0.166398,0.115198 -0.793589,0.0384 -0.492793,-0.064 -0.639991,-0.326395 -0.179197,-0.313596 -0.179197,-0.998386 z"
         style="stroke-width:0.0251154"
         id="path1014" />
    </g>
  </g>
</svg>
