<?xml version="1.0" encoding="UTF-8" standalone="no"?>
<svg
   xmlns:dc="http://purl.org/dc/elements/1.1/"
   xmlns:cc="http://creativecommons.org/ns#"
   xmlns:rdf="http://www.w3.org/1999/02/22-rdf-syntax-ns#"
   xmlns:svg="http://www.w3.org/2000/svg"
   xmlns="http://www.w3.org/2000/svg"
   xmlns:sodipodi="http://sodipodi.sourceforge.net/DTD/sodipodi-0.dtd"
   xmlns:inkscape="http://www.inkscape.org/namespaces/inkscape"
   version="1.1"
   id="mdi-check-circle-outline"
   width="24"
   height="24"
   viewBox="0 0 24 24"
   sodipodi:docname="checkbox-ticked.svg"
   inkscape:version="1.0.1 (0767f8302a, 2020-10-17)">
  <metadata
     id="metadata9">
    <rdf:RDF>
      <cc:Work
         rdf:about="">
        <dc:format>image/svg+xml</dc:format>
        <dc:type
           rdf:resource="http://purl.org/dc/dcmitype/StillImage" />
        <dc:title></dc:title>
      </cc:Work>
    </rdf:RDF>
  </metadata>
  <defs
     id="defs7" />
  <sodipodi:namedview
     pagecolor="#ffffff"
     bordercolor="#666666"
     borderopacity="1"
     objecttolerance="10"
     gridtolerance="10"
     guidetolerance="10"
     inkscape:pageopacity="0"
     inkscape:pageshadow="2"
     inkscape:window-width="1920"
     inkscape:window-height="1052"
     id="namedview5"
     showgrid="false"
     inkscape:zoom="21.655145"
     inkscape:cx="17.246297"
     inkscape:cy="10.708779"
     inkscape:window-x="1920"
     inkscape:window-y="0"
     inkscape:window-maximized="1"
     inkscape:current-layer="mdi-check-circle-outline" />
  <path
     id="rect834"
     style="fill:#000000;stroke:none;stroke-width:0.755906;stroke-linejoin:round"
     d="M 2.0351562 2.0234375 L 2.0351562 13.195312 L 3.1425781 11.273438 A 1.1213299 1.1213299 0 0 1 3.9746094 10.720703 L 3.9746094 3.9667969 L 15.259766 3.9667969 L 16.380859 2.0234375 L 2.0351562 2.0234375 z M 22.001953 4.2675781 L 20.060547 7.6308594 L 20.060547 20.068359 L 12.876953 20.068359 L 12.386719 20.917969 A 1.1213299 1.1213299 0 0 1 10.855469 21.330078 L 8.6699219 20.068359 L 3.9746094 20.068359 L 3.9746094 17.357422 L 2.0351562 16.238281 L 2.0351562 22.009766 L 22.001953 22.009766 L 22.001953 4.2675781 z " />
  <g
     id="g845"
     transform="matrix(1.4635685,0,0,1.4635685,-5.5187613,-9.1023388)"
     style="stroke:none">
    <path
       id="path2"
       style="stroke:none;stroke-width:0.595121;stroke-miterlimit:4;stroke-dasharray:none"
       sodipodi:type="inkscape:offset"
       inkscape:radius="0"
       inkscape:original="M 16.591797 6.3144531 L 10.634766 16.634766 L 6.5820312 14.304688 L 5.3085938 16.513672 L 11.570312 20.128906 L 18.804688 7.6015625 L 16.591797 6.3144531 z "
       d="M 16.591797,6.3144531 10.634766,16.634766 6.5820312,14.304688 5.3085938,16.513672 11.570312,20.128906 18.804688,7.6015625 Z" />
  </g>
  <g
     id="g871"
     transform="matrix(1.4635685,0,0,1.4635685,-5.5187613,-9.1023388)"
     style="stroke:none" />
</svg>
