<?xml version="1.0" encoding="UTF-8" standalone="no"?>
<svg
   xmlns:dc="http://purl.org/dc/elements/1.1/"
   xmlns:cc="http://creativecommons.org/ns#"
   xmlns:rdf="http://www.w3.org/1999/02/22-rdf-syntax-ns#"
   xmlns:svg="http://www.w3.org/2000/svg"
   xmlns="http://www.w3.org/2000/svg"
   xmlns:sodipodi="http://sodipodi.sourceforge.net/DTD/sodipodi-0.dtd"
   xmlns:inkscape="http://www.inkscape.org/namespaces/inkscape"
   version="1.1"
   id="mdi-check-circle-outline"
   width="24"
   height="24"
   viewBox="0 0 24 24"
   sodipodi:docname="cross-circle-outline.svg"
   inkscape:version="1.0.1 (0767f8302a, 2020-10-17)">
  <metadata
     id="metadata9">
    <rdf:RDF>
      <cc:Work
         rdf:about="">
        <dc:format>image/svg+xml</dc:format>
        <dc:type
           rdf:resource="http://purl.org/dc/dcmitype/StillImage" />
      </cc:Work>
    </rdf:RDF>
  </metadata>
  <defs
     id="defs7" />
  <sodipodi:namedview
     pagecolor="#ffffff"
     bordercolor="#666666"
     borderopacity="1"
     objecttolerance="10"
     gridtolerance="10"
     guidetolerance="10"
     inkscape:pageopacity="0"
     inkscape:pageshadow="2"
     inkscape:window-width="1920"
     inkscape:window-height="1043"
     id="namedview5"
     showgrid="false"
     inkscape:zoom="30.625"
     inkscape:cx="12"
     inkscape:cy="12"
     inkscape:window-x="0"
     inkscape:window-y="0"
     inkscape:window-maximized="1"
     inkscape:current-layer="mdi-check-circle-outline" />
  <g
     id="g840"
     transform="matrix(1.0512149,0,0,1.0512149,-2.4520776,-0.39396941)"
     style="fill:#000000;fill-opacity:1">
    <path
       id="rect834"
       style="opacity:1;fill:#000000;stroke:none;stroke-width:0.379048;fill-opacity:1"
       transform="matrix(0.95128028,0,0,0.95128028,2.3326131,0.37477526)"
       d="m 7.9609375,6.5234375 -1.4375,1.4375 L 10.5625,12 l -4.0390625,4.039062 1.4375,1.4375 L 12,13.4375 l 4.039062,4.039062 1.4375,-1.4375 L 13.4375,12 17.476562,7.9609375 16.039062,6.5234375 12,10.5625 Z M 12,2.0000001 C 6.4999999,2.0000001 1.9999999,6.5 1.9999999,12 c 0,5.5 4.5,10 10.0000001,10 5.5,0 10,-4.5 10,-10 C 22,6.5 17.5,2.0000001 12,2.0000001 M 12,20 c -4.4100001,0 -8.0000001,-3.59 -8.0000001,-8 0,-4.41 3.59,-7.9999999 8.0000001,-7.9999999 4.41,0 8,3.5899999 8,7.9999999 0,4.41 -3.59,8 -8,8" />
  </g>
</svg>
