<?xml version="1.0" encoding="UTF-8" standalone="no"?>
<svg
   xmlns:dc="http://purl.org/dc/elements/1.1/"
   xmlns:cc="http://creativecommons.org/ns#"
   xmlns:rdf="http://www.w3.org/1999/02/22-rdf-syntax-ns#"
   xmlns:svg="http://www.w3.org/2000/svg"
   xmlns="http://www.w3.org/2000/svg"
   xmlns:sodipodi="http://sodipodi.sourceforge.net/DTD/sodipodi-0.dtd"
   xmlns:inkscape="http://www.inkscape.org/namespaces/inkscape"
   version="1.1"
   id="mdi-timer-outline"
   width="24.5"
   height="32"
   viewBox="0 0 24.5 32"
   sodipodi:docname="emoji-confused-active.svg"
   inkscape:version="1.0.1 (0767f8302a, 2020-10-17)">
  <metadata
     id="metadata9">
    <rdf:RDF>
      <cc:Work
         rdf:about="">
        <dc:format>image/svg+xml</dc:format>
        <dc:type
           rdf:resource="http://purl.org/dc/dcmitype/StillImage" />
        <dc:title></dc:title>
      </cc:Work>
    </rdf:RDF>
  </metadata>
  <defs
     id="defs7" />
  <sodipodi:namedview
     pagecolor="#ffffff"
     bordercolor="#666666"
     borderopacity="1"
     objecttolerance="10"
     gridtolerance="10"
     guidetolerance="10"
     inkscape:pageopacity="0"
     inkscape:pageshadow="2"
     inkscape:window-width="1920"
     inkscape:window-height="1052"
     id="namedview5"
     showgrid="false"
     inkscape:snap-page="true"
     fit-margin-top="0"
     fit-margin-left="0"
     fit-margin-right="0"
     fit-margin-bottom="0"
     inkscape:zoom="10.827573"
     inkscape:cx="9.9201403"
     inkscape:cy="4.6653668"
     inkscape:window-x="1920"
     inkscape:window-y="0"
     inkscape:window-maximized="1"
     inkscape:current-layer="text881"
     inkscape:document-rotation="0" />
  <g
     aria-label="connect"
     id="text881"
     style="font-style:normal;font-weight:normal;font-size:6.27891px;line-height:1.25;font-family:sans-serif;letter-spacing:0px;word-spacing:0px;fill:#000000;fill-opacity:1;stroke:none;stroke-width:0.156973">
    <path
       d="m 12.25,1.2565675 a 10,10 0 1 0 10,10.0000005 10,10 0 0 0 -10,-10.0000005 m -3.5,6 a 1.5,1.5 0 1 1 -1.5000001,1.5 1.54,1.54 0 0 1 1.5000001,-1.5 m 8.5,8.0000005 h -4 a 4,4 0 0 0 -3.47,2 l -1.7300001,-1 a 6,6 0 0 1 5.2000001,-3 h 4 m -1.5,-3 a 1.5,1.5 0 1 1 1.5,-1.5000005 1.54,1.54 0 0 1 -1.5,1.5000005 z"
       id="path1464" />
    <g
       aria-label="confused"
       id="text1170"
       style="font-size:5.6033px;line-height:1.25;font-family:FredokaOne;-inkscape-font-specification:FredokaOne;letter-spacing:0px;word-spacing:0px;stroke-width:0.0219892">
      <path
         d="m 1.0676074,27.448753 q 0,0.235338 0.1568924,0.369817 0.1568924,0.128876 0.3305947,0.128876 0.1793056,0 0.3305947,-0.100859 0.1568924,-0.106463 0.2521485,-0.106463 0.168099,0 0.4090409,0.296975 0.1288759,0.162496 0.1288759,0.291372 0,0.212925 -0.3081815,0.397834 -0.3193881,0.224132 -0.784462,0.224132 -0.5211069,0 -1.00299075,-0.375421 -0.2297353,-0.179306 -0.3754211,-0.476281 -0.1456858,-0.302578 -0.1456858,-0.661189 0,-0.364215 0.1456858,-0.655586 0.1456858,-0.296975 0.3754211,-0.476281 0.46507395,-0.369817 0.99178415,-0.369817 0.2129254,0 0.4146442,0.06164 0.2017188,0.05603 0.2969749,0.112066 l 0.089653,0.05603 q 0.1008594,0.06724 0.1568924,0.106463 0.1456858,0.112066 0.1456858,0.257751 0,0.140083 -0.1176693,0.319388 -0.2017188,0.308182 -0.3866277,0.308182 -0.1064627,0 -0.3025782,-0.123273 -0.1008594,-0.09526 -0.2913716,-0.09526 -0.1849089,0 -0.3474046,0.134479 -0.1624957,0.13448 -0.1624957,0.375422 z"
         style="stroke-width:0.0219892"
         id="path1492" />
      <path
         d="m 2.9591589,27.448753 q 0,-0.672396 0.4706772,-1.109454 0.4706772,-0.437057 1.0758336,-0.437057 0.6051564,0 1.0702303,0.437057 0.4650739,0.431454 0.4650739,1.10385 0,0.465074 -0.2409419,0.829289 -0.2409419,0.358611 -0.5883465,0.532313 -0.3418013,0.168099 -0.7116191,0.168099 -0.3698178,0 -0.7172224,-0.179305 Q 3.4354394,28.608636 3.1944975,28.255628 2.9591589,27.897017 2.9591589,27.448753 Z m 1.1710897,0.403437 q 0.1793056,0.134479 0.3642145,0.134479 0.1849089,0 0.3698178,-0.140082 0.1849089,-0.140083 0.1849089,-0.414644 0,-0.274562 -0.1737023,-0.409041 -0.1737023,-0.134479 -0.3754211,-0.134479 -0.2017188,0 -0.3754211,0.140082 -0.1737023,0.140083 -0.1737023,0.414644 0,0.268959 0.1793056,0.409041 z"
         style="stroke-width:0.0219892"
         id="path1494" />
      <path
         d="m 8.0447666,25.969481 q 0.56033,0 0.9301478,0.431454 0.3754211,0.425851 0.3754211,1.042214 v 0.986181 q 0,0.128876 -0.011207,0.196116 -0.0056,0.06164 -0.044826,0.140082 -0.078446,0.151289 -0.4370574,0.151289 -0.3978343,0 -0.4594706,-0.207322 -0.03362,-0.09526 -0.03362,-0.285768 v -0.986181 q 0,-0.229735 -0.1344792,-0.358611 -0.1288759,-0.128876 -0.3530079,-0.128876 -0.2185287,0 -0.3586112,0.134479 -0.1344792,0.134479 -0.1344792,0.353008 v 0.991784 q 0,0.128876 -0.011207,0.196116 -0.0056,0.06164 -0.05043,0.140082 -0.072843,0.151289 -0.4314541,0.151289 -0.3530079,0 -0.4314541,-0.151289 -0.039223,-0.08405 -0.05043,-0.145686 -0.0056,-0.06724 -0.0056,-0.196115 v -1.983568 q 0,-0.123273 0.0056,-0.184909 0.011207,-0.06724 0.056033,-0.145686 0.078446,-0.140083 0.4314541,-0.140083 0.3418013,0 0.4202475,0.128876 0.056033,0.09526 0.056033,0.229736 0.022413,-0.03922 0.1008594,-0.112066 0.078446,-0.07284 0.1512891,-0.11767 0.1905122,-0.128876 0.4202475,-0.128876 z"
         style="stroke-width:0.0219892"
         id="path1496" />
      <path
         d="m 11.412,25.975085 q 0.386627,0 0.453867,0.212925 0.03362,0.106463 0.03362,0.280165 0,0.173702 -0.03922,0.280165 -0.03362,0.100859 -0.112066,0.145686 -0.11767,0.06724 -0.341802,0.06724 l -0.358611,-0.02241 v 1.501685 q 0,0.212925 -0.05603,0.319388 -0.05043,0.100859 -0.162496,0.134479 -0.106462,0.03362 -0.280165,0.03362 -0.173702,0 -0.280165,-0.03362 -0.100859,-0.03922 -0.145685,-0.117669 -0.04483,-0.08405 -0.05603,-0.151289 -0.0056,-0.06724 -0.0056,-0.196116 V 26.944456 H 9.8598855 q -0.1456858,-0.01121 -0.2073221,-0.06724 -0.1064627,-0.106463 -0.1064627,-0.409041 0,-0.459471 0.3305947,-0.459471 H 10.061604 V 25.71173 q 0,-0.431455 0.308182,-0.778859 0.308181,-0.353008 0.890925,-0.353008 0.128875,0 0.190512,0.01121 0.06724,0.0056 0.151289,0.05043 0.151289,0.07284 0.151289,0.431454 0,0.268959 -0.09526,0.386628 -0.07845,0.08965 -0.246545,0.100859 -0.05043,0 -0.156893,0 -0.207322,0 -0.207322,0.140083 v 0.308181 z"
         style="stroke-width:0.0219892"
         id="path1498" />
      <path
         d="m 13.514463,28.911214 q -0.565933,0 -0.941354,-0.425851 -0.369818,-0.431454 -0.369818,-1.047817 v -0.980578 q 0,-0.134479 0.0056,-0.196115 0.01121,-0.06164 0.05043,-0.145686 0.07845,-0.151289 0.437058,-0.151289 0.392231,0 0.45947,0.212925 0.03362,0.08965 0.03362,0.285769 v 0.980577 q 0,0.229736 0.128876,0.358611 0.134479,0.128876 0.353008,0.128876 0.224132,0 0.358611,-0.134479 0.140083,-0.134479 0.140083,-0.353008 v -0.991784 q 0,-0.128876 0.0056,-0.190512 0.01121,-0.06724 0.05603,-0.151289 0.07284,-0.145686 0.431454,-0.145686 0.353008,0 0.431454,0.151289 0.03922,0.08405 0.04483,0.151289 0.01121,0.06164 0.01121,0.190512 v 1.983569 q 0,0.123272 -0.01121,0.190512 -0.0056,0.06164 -0.05043,0.140082 -0.08405,0.145686 -0.431454,0.145686 -0.341802,0 -0.420248,-0.134479 -0.05603,-0.09526 -0.05603,-0.229735 -0.02241,0.03922 -0.100859,0.112066 -0.07845,0.07284 -0.151289,0.123272 -0.190513,0.123273 -0.414645,0.123273 z"
         style="stroke-width:0.0219892"
         id="path1500" />
      <path
         d="m 15.618327,28.659065 q -0.106462,-0.06724 -0.106462,-0.212925 0,-0.145686 0.212925,-0.442661 0.06164,-0.09526 0.196116,-0.09526 0.140082,0 0.375421,0.140083 0.235338,0.134479 0.42585,0.134479 0.341802,0 0.341802,-0.134479 0,-0.106463 -0.375421,-0.156893 -0.353008,-0.05043 -0.700413,-0.263355 -0.162496,-0.100859 -0.268958,-0.313785 -0.106463,-0.218528 -0.106463,-0.515503 0,-0.885322 1.215916,-0.885322 0.397834,0 0.818082,0.190513 0.196115,0.08965 0.196115,0.224132 0,0.134479 -0.123272,0.330594 -0.123273,0.196116 -0.252149,0.196116 -0.06724,0 -0.252148,-0.08405 -0.179306,-0.08405 -0.392231,-0.08405 -0.330595,0 -0.330595,0.123272 0,0.168099 0.381025,0.218529 0.369817,0.03922 0.717222,0.212925 0.162496,0.07845 0.268958,0.274562 0.112066,0.190512 0.112066,0.481884 0,0.291372 -0.112066,0.498694 -0.106462,0.201718 -0.302578,0.302578 -0.358611,0.173702 -0.902131,0.173702 -0.537917,0 -1.036611,-0.313785 z"
         style="stroke-width:0.0219892"
         id="path1502" />
      <path
         d="m 21.178376,27.095745 q 0,0.341801 -0.173702,0.5099 -0.168099,0.162496 -0.375421,0.162496 h -1.327982 q 0,0.156892 0.184909,0.263355 0.184909,0.106462 0.369818,0.106462 0.324991,0 0.5099,-0.06724 l 0.06164,-0.02241 q 0.134479,-0.06164 0.224132,-0.06164 0.179306,0 0.308182,0.252149 0.07284,0.151289 0.07284,0.257752 0,0.498693 -1.193503,0.498693 -0.414645,0 -0.739636,-0.140082 -0.319388,-0.145686 -0.498694,-0.381025 -0.353008,-0.453867 -0.353008,-1.014197 0,-0.706016 0.453868,-1.126263 0.45947,-0.425851 1.143073,-0.425851 0.778859,0 1.143073,0.549123 0.190512,0.291372 0.190512,0.638777 z M 19.99608,27.25824 q 0.212925,0 0.212925,-0.179305 0,-0.128876 -0.100859,-0.207322 -0.09526,-0.07845 -0.280165,-0.07845 -0.179306,0 -0.358611,0.15129 -0.179306,0.145685 -0.179306,0.313784 z"
         style="stroke-width:0.0219892"
         id="path1504" />
      <path
         d="m 23.516442,24.742359 q 0.04483,-0.08405 0.151289,-0.11767 0.106463,-0.03362 0.280165,-0.03362 0.179306,0 0.285769,0.03362 0.106462,0.03362 0.145685,0.11767 0.04483,0.08405 0.05043,0.151289 0.01121,0.06164 0.01121,0.190512 v 3.34517 q 0,0.128876 -0.01121,0.196116 -0.0056,0.06164 -0.05043,0.140082 -0.08405,0.151289 -0.47628,0.151289 -0.386628,0 -0.431454,-0.274562 -0.235339,0.268959 -0.655586,0.268959 -0.504297,0 -0.918942,-0.437058 -0.414644,-0.44266 -0.414644,-1.025403 0,-0.588347 0.414644,-1.031008 0.420248,-0.44266 0.918942,-0.44266 0.414644,0 0.644379,0.280165 v -1.176693 q 0,-0.128876 0.0056,-0.190513 0.01121,-0.06724 0.05043,-0.145685 z m -0.907734,3.042592 q 0.145685,0.151289 0.353007,0.151289 0.207323,0 0.341802,-0.151289 0.140082,-0.15129 0.140082,-0.330595 0,-0.184909 -0.134479,-0.341801 -0.128876,-0.156893 -0.353008,-0.156893 -0.224132,0 -0.358611,0.156893 -0.134479,0.151289 -0.134479,0.336198 0,0.184908 0.145686,0.336198 z"
         style="stroke-width:0.0219892"
         id="path1506" />
    </g>
  </g>
</svg>
