<?xml version="1.0" encoding="UTF-8" standalone="no"?>
<svg
   xmlns:dc="http://purl.org/dc/elements/1.1/"
   xmlns:cc="http://creativecommons.org/ns#"
   xmlns:rdf="http://www.w3.org/1999/02/22-rdf-syntax-ns#"
   xmlns:svg="http://www.w3.org/2000/svg"
   xmlns="http://www.w3.org/2000/svg"
   xmlns:sodipodi="http://sodipodi.sourceforge.net/DTD/sodipodi-0.dtd"
   xmlns:inkscape="http://www.inkscape.org/namespaces/inkscape"
   version="1.1"
   id="mdi-timer-outline"
   width="24.5"
   height="32"
   viewBox="0 0 24.5 32"
   sodipodi:docname="emoticon-happy-outline.svg"
   inkscape:version="1.0.1 (0767f8302a, 2020-10-17)">
  <metadata
     id="metadata9">
    <rdf:RDF>
      <cc:Work
         rdf:about="">
        <dc:format>image/svg+xml</dc:format>
        <dc:type
           rdf:resource="http://purl.org/dc/dcmitype/StillImage" />
        <dc:title></dc:title>
      </cc:Work>
    </rdf:RDF>
  </metadata>
  <defs
     id="defs7" />
  <sodipodi:namedview
     pagecolor="#ffffff"
     bordercolor="#666666"
     borderopacity="1"
     objecttolerance="10"
     gridtolerance="10"
     guidetolerance="10"
     inkscape:pageopacity="0"
     inkscape:pageshadow="2"
     inkscape:window-width="1920"
     inkscape:window-height="1052"
     id="namedview5"
     showgrid="false"
     inkscape:snap-page="true"
     fit-margin-top="0"
     fit-margin-left="0"
     fit-margin-right="0"
     fit-margin-bottom="0"
     inkscape:zoom="21.655146"
     inkscape:cx="16.970959"
     inkscape:cy="16.221657"
     inkscape:window-x="1920"
     inkscape:window-y="0"
     inkscape:window-maximized="1"
     inkscape:current-layer="text881"
     inkscape:document-rotation="0" />
  <g
     aria-label="connect"
     id="text881"
     style="font-style:normal;font-weight:normal;font-size:6.27891px;line-height:1.25;font-family:sans-serif;letter-spacing:0px;word-spacing:0px;fill:#000000;fill-opacity:1;stroke:none;stroke-width:0.156973">
    <path
       d="m 20.25,11.256567 a 8,8 0 0 0 -8,-8.0000001 8,8 0 0 0 -8.0000002,8.0000001 8,8 0 0 0 8.0000002,8 8,8 0 0 0 8,-8 m 2,0 a 10,10 0 0 1 -10,10 10,10 0 0 1 -10.0000002,-10 A 10,10 0 0 1 12.25,1.2565669 a 10,10 0 0 1 10,10.0000001 m -12,-2.5000001 c 0,0.8000001 -0.6999997,1.5000001 -1.5000002,1.5000001 -0.8,0 -1.5,-0.7 -1.5,-1.5000001 0,-0.8 0.7,-1.5 1.5,-1.5 0.8000005,0 1.5000002,0.7 1.5000002,1.5 m 7,0 c 0,0.8000001 -0.7,1.5000001 -1.5,1.5000001 -0.8,0 -1.5,-0.7 -1.5,-1.5000001 0,-0.8 0.7,-1.5 1.5,-1.5 0.8,0 1.5,0.7 1.5,1.5 m -5,7.7300001 c -1.75,0 -3.2900002,-0.73 -4.1900002,-1.81 l 1.4200005,-1.42 c 0.45,0.72 1.5199997,1.23 2.7699997,1.23 1.25,0 2.32,-0.51 2.77,-1.23 l 1.42,1.42 c -0.9,1.08 -2.44,1.81 -4.19,1.81 z"
       id="path1158" />
  </g>
</svg>
