<?xml version="1.0" encoding="UTF-8" standalone="no"?>
<svg
   xmlns:dc="http://purl.org/dc/elements/1.1/"
   xmlns:cc="http://creativecommons.org/ns#"
   xmlns:rdf="http://www.w3.org/1999/02/22-rdf-syntax-ns#"
   xmlns:svg="http://www.w3.org/2000/svg"
   xmlns="http://www.w3.org/2000/svg"
   xmlns:sodipodi="http://sodipodi.sourceforge.net/DTD/sodipodi-0.dtd"
   xmlns:inkscape="http://www.inkscape.org/namespaces/inkscape"
   version="1.1"
   id="mdi-timer-outline"
   width="24.5"
   height="32"
   viewBox="0 0 24.5 32"
   sodipodi:docname="emoji-angry-active.svg"
   inkscape:version="1.0.1 (0767f8302a, 2020-10-17)">
  <metadata
     id="metadata9">
    <rdf:RDF>
      <cc:Work
         rdf:about="">
        <dc:format>image/svg+xml</dc:format>
        <dc:type
           rdf:resource="http://purl.org/dc/dcmitype/StillImage" />
        <dc:title></dc:title>
      </cc:Work>
    </rdf:RDF>
  </metadata>
  <defs
     id="defs7" />
  <sodipodi:namedview
     pagecolor="#ffffff"
     bordercolor="#666666"
     borderopacity="1"
     objecttolerance="10"
     gridtolerance="10"
     guidetolerance="10"
     inkscape:pageopacity="0"
     inkscape:pageshadow="2"
     inkscape:window-width="1920"
     inkscape:window-height="1052"
     id="namedview5"
     showgrid="false"
     inkscape:snap-page="true"
     fit-margin-top="0"
     fit-margin-left="0"
     fit-margin-right="0"
     fit-margin-bottom="0"
     inkscape:zoom="21.655146"
     inkscape:cx="16.970959"
     inkscape:cy="16.221657"
     inkscape:window-x="1920"
     inkscape:window-y="0"
     inkscape:window-maximized="1"
     inkscape:current-layer="text881"
     inkscape:document-rotation="0" />
  <g
     aria-label="connect"
     id="text881"
     style="font-style:normal;font-weight:normal;font-size:6.27891px;line-height:1.25;font-family:sans-serif;letter-spacing:0px;word-spacing:0px;fill:#000000;fill-opacity:1;stroke:none;stroke-width:0.156973">
    <path
       d="m 12.25,1.2565675 a 10,10 0 0 0 -9.9999995,9.9999995 10,10 0 0 0 9.9999995,10 10,10 0 0 0 10,-10 10,10 0 0 0 -10,-9.9999995 m -5,7.5 v -1.5 l 3,1.5 c 0,0.8 -0.7,1.4999995 -1.5,1.4999995 -0.8,0 -1.5,-0.6999995 -1.5,-1.4999995 m 7.77,7.7299995 c -0.45,-0.73 -1.52,-1.23 -2.77,-1.23 -1.25,0 -2.32,0.5 -2.77,1.23 l -1.42,-1.42 c 0.9,-1.09 2.44,-1.81 4.19,-1.81 1.75,0 3.29,0.72 4.19,1.81 l -1.42,1.42 m 2.23,-7.7299995 c 0,0.8 -0.7,1.4999995 -1.5,1.4999995 -0.8,0 -1.5,-0.6999995 -1.5,-1.4999995 l 3,-1.5 z"
       id="path1425" />
    <g
       aria-label="angry"
       id="text1170"
       style="font-size:6.44815px;line-height:1.25;font-family:FredokaOne;-inkscape-font-specification:FredokaOne;letter-spacing:0px;word-spacing:0px;stroke-width:0.0253047">
      <path
         d="m 5.4983332,25.874357 q 0.038689,-0.361096 0.5094038,-0.361096 0.2514779,0 0.3739927,0.03869 0.1225149,0.03869 0.1676519,0.135411 0.051585,0.09672 0.058033,0.1741 0.012896,0.07093 0.012896,0.219237 v 2.256853 q 0,0.148307 -0.012896,0.225685 -0.00645,0.07093 -0.051585,0.167652 -0.090274,0.167652 -0.4449224,0.167652 -0.3482001,0 -0.4707149,-0.08383 -0.1160667,-0.09027 -0.1354112,-0.257926 -0.2385815,0.341752 -0.7995706,0.341752 -0.5545409,0 -1.031704,-0.509404 -0.4771631,-0.509404 -0.4771631,-1.180012 0,-0.677055 0.4771631,-1.180011 0.4836112,-0.509404 1.0574966,-0.509404 0.2192371,0 0.3997853,0.07738 0.1805482,0.07738 0.2514779,0.148307 0.07093,0.06448 0.1160667,0.128963 z m -1.1735634,1.341216 q 0,0.212789 0.1676519,0.386889 0.1676519,0.167652 0.4062335,0.167652 0.2385816,0 0.3933372,-0.174101 0.1612037,-0.1741 0.1612037,-0.38044 0,-0.212789 -0.1547556,-0.393338 -0.1483074,-0.180548 -0.4062335,-0.180548 -0.2514778,0 -0.4126816,0.180548 -0.1547556,0.180549 -0.1547556,0.393338 z"
         style="stroke-width:0.0253047"
         id="path1453" />
      <path
         d="m 9.023557,25.513261 q 0.644815,0 1.070393,0.496508 0.432026,0.490059 0.432026,1.199355 v 1.134875 q 0,0.148307 -0.0129,0.225685 -0.0064,0.07093 -0.05159,0.161204 -0.09027,0.1741 -0.5029552,0.1741 -0.4578187,0 -0.5287484,-0.238582 -0.038689,-0.109618 -0.038689,-0.328855 v -1.134875 q 0,-0.264374 -0.1547556,-0.412681 -0.1483074,-0.148308 -0.4062334,-0.148308 -0.2514779,0 -0.4126816,0.154756 -0.1547556,0.154755 -0.1547556,0.406233 v 1.141323 q 0,0.148307 -0.012896,0.225685 -0.00645,0.07093 -0.058033,0.161204 -0.083826,0.1741 -0.4965075,0.1741 -0.4062335,0 -0.4965076,-0.1741 -0.045137,-0.09672 -0.058033,-0.167652 -0.00645,-0.07738 -0.00645,-0.225685 v -2.282645 q 0,-0.14186 0.00645,-0.212789 0.012896,-0.07738 0.064482,-0.167652 0.090274,-0.161204 0.4965076,-0.161204 0.3933372,0 0.4836113,0.148307 0.064481,0.109619 0.064481,0.264375 0.025793,-0.04514 0.1160667,-0.128963 0.090274,-0.08383 0.1741,-0.135412 0.2192371,-0.148307 0.4836113,-0.148307 z"
         style="stroke-width:0.0253047"
         id="path1455" />
      <path
         d="m 13.192084,28.485858 q -0.245029,0.322408 -0.780226,0.322408 -0.535196,0 -1.005911,-0.49006 -0.464267,-0.496507 -0.464267,-1.154219 0,-0.657711 0.470715,-1.154218 0.470715,-0.496508 1.031704,-0.496508 0.219237,0 0.399785,0.08383 0.180549,0.07738 0.24503,0.148307 0.07093,0.06448 0.109619,0.122515 0.01934,-0.180548 0.128963,-0.270822 0.116066,-0.09672 0.367544,-0.09672 0.251478,0 0.367545,0.03869 0.116066,0.03869 0.161204,0.135411 0.05158,0.09027 0.05803,0.161203 0.0129,0.07093 0.0129,0.219238 v 2.669534 q 0,0.741537 -0.515852,1.192908 -0.515852,0.457818 -1.160667,0.457818 -0.490059,0 -0.934982,-0.238581 -0.444922,-0.238582 -0.444922,-0.432026 0,-0.251478 0.193444,-0.444923 0.122515,-0.135411 0.186997,-0.186996 0.07093,-0.05158 0.161204,-0.05158 0.09027,0 0.186996,0.07738 0.309511,0.238582 0.670608,0.238582 0.245029,0 0.399785,-0.193445 0.154755,-0.193444 0.154755,-0.464266 z m -1.14777,-1.315422 q 0,0.20634 0.161204,0.373992 0.167651,0.167652 0.399785,0.167652 0.238581,0 0.393337,-0.167652 0.154756,-0.1741 0.154756,-0.373992 0,-0.206341 -0.148308,-0.380441 -0.148307,-0.180549 -0.399785,-0.180549 -0.251478,0 -0.406234,0.174101 -0.154755,0.1741 -0.154755,0.386889 z"
         style="stroke-width:0.0253047"
         id="path1457" />
      <path
         d="m 17.125054,25.55195 q 0.122514,0.03869 0.199892,0.135411 0.08383,0.09027 0.08383,0.296615 0,0.206341 -0.122515,0.45137 -0.122515,0.24503 -0.354648,0.24503 -0.116067,0 -0.225685,-0.05158 -0.103171,-0.05158 -0.277271,-0.05158 -0.1741,0 -0.328855,0.122515 -0.148308,0.122514 -0.148308,0.296614 v 1.354112 q 0,0.148307 -0.0129,0.225685 -0.0064,0.07093 -0.05803,0.167652 -0.09672,0.167652 -0.502956,0.167652 -0.309511,0 -0.444922,-0.109618 -0.103171,-0.09028 -0.116067,-0.277271 0,-0.06448 0,-0.186996 V 26.07425 q 0,-0.148307 0.0064,-0.219237 0.0129,-0.07738 0.05803,-0.167652 0.09027,-0.1741 0.502956,-0.1741 0.386889,0 0.483611,0.148307 0.07093,0.103171 0.07093,0.212789 0.03224,-0.04514 0.09027,-0.109618 0.06448,-0.06448 0.264374,-0.1741 0.199893,-0.109619 0.3482,-0.109619 0.154756,0 0.257926,0.01934 0.103171,0.0129 0.225686,0.05159 z"
         style="stroke-width:0.0253047"
         id="path1459" />
      <path
         d="m 20.923216,25.55195 q 0.380441,0.167652 0.380441,0.406233 0,0.116067 -0.05159,0.219237 -0.05158,0.103171 -0.05158,0.109619 l -1.689415,3.778616 q -0.05159,0.122515 -0.09027,0.186996 -0.03224,0.06448 -0.109619,0.122515 -0.07738,0.05803 -0.193444,0.05803 -0.116067,0 -0.341752,-0.09672 -0.380441,-0.167652 -0.380441,-0.399785 0,-0.154756 0.619022,-1.476626 l -1.283182,-2.160131 q -0.128963,-0.212789 -0.128963,-0.315959 0,-0.206341 0.3482,-0.412682 0.219238,-0.128963 0.341752,-0.128963 0.122515,0 0.199893,0.05158 0.07738,0.05159 0.109619,0.109619 0.03869,0.05158 0.354648,0.599678 0.322407,0.541645 0.612574,1.01236 0.03224,-0.103171 0.3482,-0.793123 0.31596,-0.6964 0.335304,-0.741537 0.02579,-0.04514 0.07738,-0.109619 0.08383,-0.109618 0.232133,-0.109618 0.154756,0 0.361097,0.09027 z"
         style="stroke-width:0.0253047"
         id="path1461" />
    </g>
  </g>
</svg>
