<?xml version="1.0" encoding="UTF-8" standalone="no"?>
<svg
   xmlns:dc="http://purl.org/dc/elements/1.1/"
   xmlns:cc="http://creativecommons.org/ns#"
   xmlns:rdf="http://www.w3.org/1999/02/22-rdf-syntax-ns#"
   xmlns:svg="http://www.w3.org/2000/svg"
   xmlns="http://www.w3.org/2000/svg"
   xmlns:sodipodi="http://sodipodi.sourceforge.net/DTD/sodipodi-0.dtd"
   xmlns:inkscape="http://www.inkscape.org/namespaces/inkscape"
   version="1.1"
   id="mdi-timer-outline"
   width="24.5"
   height="32"
   viewBox="0 0 24.5 32"
   sodipodi:docname="emoji-sad-active.svg"
   inkscape:version="1.0.1 (0767f8302a, 2020-10-17)">
  <metadata
     id="metadata9">
    <rdf:RDF>
      <cc:Work
         rdf:about="">
        <dc:format>image/svg+xml</dc:format>
        <dc:type
           rdf:resource="http://purl.org/dc/dcmitype/StillImage" />
        <dc:title></dc:title>
      </cc:Work>
    </rdf:RDF>
  </metadata>
  <defs
     id="defs7" />
  <sodipodi:namedview
     pagecolor="#ffffff"
     bordercolor="#666666"
     borderopacity="1"
     objecttolerance="10"
     gridtolerance="10"
     guidetolerance="10"
     inkscape:pageopacity="0"
     inkscape:pageshadow="2"
     inkscape:window-width="1920"
     inkscape:window-height="1052"
     id="namedview5"
     showgrid="false"
     inkscape:snap-page="true"
     fit-margin-top="0"
     fit-margin-left="0"
     fit-margin-right="0"
     fit-margin-bottom="0"
     inkscape:zoom="21.655146"
     inkscape:cx="16.970959"
     inkscape:cy="16.221657"
     inkscape:window-x="1920"
     inkscape:window-y="0"
     inkscape:window-maximized="1"
     inkscape:current-layer="text881"
     inkscape:document-rotation="0" />
  <g
     aria-label="connect"
     id="text881"
     style="font-style:normal;font-weight:normal;font-size:6.27891px;line-height:1.25;font-family:sans-serif;letter-spacing:0px;word-spacing:0px;fill:#000000;fill-opacity:1;stroke:none;stroke-width:0.156973">
    <path
       d="m 12.25,1.2565673 a 10,10 0 0 0 -9.9999995,9.9999997 10,10 0 0 0 9.9999995,10 10,10 0 0 0 10,-10 10,10 0 0 0 -10,-9.9999997 m -4.9999995,7.5 c 0,-0.8 0.7,-1.5 1.5,-1.5 0.7999995,0 1.4999995,0.7 1.4999995,1.5 0,0.7999997 -0.7,1.4999997 -1.4999995,1.4999997 -0.8,0 -1.5,-0.7 -1.5,-1.4999997 M 15.02,16.486567 c -0.45,-0.73 -1.52,-1.23 -2.77,-1.23 -1.25,0 -2.32,0.5 -2.77,1.23 l -1.4199995,-1.42 c 0.9,-1.09 2.4399995,-1.81 4.1899995,-1.81 1.75,0 3.29,0.72 4.19,1.81 l -1.42,1.42 m 0.73,-6.23 c -0.8,0 -1.5,-0.7 -1.5,-1.4999997 0,-0.8 0.7,-1.5 1.5,-1.5 0.8,0 1.5,0.7 1.5,1.5 0,0.7999997 -0.7,1.4999997 -1.5,1.4999997 z"
       id="path1390" />
    <g
       aria-label="sad"
       id="text1170"
       style="font-size:6.44815px;line-height:1.25;font-family:FredokaOne;-inkscape-font-specification:FredokaOne;letter-spacing:0px;word-spacing:0px;stroke-width:0.0253047">
      <path
         d="m 7.159236,28.608373 q -0.1225149,-0.07738 -0.1225149,-0.24503 0,-0.167652 0.2450297,-0.509404 0.07093,-0.109618 0.2256853,-0.109618 0.1612037,0 0.432026,0.161204 0.2708224,0.154755 0.4900595,0.154755 0.3933371,0 0.3933371,-0.154755 0,-0.122515 -0.432026,-0.180549 -0.4062335,-0.05803 -0.8060188,-0.303063 -0.1869964,-0.116066 -0.3095112,-0.361096 -0.1225149,-0.251478 -0.1225149,-0.59323 0,-1.018808 1.3992486,-1.018808 0.4578187,0 0.9414299,0.219238 0.2256853,0.10317 0.2256853,0.257926 0,0.154755 -0.1418593,0.38044 -0.1418593,0.225686 -0.2901668,0.225686 -0.077378,0 -0.2901667,-0.09672 -0.2063408,-0.09672 -0.4513705,-0.09672 -0.3804409,0 -0.3804409,0.141859 0,0.193445 0.4384742,0.251478 0.4255779,0.04514 0.8253632,0.24503 0.1869964,0.09027 0.3095112,0.315959 0.128963,0.219237 0.128963,0.554541 0,0.335304 -0.128963,0.573886 -0.1225148,0.232133 -0.3482001,0.3482 -0.4126816,0.199892 -1.0381521,0.199892 -0.6190225,0 -1.1929078,-0.361096 z"
         style="stroke-width:0.0253047"
         id="path1418" />
      <path
         d="m 12.487222,25.874357 q 0.03869,-0.361096 0.509404,-0.361096 0.251477,0 0.373992,0.03869 0.122515,0.03869 0.167652,0.135411 0.05158,0.09672 0.05803,0.1741 0.0129,0.07093 0.0129,0.219237 v 2.256853 q 0,0.148307 -0.0129,0.225685 -0.0064,0.07093 -0.05159,0.167652 -0.09027,0.167652 -0.444922,0.167652 -0.3482,0 -0.470715,-0.08383 -0.116067,-0.09027 -0.135411,-0.257926 -0.238582,0.341752 -0.799571,0.341752 -0.554541,0 -1.031704,-0.509404 -0.477163,-0.509404 -0.477163,-1.180012 0,-0.677055 0.477163,-1.180011 0.483611,-0.509404 1.057497,-0.509404 0.219237,0 0.399785,0.07738 0.180548,0.07738 0.251478,0.148307 0.07093,0.06448 0.116067,0.128963 z m -1.173564,1.341216 q 0,0.212789 0.167652,0.386889 0.167652,0.167652 0.406234,0.167652 0.238581,0 0.393337,-0.174101 0.161204,-0.1741 0.161204,-0.38044 0,-0.212789 -0.154756,-0.393338 -0.148307,-0.180548 -0.406233,-0.180548 -0.251478,0 -0.412682,0.180548 -0.154756,0.180549 -0.154756,0.393338 z"
         style="stroke-width:0.0253047"
         id="path1420" />
      <path
         d="m 16.399334,24.101116 q 0.05159,-0.09672 0.174101,-0.135411 0.122514,-0.03869 0.322407,-0.03869 0.206341,0 0.328856,0.03869 0.122515,0.03869 0.167652,0.135411 0.05158,0.09672 0.05803,0.1741 0.0129,0.07093 0.0129,0.219237 v 3.849546 q 0,0.148307 -0.0129,0.225685 -0.0064,0.07093 -0.05803,0.161204 -0.09672,0.1741 -0.548093,0.1741 -0.444923,0 -0.496508,-0.315959 -0.270822,0.309511 -0.754433,0.309511 -0.580334,0 -1.057497,-0.502956 -0.477163,-0.509404 -0.477163,-1.180011 0,-0.677056 0.477163,-1.18646 0.483611,-0.509404 1.057497,-0.509404 0.477163,0 0.741537,0.322408 v -1.354112 q 0,-0.148307 0.0064,-0.219237 0.0129,-0.07738 0.05803,-0.167652 z m -1.0446,3.501346 q 0.167652,0.1741 0.406234,0.1741 0.238581,0 0.393337,-0.1741 0.161204,-0.1741 0.161204,-0.380441 0,-0.212789 -0.154756,-0.393337 -0.148308,-0.180549 -0.406234,-0.180549 -0.257926,0 -0.412681,0.180549 -0.154756,0.1741 -0.154756,0.386889 0,0.212789 0.167652,0.386889 z"
         style="stroke-width:0.0253047"
         id="path1422" />
    </g>
  </g>
</svg>
