<?xml version="1.0" encoding="UTF-8" standalone="no"?>
<svg
   xmlns:dc="http://purl.org/dc/elements/1.1/"
   xmlns:cc="http://creativecommons.org/ns#"
   xmlns:rdf="http://www.w3.org/1999/02/22-rdf-syntax-ns#"
   xmlns:svg="http://www.w3.org/2000/svg"
   xmlns="http://www.w3.org/2000/svg"
   xmlns:sodipodi="http://sodipodi.sourceforge.net/DTD/sodipodi-0.dtd"
   xmlns:inkscape="http://www.inkscape.org/namespaces/inkscape"
   version="1.1"
   id="mdi-timer-outline"
   width="24.5"
   height="32"
   viewBox="0 0 24.5 32"
   sodipodi:docname="emoji-happy-active.svg"
   inkscape:version="1.0.1 (0767f8302a, 2020-10-17)">
  <metadata
     id="metadata9">
    <rdf:RDF>
      <cc:Work
         rdf:about="">
        <dc:format>image/svg+xml</dc:format>
        <dc:type
           rdf:resource="http://purl.org/dc/dcmitype/StillImage" />
        <dc:title></dc:title>
      </cc:Work>
    </rdf:RDF>
  </metadata>
  <defs
     id="defs7" />
  <sodipodi:namedview
     pagecolor="#ffffff"
     bordercolor="#666666"
     borderopacity="1"
     objecttolerance="10"
     gridtolerance="10"
     guidetolerance="10"
     inkscape:pageopacity="0"
     inkscape:pageshadow="2"
     inkscape:window-width="1920"
     inkscape:window-height="1052"
     id="namedview5"
     showgrid="false"
     inkscape:snap-page="true"
     fit-margin-top="0"
     fit-margin-left="0"
     fit-margin-right="0"
     fit-margin-bottom="0"
     inkscape:zoom="21.655146"
     inkscape:cx="16.970959"
     inkscape:cy="16.221657"
     inkscape:window-x="1920"
     inkscape:window-y="0"
     inkscape:window-maximized="1"
     inkscape:current-layer="text881"
     inkscape:document-rotation="0" />
  <g
     aria-label="connect"
     id="text881"
     style="font-style:normal;font-weight:normal;font-size:6.27891px;line-height:1.25;font-family:sans-serif;letter-spacing:0px;word-spacing:0px;fill:#000000;fill-opacity:1;stroke:none;stroke-width:0.156973">
    <g
       aria-label="happy"
       id="text1359"
       style="font-size:6.44815px;line-height:1.25;font-family:FredokaOne;-inkscape-font-specification:FredokaOne;letter-spacing:0px;word-spacing:0px;stroke-width:0.0253047">
      <path
         d="m 4.8316051,25.526157 q 0.644815,0 1.0703929,0.49006 0.4320261,0.490059 0.4320261,1.199356 v 1.134874 q 0,0.148307 -0.012896,0.225685 -0.00645,0.07093 -0.058033,0.167652 -0.083826,0.167652 -0.4965076,0.167652 -0.3933372,0 -0.4900594,-0.167652 -0.051585,-0.09672 -0.064482,-0.1741 -0.00645,-0.07738 -0.00645,-0.232133 v -1.128427 q 0,-0.264374 -0.1483074,-0.412681 -0.1483075,-0.148308 -0.3804409,-0.148308 -0.2256852,0 -0.3997853,0.14186 -0.1741001,0.135411 -0.1998927,0.309511 v 1.250941 q 0,0.148307 -0.012896,0.225685 -0.00645,0.07093 -0.058033,0.167652 -0.083826,0.167652 -0.4965076,0.167652 -0.4062334,0 -0.4965075,-0.1741 -0.045137,-0.09672 -0.058033,-0.167652 -0.00645,-0.07093 -0.00645,-0.225685 v -3.855994 q 0,-0.148307 0.00645,-0.219237 0.012896,-0.07738 0.058033,-0.167652 0.090274,-0.1741 0.5029557,-0.1741 0.4062334,0 0.4900594,0.1741 0.051585,0.09672 0.058033,0.1741 0.012896,0.07093 0.012896,0.219237 v 1.425041 q 0.3224076,-0.393337 0.7544336,-0.393337 z"
         style="stroke-width:0.0253047"
         id="path1361" />
      <path
         d="m 9.058166,25.874357 q 0.038689,-0.361096 0.5094038,-0.361096 0.2514779,0 0.3739927,0.03869 0.1225145,0.03869 0.1676515,0.135411 0.05159,0.09672 0.05803,0.1741 0.0129,0.07093 0.0129,0.219237 v 2.256853 q 0,0.148307 -0.0129,0.225685 -0.0064,0.07093 -0.05159,0.167652 -0.09028,0.167652 -0.4449228,0.167652 -0.3482001,0 -0.4707149,-0.08383 -0.1160667,-0.09027 -0.1354112,-0.257926 -0.2385815,0.341752 -0.7995706,0.341752 -0.5545409,0 -1.031704,-0.509404 -0.4771631,-0.509404 -0.4771631,-1.180012 0,-0.677055 0.4771631,-1.180011 0.4836112,-0.509404 1.0574966,-0.509404 0.2192371,0 0.3997853,0.07738 0.1805482,0.07738 0.2514779,0.148307 0.07093,0.06448 0.1160667,0.128963 z m -1.1735634,1.341216 q 0,0.212789 0.1676519,0.386889 0.167652,0.167652 0.4062335,0.167652 0.2385816,0 0.3933372,-0.174101 0.1612037,-0.1741 0.1612037,-0.38044 0,-0.212789 -0.1547556,-0.393338 -0.1483074,-0.180548 -0.4062334,-0.180548 -0.2514779,0 -0.4126817,0.180548 -0.1547556,0.180549 -0.1547556,0.393338 z"
         style="stroke-width:0.0253047"
         id="path1363" />
      <path
         d="m 10.694082,29.833522 v -3.76572 q 0,-0.148308 0.0064,-0.219237 0.0129,-0.07093 0.05803,-0.161204 0.09027,-0.1741 0.432026,-0.1741 0.341752,0 0.457819,0.09027 0.122515,0.08383 0.141859,0.251478 0.24503,-0.335304 0.76733,-0.335304 0.528749,0 0.999463,0.496508 0.470715,0.496507 0.470715,1.154219 0,0.657711 -0.470715,1.154218 -0.464266,0.496508 -0.993015,0.496508 -0.528748,0 -0.76733,-0.296615 v 1.302526 q 0,0.148308 -0.0129,0.219238 -0.0064,0.07093 -0.05803,0.161203 -0.04514,0.09672 -0.161204,0.135411 -0.116067,0.03869 -0.315959,0.03869 -0.199893,0 -0.322408,-0.03869 -0.116066,-0.03869 -0.167652,-0.128963 -0.04514,-0.09027 -0.05803,-0.161203 -0.0064,-0.07093 -0.0064,-0.219237 z m 1.276734,-3.037079 q -0.148308,0.1741 -0.148308,0.380441 0,0.20634 0.148308,0.380441 0.154755,0.167651 0.386889,0.167651 0.238581,0 0.399785,-0.167651 0.167652,-0.167652 0.167652,-0.380441 0,-0.212789 -0.154756,-0.380441 -0.154755,-0.1741 -0.406233,-0.1741 -0.24503,0 -0.393337,0.1741 z"
         style="stroke-width:0.0253047"
         id="path1365" />
      <path
         d="m 14.447107,29.833522 v -3.76572 q 0,-0.148308 0.0064,-0.219237 0.0129,-0.07093 0.05803,-0.161204 0.09027,-0.1741 0.432026,-0.1741 0.341752,0 0.457819,0.09027 0.122515,0.08383 0.141859,0.251478 0.24503,-0.335304 0.76733,-0.335304 0.528749,0 0.999464,0.496508 0.470714,0.496507 0.470714,1.154219 0,0.657711 -0.470714,1.154218 -0.464267,0.496508 -0.993016,0.496508 -0.528748,0 -0.767329,-0.296615 v 1.302526 q 0,0.148308 -0.0129,0.219238 -0.0064,0.07093 -0.05803,0.161203 -0.04514,0.09672 -0.161204,0.135411 -0.116067,0.03869 -0.315959,0.03869 -0.199893,0 -0.322408,-0.03869 -0.116066,-0.03869 -0.167652,-0.128963 -0.04514,-0.09027 -0.05803,-0.161203 -0.0064,-0.07093 -0.0064,-0.219237 z m 1.276734,-3.037079 q -0.148308,0.1741 -0.148308,0.380441 0,0.20634 0.148308,0.380441 0.154755,0.167651 0.386889,0.167651 0.238581,0 0.399785,-0.167651 0.167652,-0.167652 0.167652,-0.380441 0,-0.212789 -0.154756,-0.380441 -0.154755,-0.1741 -0.406233,-0.1741 -0.24503,0 -0.393337,0.1741 z"
         style="stroke-width:0.0253047"
         id="path1367" />
      <path
         d="m 21.170814,25.55195 q 0.380441,0.167652 0.380441,0.406233 0,0.116067 -0.05159,0.219237 -0.05158,0.103171 -0.05158,0.109619 l -1.689416,3.778616 q -0.05159,0.122515 -0.09027,0.186996 -0.03224,0.06448 -0.109618,0.122515 -0.07738,0.05803 -0.193445,0.05803 -0.116067,0 -0.341752,-0.09672 -0.380441,-0.167652 -0.380441,-0.399785 0,-0.154756 0.619023,-1.476626 L 17.97898,26.299935 q -0.128963,-0.212789 -0.128963,-0.315959 0,-0.206341 0.3482,-0.412682 0.219237,-0.128963 0.341752,-0.128963 0.122515,0 0.199892,0.05158 0.07738,0.05159 0.109619,0.109619 0.03869,0.05158 0.354648,0.599678 0.322408,0.541645 0.612575,1.01236 0.03224,-0.103171 0.3482,-0.793123 0.315959,-0.6964 0.335303,-0.741537 0.02579,-0.04514 0.07738,-0.109619 0.08383,-0.109618 0.232134,-0.109618 0.154755,0 0.361096,0.09027 z"
         style="stroke-width:0.0253047"
         id="path1369" />
    </g>
    <path
       d="m 12.25,1.2565671 a 10,10 0 0 0 -9.9999997,9.9999999 10,10 0 0 0 9.9999997,10 10,10 0 0 0 10,-10 10,10 0 0 0 -10,-9.9999999 m -5,7.4999999 c 0,-0.7999999 0.7,-1.4999999 1.5,-1.4999999 0.8,0 1.5,0.7 1.5,1.4999999 0,0.8 -0.7,1.5 -1.5,1.5 -0.8,0 -1.5,-0.7 -1.5,-1.5 m 5,7.73 c -1.75,0 -3.29,-0.73 -4.19,-1.81 l 1.42,-1.42 c 0.45,0.72 1.52,1.23 2.77,1.23 1.25,0 2.32,-0.51 2.77,-1.23 l 1.42,1.42 c -0.9,1.08 -2.44,1.81 -4.19,1.81 m 3.5,-6.23 c -0.8,0 -1.5,-0.7 -1.5,-1.5 0,-0.7999999 0.7,-1.4999999 1.5,-1.4999999 0.8,0 1.5,0.7 1.5,1.4999999 0,0.8 -0.7,1.5 -1.5,1.5 z"
       id="path1347" />
  </g>
</svg>
