<?xml version="1.0" encoding="UTF-8" standalone="no"?>
<svg
   xmlns:dc="http://purl.org/dc/elements/1.1/"
   xmlns:cc="http://creativecommons.org/ns#"
   xmlns:rdf="http://www.w3.org/1999/02/22-rdf-syntax-ns#"
   xmlns:svg="http://www.w3.org/2000/svg"
   xmlns="http://www.w3.org/2000/svg"
   xmlns:sodipodi="http://sodipodi.sourceforge.net/DTD/sodipodi-0.dtd"
   xmlns:inkscape="http://www.inkscape.org/namespaces/inkscape"
   version="1.1"
   id="mdi-timer-outline"
   width="24.5"
   height="32"
   viewBox="0 0 24.5 32"
   sodipodi:docname="emoji-excited-active.svg"
   inkscape:version="1.0.1 (0767f8302a, 2020-10-17)">
  <metadata
     id="metadata9">
    <rdf:RDF>
      <cc:Work
         rdf:about="">
        <dc:format>image/svg+xml</dc:format>
        <dc:type
           rdf:resource="http://purl.org/dc/dcmitype/StillImage" />
        <dc:title></dc:title>
      </cc:Work>
    </rdf:RDF>
  </metadata>
  <defs
     id="defs7" />
  <sodipodi:namedview
     pagecolor="#ffffff"
     bordercolor="#666666"
     borderopacity="1"
     objecttolerance="10"
     gridtolerance="10"
     guidetolerance="10"
     inkscape:pageopacity="0"
     inkscape:pageshadow="2"
     inkscape:window-width="1920"
     inkscape:window-height="1052"
     id="namedview5"
     showgrid="false"
     inkscape:snap-page="true"
     fit-margin-top="0"
     fit-margin-left="0"
     fit-margin-right="0"
     fit-margin-bottom="0"
     inkscape:zoom="30.625001"
     inkscape:cx="14.931384"
     inkscape:cy="21.45429"
     inkscape:window-x="1920"
     inkscape:window-y="0"
     inkscape:window-maximized="1"
     inkscape:current-layer="text881"
     inkscape:document-rotation="0" />
  <g
     aria-label="connect"
     id="text881"
     style="font-style:normal;font-weight:normal;font-size:6.27891px;line-height:1.25;font-family:sans-serif;letter-spacing:0px;word-spacing:0px;fill:#000000;fill-opacity:1;stroke:none;stroke-width:0.156973">
    <path
       d="m 12.25,0.98656746 c -5.53,0 -9.9999997,4.47000004 -9.9999997,9.99999954 0,5.53 4.4699997,10 9.9999997,10 a 10,10 0 0 0 10,-10 c 0,-5.5299995 -4.5,-9.99999954 -10,-9.99999954 m -3.12,5.82000004 2.12,2.12 -1.06,1.06 -1.06,-1.06 -1.06,1.06 -1.06,-1.06 2.12,-2.12 m 3.12,9.6799995 c -2.33,0 -4.31,-1.46 -5.11,-3.5 h 10.22 c -0.8,2.04 -2.78,3.5 -5.11,3.5 m 4.18,-6.4999995 -1.06,-1.06 -1.06,1.06 -1.06,-1.06 2.12,-2.12 2.12,2.12 z"
       id="path2194" />
    <g
       aria-label="excited"
       id="text2206"
       style="font-size:6.26848px;line-height:1.25;font-family:FredokaOne;-inkscape-font-specification:FredokaOne;letter-spacing:0px;word-spacing:0px;stroke-width:0.0245995">
      <path
         d="m 4.78571,26.856157 q 0,0.382377 -0.1943229,0.570431 -0.1880543,0.181786 -0.4199881,0.181786 H 2.6857693 q 0,0.175518 0.2068598,0.294619 0.2068598,0.119101 0.4137197,0.119101 0.3635718,0 0.5704316,-0.07522 l 0.068953,-0.02507 q 0.1504435,-0.06895 0.2507392,-0.06895 0.2005914,0 0.3447664,0.282082 0.08149,0.169249 0.08149,0.28835 0,0.557894 -1.3351862,0.557894 -0.4638675,0 -0.8274393,-0.156712 -0.3573033,-0.16298 -0.5578947,-0.426256 -0.3949142,-0.507747 -0.3949142,-1.134595 0,-0.789829 0.5077468,-1.259965 0.5140154,-0.476404 1.2787699,-0.476404 0.8713187,0 1.2787699,0.614311 0.2131283,0.325961 0.2131283,0.714607 z m -1.3226492,0.181786 q 0.2382022,0 0.2382022,-0.200592 0,-0.144175 -0.1128326,-0.231934 -0.1065642,-0.08776 -0.313424,-0.08776 -0.2005914,0 -0.4011827,0.169249 -0.2005914,0.16298 -0.2005914,0.351035 z"
         style="stroke-width:0.0245995"
         id="path2208" />
      <path
         d="m 7.4765529,27.244802 0.6958012,0.70207 q 0.2256653,0.225665 0.2256653,0.388646 0,0.156712 -0.2256653,0.382377 -0.2256653,0.219397 -0.3823773,0.219397 -0.1567119,0 -0.3823772,-0.225665 L 6.7180668,28.015825 6.0222655,28.711627 q -0.2256652,0.225665 -0.3823772,0.225665 -0.1504435,0 -0.3823773,-0.219397 -0.2256653,-0.225665 -0.2256653,-0.382377 0,-0.162981 0.2256653,-0.388646 L 5.9533123,27.244802 5.257511,26.542733 q -0.2256653,-0.225666 -0.2256653,-0.382378 0,-0.16298 0.2256653,-0.388645 0.2319338,-0.225666 0.3823773,-0.225666 0.156712,0 0.3823772,0.225666 l 0.6958013,0.702069 0.6895328,-0.702069 q 0.2256653,-0.225666 0.3823772,-0.225666 0.156712,0 0.3823773,0.225666 0.2256653,0.225665 0.2256653,0.388645 0,0.156712 -0.2256653,0.382378 z"
         style="stroke-width:0.0245995"
         id="path2210" />
      <path
         d="m 9.6509317,27.251071 q 0,0.263276 0.1755175,0.41372 0.1755178,0.144175 0.3698398,0.144175 0.200592,0 0.369841,-0.112833 0.175517,-0.119101 0.282081,-0.119101 0.188055,0 0.457599,0.332229 0.144175,0.181786 0.144175,0.325961 0,0.238202 -0.344766,0.445062 -0.357303,0.250739 -0.877587,0.250739 -0.5829688,0 -1.122058,-0.419988 -0.2570077,-0.200591 -0.4199882,-0.53282 -0.1629804,-0.338498 -0.1629804,-0.739681 0,-0.407451 0.1629804,-0.733412 0.1629805,-0.33223 0.4199882,-0.532821 0.5202838,-0.41372 1.109521,-0.41372 0.238202,0 0.463867,0.06895 0.225666,0.06268 0.33223,0.125369 l 0.100296,0.06268 q 0.112832,0.07522 0.175517,0.119101 0.16298,0.12537 0.16298,0.28835 0,0.156712 -0.131638,0.357304 -0.225665,0.344766 -0.432525,0.344766 -0.119101,0 -0.338498,-0.137907 -0.112832,-0.106564 -0.325961,-0.106564 -0.206859,0 -0.3886454,0.150444 -0.1817859,0.150443 -0.1817859,0.419988 z"
         style="stroke-width:0.0245995"
         id="path2212" />
      <path
         d="m 11.86106,26.147818 q 0,-0.144175 0.0063,-0.213128 0.01254,-0.07522 0.05642,-0.169249 0.08776,-0.16298 0.488941,-0.16298 0.300887,0 0.426257,0.106564 0.106564,0.08776 0.112833,0.269544 0.0063,0.06268 0.0063,0.181786 v 2.193968 q 0,0.144175 -0.01254,0.219397 -0.0063,0.06895 -0.05642,0.162981 -0.08149,0.16298 -0.482673,0.16298 -0.394914,0 -0.482673,-0.169249 -0.04388,-0.09403 -0.05642,-0.16298 -0.0063,-0.06895 -0.0063,-0.219397 z m 1.028031,-1.159668 q -0.04388,0.08776 -0.162981,0.125369 -0.119101,0.03761 -0.319692,0.03761 -0.194323,0 -0.313424,-0.03761 -0.119101,-0.03761 -0.169249,-0.131638 -0.04388,-0.09403 -0.05642,-0.16298 -0.0063,-0.07522 -0.0063,-0.219397 0,-0.144175 0.0063,-0.213128 0.01254,-0.07522 0.05642,-0.162981 0.08776,-0.169249 0.488941,-0.169249 0.394915,0 0.476405,0.169249 0.05015,0.09403 0.05642,0.169249 0.01254,0.06895 0.01254,0.213128 0,0.144175 -0.01254,0.219397 -0.0063,0.06895 -0.05642,0.162981 z"
         style="stroke-width:0.0245995"
         id="path2214" />
      <path
         d="m 15.383064,26.705713 -0.407451,-0.02507 v 0.86505 q 0,0.169249 0.05015,0.244471 0.05642,0.07522 0.200591,0.07522 0.150444,0 0.225666,0.01254 0.08149,0.0063 0.169249,0.05642 0.144175,0.08149 0.144175,0.419988 0,0.394915 -0.175518,0.482673 -0.09403,0.04388 -0.169249,0.05642 -0.06895,0.0063 -0.206859,0.0063 -0.651922,0 -0.99042,-0.294618 -0.338498,-0.294619 -0.338498,-0.996689 v -0.927735 q -0.119101,0.01881 -0.257008,0.01881 -0.137906,0 -0.231934,-0.106564 -0.08776,-0.106565 -0.08776,-0.363572 0,-0.257008 0.03134,-0.369841 0.03134,-0.119101 0.08776,-0.169249 0.100295,-0.08149 0.250739,-0.08149 l 0.20686,0.02507 V 24.98815 q 0,-0.144175 0.0063,-0.213129 0.01254,-0.06895 0.06269,-0.150443 0.08149,-0.156712 0.482673,-0.156712 0.426257,0 0.507747,0.231934 0.03134,0.100295 0.03134,0.319692 v 0.614311 q 0.275813,-0.02507 0.41372,-0.02507 0.144175,0 0.213128,0.01254 0.07522,0.0063 0.169249,0.05642 0.162981,0.08149 0.162981,0.482673 0,0.394915 -0.169249,0.482673 -0.09403,0.04388 -0.169249,0.05642 -0.06895,0.0063 -0.213129,0.0063 z"
         style="stroke-width:0.0245995"
         id="path2216" />
      <path
         d="m 19.342785,26.856157 q 0,0.382377 -0.194323,0.570431 -0.188055,0.181786 -0.419988,0.181786 h -1.48563 q 0,0.175518 0.20686,0.294619 0.206859,0.119101 0.413719,0.119101 0.363572,0 0.570432,-0.07522 l 0.06895,-0.02507 q 0.150444,-0.06895 0.250739,-0.06895 0.200592,0 0.344767,0.282082 0.08149,0.169249 0.08149,0.28835 0,0.557894 -1.335186,0.557894 -0.463868,0 -0.827439,-0.156712 -0.357304,-0.16298 -0.557895,-0.426256 -0.394914,-0.507747 -0.394914,-1.134595 0,-0.789829 0.507746,-1.259965 0.514016,-0.476404 1.27877,-0.476404 0.871319,0 1.27877,0.614311 0.213129,0.325961 0.213129,0.714607 z m -1.32265,0.181786 q 0.238203,0 0.238203,-0.200592 0,-0.144175 -0.112833,-0.231934 -0.106564,-0.08776 -0.313424,-0.08776 -0.200591,0 -0.401183,0.169249 -0.200591,0.16298 -0.200591,0.351035 z"
         style="stroke-width:0.0245995"
         id="path2218" />
      <path
         d="m 21.958406,24.223395 q 0.05015,-0.09403 0.169249,-0.131638 0.119101,-0.03761 0.313424,-0.03761 0.200591,0 0.319692,0.03761 0.119101,0.03761 0.162981,0.131638 0.05015,0.09403 0.05642,0.169249 0.01254,0.06895 0.01254,0.213128 v 3.742283 q 0,0.144175 -0.01254,0.219397 -0.0063,0.06895 -0.05642,0.156712 -0.09403,0.169249 -0.532821,0.169249 -0.432525,0 -0.482673,-0.307156 -0.263276,0.300887 -0.733412,0.300887 -0.564164,0 -1.028031,-0.488941 -0.463868,-0.49521 -0.463868,-1.147132 0,-0.65819 0.463868,-1.1534 0.470136,-0.49521 1.028031,-0.49521 0.463867,0 0.720875,0.313424 v -1.316381 q 0,-0.144175 0.0063,-0.213128 0.01254,-0.07522 0.05642,-0.162981 z m -1.015494,3.403785 q 0.16298,0.169249 0.394914,0.169249 0.231934,0 0.382377,-0.169249 0.156712,-0.169249 0.156712,-0.369841 0,-0.206859 -0.150443,-0.382377 -0.144175,-0.175517 -0.394914,-0.175517 -0.25074,0 -0.401183,0.175517 -0.150444,0.169249 -0.150444,0.376109 0,0.20686 0.162981,0.376109 z"
         style="stroke-width:0.0245995"
         id="path2220" />
    </g>
  </g>
</svg>
