<?xml version="1.0" encoding="UTF-8" standalone="no"?>
<svg
   xmlns:dc="http://purl.org/dc/elements/1.1/"
   xmlns:cc="http://creativecommons.org/ns#"
   xmlns:rdf="http://www.w3.org/1999/02/22-rdf-syntax-ns#"
   xmlns:svg="http://www.w3.org/2000/svg"
   xmlns="http://www.w3.org/2000/svg"
   xmlns:sodipodi="http://sodipodi.sourceforge.net/DTD/sodipodi-0.dtd"
   xmlns:inkscape="http://www.inkscape.org/namespaces/inkscape"
   version="1.1"
   id="mdi-timer-outline"
   width="24.5"
   height="32"
   viewBox="0 0 24.5 32"
   sodipodi:docname="exit-to-app-hover.svg"
   inkscape:version="1.0.1 (0767f8302a, 2020-10-17)">
  <metadata
     id="metadata9">
    <rdf:RDF>
      <cc:Work
         rdf:about="">
        <dc:format>image/svg+xml</dc:format>
        <dc:type
           rdf:resource="http://purl.org/dc/dcmitype/StillImage" />
        <dc:title></dc:title>
      </cc:Work>
    </rdf:RDF>
  </metadata>
  <defs
     id="defs7" />
  <sodipodi:namedview
     pagecolor="#ffffff"
     bordercolor="#666666"
     borderopacity="1"
     objecttolerance="10"
     gridtolerance="10"
     guidetolerance="10"
     inkscape:pageopacity="0"
     inkscape:pageshadow="2"
     inkscape:window-width="1920"
     inkscape:window-height="1052"
     id="namedview5"
     showgrid="false"
     inkscape:snap-page="true"
     fit-margin-top="0"
     fit-margin-left="0"
     fit-margin-right="0"
     fit-margin-bottom="0"
     inkscape:zoom="15.312501"
     inkscape:cx="11.771153"
     inkscape:cy="18.109462"
     inkscape:window-x="1920"
     inkscape:window-y="0"
     inkscape:window-maximized="1"
     inkscape:current-layer="text881"
     inkscape:document-rotation="0" />
  <g
     aria-label="connect"
     id="text881"
     style="font-style:normal;font-weight:normal;font-size:6.27891px;line-height:1.25;font-family:sans-serif;letter-spacing:0px;word-spacing:0px;fill:#000000;fill-opacity:1;stroke:none;stroke-width:0.156973">
    <g
       aria-label="quit"
       id="text917"
       style="font-size:6.66291px;line-height:1.25;font-family:FredokaOne;-inkscape-font-specification:FredokaOne;letter-spacing:0px;word-spacing:0px;stroke-width:0.166573">
      <path
         d="m 8.390978,25.937484 q 0.039977,-0.353134 0.5197069,-0.353134 0.2531906,0 0.373123,0.03998 0.1199324,0.03998 0.1665728,0.139921 0.053303,0.09328 0.059966,0.166573 0.013326,0.07329 0.013326,0.226539 v 3.891139 q 0,0.153247 -0.013326,0.226539 -0.00666,0.07329 -0.059966,0.166573 -0.04664,0.09328 -0.1732357,0.133258 -0.1199324,0.03998 -0.3264826,0.03998 -0.2065502,0 -0.3264826,-0.03998 -0.1199324,-0.03998 -0.1732356,-0.139921 -0.04664,-0.09328 -0.059966,-0.166573 -0.00666,-0.07329 -0.00666,-0.226539 v -1.345907 q -0.2665164,0.306493 -0.7529089,0.306493 -0.592999,0 -1.0727285,-0.513044 -0.4797295,-0.513044 -0.4797295,-1.192661 0,-0.679616 0.4863924,-1.19266 0.4863925,-0.513045 1.0260882,-0.513045 0.5463586,0 0.7995492,0.346472 z m -1.0060994,1.759008 q 0.1732356,0.173236 0.4131004,0.173236 0.2398647,0 0.3997746,-0.173236 0.1599098,-0.179899 0.1599098,-0.386449 0,-0.213213 -0.1532469,-0.393111 -0.1532469,-0.186562 -0.4131004,-0.186562 -0.2531906,0 -0.4131005,0.179899 -0.1599098,0.173235 -0.1599098,0.393111 0,0.219876 0.1665728,0.393112 z"
         style="stroke-width:0.166573"
         id="path1071" />
      <path
         d="m 11.616035,29.082377 q -0.672954,0 -1.119369,-0.506381 -0.439752,-0.513044 -0.439752,-1.245964 v -1.166009 q 0,-0.15991 0.0067,-0.233202 0.01333,-0.07329 0.05997,-0.173236 0.09328,-0.179898 0.519707,-0.179898 0.466403,0 0.546358,0.25319 0.03998,0.106607 0.03998,0.339809 v 1.166009 q 0,0.273179 0.153247,0.426426 0.159909,0.153247 0.419763,0.153247 0.266516,0 0.426426,-0.15991 0.166573,-0.15991 0.166573,-0.419763 V 26.15736 q 0,-0.153247 0.0067,-0.226539 0.01333,-0.07996 0.06663,-0.179899 0.08662,-0.173235 0.513044,-0.173235 0.419763,0 0.513044,0.179898 0.04664,0.09994 0.0533,0.179899 0.01333,0.07329 0.01333,0.226539 v 2.35867 q 0,0.146584 -0.01333,0.226539 -0.0067,0.07329 -0.05997,0.166573 -0.09994,0.173235 -0.513044,0.173235 -0.406437,0 -0.499718,-0.15991 -0.06663,-0.113269 -0.06663,-0.273179 -0.02665,0.04664 -0.119933,0.133258 -0.09328,0.08662 -0.179898,0.146584 -0.226539,0.146584 -0.493055,0.146584 z"
         style="stroke-width:0.166573"
         id="path1073" />
      <path
         d="m 14.091098,26.170686 q 0,-0.153247 0.0067,-0.226539 0.01333,-0.07996 0.05997,-0.179899 0.09328,-0.173236 0.519707,-0.173236 0.319819,0 0.453078,0.11327 0.113269,0.09328 0.119932,0.286505 0.0067,0.06663 0.0067,0.193224 v 2.332019 q 0,0.153247 -0.01333,0.233202 -0.0067,0.07329 -0.05997,0.173235 -0.08662,0.173236 -0.513044,0.173236 -0.419764,0 -0.513044,-0.179898 -0.04664,-0.09994 -0.05997,-0.173236 -0.0067,-0.07329 -0.0067,-0.233202 z m 1.092717,-1.232639 q -0.04664,0.09328 -0.173236,0.133258 -0.126595,0.03998 -0.339808,0.03998 -0.20655,0 -0.333146,-0.03998 -0.126595,-0.03998 -0.179898,-0.139921 -0.04664,-0.09994 -0.05997,-0.173235 -0.0067,-0.07995 -0.0067,-0.233202 0,-0.153247 0.0067,-0.226539 0.01333,-0.07995 0.05997,-0.173236 0.09328,-0.179898 0.519707,-0.179898 0.419763,0 0.506381,0.179898 0.0533,0.09994 0.05997,0.179899 0.01333,0.07329 0.01333,0.226539 0,0.153247 -0.01333,0.233202 -0.0067,0.07329 -0.05997,0.173235 z"
         style="stroke-width:0.166573"
         id="path1075" />
      <path
         d="m 17.834716,26.763685 -0.433089,-0.02665 v 0.919482 q 0,0.179898 0.0533,0.259853 0.05997,0.07996 0.213213,0.07996 0.15991,0 0.239865,0.01333 0.08662,0.0067 0.179899,0.05997 0.153247,0.08662 0.153247,0.446415 0,0.419763 -0.186562,0.513044 -0.09994,0.04664 -0.179898,0.05997 -0.07329,0.0067 -0.219876,0.0067 -0.692943,0 -1.05274,-0.313157 -0.359797,-0.313156 -0.359797,-1.059402 v -0.986111 q -0.126596,0.01999 -0.27318,0.01999 -0.146584,0 -0.246527,-0.11327 -0.09328,-0.113269 -0.09328,-0.386449 0,-0.273179 0.03331,-0.393111 0.03331,-0.126596 0.09328,-0.179899 0.106607,-0.08662 0.266517,-0.08662 l 0.219876,0.02665 v -0.68628 q 0,-0.153247 0.0067,-0.226539 0.01332,-0.07329 0.06663,-0.159909 0.08662,-0.166573 0.513044,-0.166573 0.453078,0 0.539695,0.246527 0.03332,0.106607 0.03332,0.339809 v 0.652965 q 0.293168,-0.02665 0.439752,-0.02665 0.153247,0 0.226539,0.01333 0.07996,0.0067 0.179899,0.05997 0.173235,0.08662 0.173235,0.513044 0,0.419764 -0.179898,0.513045 -0.09994,0.04664 -0.179899,0.05997 -0.07329,0.0067 -0.226539,0.0067 z"
         style="stroke-width:0.166573"
         id="path1077" />
    </g>
    <path
       id="path2-1"
       d="m 4.6269533,2.4865675 c -1.11,0 -2,0.89 -2,2 V 8.4865673 10.486567 H 12.25 l -2.589844,-2.5898437 1.419922,-1.4101558 5,4.9999995 -5,5 L 9.660156,15.066645 12.25,12.486567 H 2.6269533 v 2 4 c 0,1.104569 0.8954305,2 2,2 H 18.626953 c 1.104569,0 2,-0.895431 2,-2 V 4.4865675 c 0,-1.11 -0.9,-2 -2,-2 z" />
  </g>
</svg>
