<?xml version="1.0" encoding="UTF-8" standalone="no"?>
<svg
   xmlns:dc="http://purl.org/dc/elements/1.1/"
   xmlns:cc="http://creativecommons.org/ns#"
   xmlns:rdf="http://www.w3.org/1999/02/22-rdf-syntax-ns#"
   xmlns:svg="http://www.w3.org/2000/svg"
   xmlns="http://www.w3.org/2000/svg"
   xmlns:sodipodi="http://sodipodi.sourceforge.net/DTD/sodipodi-0.dtd"
   xmlns:inkscape="http://www.inkscape.org/namespaces/inkscape"
   version="1.1"
   id="mdi-exit-to-app"
   width="24.500002"
   height="32"
   viewBox="0 0 24.500002 32"
   sodipodi:docname="exit-to-app-hover.svg"
   inkscape:version="1.0.1 (0767f8302a, 2020-10-17)">
  <metadata
     id="metadata9">
    <rdf:RDF>
      <cc:Work
         rdf:about="">
        <dc:format>image/svg+xml</dc:format>
        <dc:type
           rdf:resource="http://purl.org/dc/dcmitype/StillImage" />
        <dc:title />
      </cc:Work>
    </rdf:RDF>
  </metadata>
  <defs
     id="defs7" />
  <sodipodi:namedview
     pagecolor="#ffffff"
     bordercolor="#666666"
     borderopacity="1"
     objecttolerance="10"
     gridtolerance="10"
     guidetolerance="10"
     inkscape:pageopacity="0"
     inkscape:pageshadow="2"
     inkscape:window-width="1920"
     inkscape:window-height="1043"
     id="namedview5"
     showgrid="false"
     inkscape:snap-page="true"
     fit-margin-top="0"
     fit-margin-left="0"
     fit-margin-right="0"
     fit-margin-bottom="0"
     inkscape:zoom="7.65625"
     inkscape:cx="32.014031"
     inkscape:cy="3.3763117"
     inkscape:window-x="0"
     inkscape:window-y="0"
     inkscape:window-maximized="1"
     inkscape:current-layer="mdi-exit-to-app"
     inkscape:document-rotation="0" />
  <path
     d="M 19.25,3.2500004 H 5.2500004 c -1.11,0 -2,0.89 -2,2 v 4 h 2 v -4 H 19.25 V 19.25 H 5.2500004 v -4 h -2 v 4 a 2,2 0 0 0 2,2 H 19.25 a 2,2 0 0 0 2,-2 V 5.2500004 c 0,-1.11 -0.9,-2 -2,-2 M 10.33,15.83 l 1.42,1.42 5,-5 -5,-4.9999996 -1.42,1.41 L 12.92,11.25 H 3.2500004 v 2 H 12.92 Z"
     id="path2" />
  <g
     aria-label="Exit"
     id="text836"
     style="font-style:normal;font-weight:normal;font-size:8.13819px;line-height:1.25;font-family:sans-serif;letter-spacing:0px;word-spacing:0px;fill:#000000;fill-opacity:1;stroke:none;stroke-width:0.203455">
    <path
       d="m 6.0237283,27.439763 h 2.5065626 q 0.1871783,0 0.2766984,0.01628 0.097658,0.0081 0.2197312,0.07324 0.2197311,0.113934 0.2197311,0.634779 0,0.569673 -0.301113,0.667331 -0.1383493,0.04883 -0.4231859,0.04883 H 5.2994293 q -0.5696733,0 -0.6673316,-0.309251 -0.048829,-0.130211 -0.048829,-0.415048 V 23.63109 q 0,-0.415048 0.1546256,-0.561536 0.1546256,-0.154625 0.5859497,-0.154625 h 3.206447 q 0.1871783,0 0.2766984,0.01628 0.097658,0.0081 0.2197312,0.07324 0.2197311,0.113935 0.2197311,0.634779 0,0.569673 -0.301113,0.667331 -0.1383493,0.04883 -0.4231859,0.04883 H 6.0237283 v 0.821957 h 1.6113616 q 0.1871784,0 0.2766985,0.01628 0.097658,0.0081 0.2197311,0.07324 0.2197312,0.113935 0.2197312,0.634779 0,0.569673 -0.3092513,0.667331 -0.1383492,0.04883 -0.4231858,0.04883 H 6.0237283 Z"
       style="font-style:normal;font-variant:normal;font-weight:normal;font-stretch:normal;font-family:FredokaOne;-inkscape-font-specification:FredokaOne;stroke-width:0.203455"
       id="path1477" />
    <path
       d="m 12.751341,26.73174 0.903339,0.911477 q 0.292975,0.292975 0.292975,0.504568 0,0.203455 -0.292975,0.49643 -0.292974,0.284836 -0.496429,0.284836 -0.203455,0 -0.49643,-0.292974 l -0.895201,-0.90334 -0.903339,0.90334 q -0.292975,0.292974 -0.496429,0.292974 -0.195317,0 -0.4964301,-0.284836 -0.2929748,-0.292975 -0.2929748,-0.49643 0,-0.211593 0.2929748,-0.504568 L 10.773761,26.73174 9.8704219,25.820263 q -0.2929748,-0.292975 -0.2929748,-0.49643 0,-0.211593 0.2929748,-0.504568 0.3011131,-0.292974 0.4964301,-0.292974 0.203454,0 0.496429,0.292974 l 0.903339,0.911478 0.895201,-0.911478 q 0.292975,-0.292974 0.49643,-0.292974 0.203455,0 0.496429,0.292974 0.292975,0.292975 0.292975,0.504568 0,0.203455 -0.292975,0.49643 z"
       style="font-style:normal;font-variant:normal;font-weight:normal;font-stretch:normal;font-family:FredokaOne;-inkscape-font-specification:FredokaOne;stroke-width:0.203455"
       id="path1479" />
    <path
       d="m 14.390424,25.307557 q 0,-0.187179 0.0081,-0.276699 0.01628,-0.09766 0.07324,-0.219731 0.113935,-0.211593 0.634779,-0.211593 0.390633,0 0.553397,0.138349 0.138349,0.113935 0.146487,0.349943 0.0081,0.08138 0.0081,0.236007 V 28.1722 q 0,0.187178 -0.01628,0.284836 -0.0081,0.08952 -0.07324,0.211593 -0.105796,0.211593 -0.62664,0.211593 -0.512706,0 -0.626641,-0.219731 -0.05697,-0.122073 -0.07324,-0.211593 -0.0081,-0.08952 -0.0081,-0.284836 z m 1.334663,-1.505565 q -0.05697,0.113934 -0.211593,0.162763 -0.154625,0.04883 -0.415047,0.04883 -0.252284,0 -0.40691,-0.04883 -0.154625,-0.04883 -0.219731,-0.170902 -0.05697,-0.122072 -0.07324,-0.211593 -0.0081,-0.09766 -0.0081,-0.284836 0,-0.187179 0.0081,-0.276699 0.01628,-0.09766 0.07324,-0.211593 0.113935,-0.219731 0.634779,-0.219731 0.512706,0 0.618502,0.219731 0.06511,0.122073 0.07324,0.219732 0.01628,0.08952 0.01628,0.276698 0,0.187178 -0.01628,0.284837 -0.0081,0.08952 -0.07324,0.211593 z"
       style="font-style:normal;font-variant:normal;font-weight:normal;font-stretch:normal;font-family:FredokaOne;-inkscape-font-specification:FredokaOne;stroke-width:0.203455"
       id="path1481" />
    <path
       d="m 18.962942,26.031856 -0.528982,-0.03255 v 1.12307 q 0,0.219731 0.06511,0.31739 0.07324,0.09766 0.260422,0.09766 0.195317,0 0.292975,0.01628 0.105797,0.0081 0.219731,0.07324 0.187179,0.105796 0.187179,0.545259 0,0.512706 -0.22787,0.62664 -0.122073,0.05697 -0.219731,0.07324 -0.08952,0.0081 -0.26856,0.0081 -0.846372,0 -1.285834,-0.382495 -0.439463,-0.382495 -0.439463,-1.293972 v -1.204452 q -0.154625,0.02441 -0.333665,0.02441 -0.179041,0 -0.301113,-0.13835 -0.113935,-0.138349 -0.113935,-0.472015 0,-0.333666 0.04069,-0.480153 0.04069,-0.154626 0.113935,-0.219731 0.130211,-0.105797 0.325527,-0.105797 l 0.26856,0.03255 v -0.838233 q 0,-0.187179 0.0081,-0.276699 0.01628,-0.08952 0.08138,-0.195316 0.105796,-0.203455 0.62664,-0.203455 0.553397,0 0.659194,0.301113 0.04069,0.130211 0.04069,0.415048 v 0.797542 q 0.35808,-0.03255 0.53712,-0.03255 0.187179,0 0.276699,0.01628 0.09766,0.0081 0.219731,0.07324 0.211593,0.105796 0.211593,0.62664 0,0.512706 -0.219731,0.626641 -0.122073,0.05697 -0.219732,0.07324 -0.08952,0.0081 -0.276698,0.0081 z"
       style="font-style:normal;font-variant:normal;font-weight:normal;font-stretch:normal;font-family:FredokaOne;-inkscape-font-specification:FredokaOne;stroke-width:0.203455"
       id="path1483" />
  </g>
</svg>
