<?xml version="1.0" encoding="UTF-8" standalone="no"?>
<svg
   xmlns:dc="http://purl.org/dc/elements/1.1/"
   xmlns:cc="http://creativecommons.org/ns#"
   xmlns:rdf="http://www.w3.org/1999/02/22-rdf-syntax-ns#"
   xmlns:svg="http://www.w3.org/2000/svg"
   xmlns="http://www.w3.org/2000/svg"
   xmlns:sodipodi="http://sodipodi.sourceforge.net/DTD/sodipodi-0.dtd"
   xmlns:inkscape="http://www.inkscape.org/namespaces/inkscape"
   version="1.1"
   id="mdi-hand"
   width="24"
   height="32"
   viewBox="0 0 24 32"
   sodipodi:docname="hand.svg"
   inkscape:version="1.0.1 (0767f8302a, 2020-10-17)">
  <metadata
     id="metadata9">
    <rdf:RDF>
      <cc:Work
         rdf:about="">
        <dc:format>image/svg+xml</dc:format>
        <dc:type
           rdf:resource="http://purl.org/dc/dcmitype/StillImage" />
        <dc:title />
      </cc:Work>
    </rdf:RDF>
  </metadata>
  <defs
     id="defs7" />
  <sodipodi:namedview
     pagecolor="#ffffff"
     bordercolor="#666666"
     borderopacity="1"
     objecttolerance="10"
     gridtolerance="10"
     guidetolerance="10"
     inkscape:pageopacity="0"
     inkscape:pageshadow="2"
     inkscape:window-width="1920"
     inkscape:window-height="1043"
     id="namedview5"
     showgrid="false"
     inkscape:zoom="10.827573"
     inkscape:cx="25.732903"
     inkscape:cy="19.67254"
     inkscape:window-x="0"
     inkscape:window-y="0"
     inkscape:window-maximized="1"
     inkscape:current-layer="mdi-hand"
     inkscape:document-rotation="0" />
  <path
     d="m 6.58,19 h 8 v 3 h -8 V 19 M 19.74,11.6 C 19.55,11.4 19.29,11.28 19,11.28 L 18.78,11.31 15.58,13 V 11.83 L 16.09,2.9 C 16.12,2.35 15.7,1.87 15.15,1.84 14.6,1.81 14.12,2.23 14.09,2.78 L 13.82,7.47 H 13.58 L 12.54,7.58 V 2 a 1,1 0 0 0 -1,-1 c -0.54,0 -1,0.45 -1,1 V 8.41 L 9.72,8.78 9.03,3.32 C 8.96,2.77 8.46,2.38 7.91,2.45 7.36,2.5 6.97,3 7.04,3.57 L 7.81,9.63 7.43,9.8 C 7.3,9.85 7.18,9.93 7.07,10 L 5.97,6.11 C 5.81,5.54 5.25,5.2 4.71,5.34 4.18,5.5 3.88,6.08 4.04,6.65 l 2.57,9.12 c 0,0.03 0.02,0.07 0.03,0.1 L 6.67,16 h 0.01 c 0.22,0.57 0.79,1 1.4,1 h 6.5 c 0.39,0 0.74,-0.16 1,-0.43 l 4.92,-4.2 z"
     id="path2" />
</svg>
