<?xml version="1.0" encoding="UTF-8" standalone="no"?>
<svg
   xmlns:dc="http://purl.org/dc/elements/1.1/"
   xmlns:cc="http://creativecommons.org/ns#"
   xmlns:rdf="http://www.w3.org/1999/02/22-rdf-syntax-ns#"
   xmlns:svg="http://www.w3.org/2000/svg"
   xmlns="http://www.w3.org/2000/svg"
   xmlns:sodipodi="http://sodipodi.sourceforge.net/DTD/sodipodi-0.dtd"
   xmlns:inkscape="http://www.inkscape.org/namespaces/inkscape"
   version="1.1"
   id="mdi-hand"
   width="24"
   height="32"
   viewBox="0 0 24 32"
   sodipodi:docname="hand-hover.svg"
   inkscape:version="1.0.1 (0767f8302a, 2020-10-17)">
  <metadata
     id="metadata9">
    <rdf:RDF>
      <cc:Work
         rdf:about="">
        <dc:format>image/svg+xml</dc:format>
        <dc:type
           rdf:resource="http://purl.org/dc/dcmitype/StillImage" />
        <dc:title />
      </cc:Work>
    </rdf:RDF>
  </metadata>
  <defs
     id="defs7" />
  <sodipodi:namedview
     pagecolor="#ffffff"
     bordercolor="#666666"
     borderopacity="1"
     objecttolerance="10"
     gridtolerance="10"
     guidetolerance="10"
     inkscape:pageopacity="0"
     inkscape:pageshadow="2"
     inkscape:window-width="1920"
     inkscape:window-height="1043"
     id="namedview5"
     showgrid="false"
     inkscape:zoom="10.827573"
     inkscape:cx="25.732903"
     inkscape:cy="19.67254"
     inkscape:window-x="0"
     inkscape:window-y="0"
     inkscape:window-maximized="1"
     inkscape:current-layer="mdi-hand"
     inkscape:document-rotation="0" />
  <path
     d="m 6.58,19 h 8 v 3 h -8 V 19 M 19.74,11.6 C 19.55,11.4 19.29,11.28 19,11.28 L 18.78,11.31 15.58,13 V 11.83 L 16.09,2.9 C 16.12,2.35 15.7,1.87 15.15,1.84 14.6,1.81 14.12,2.23 14.09,2.78 L 13.82,7.47 H 13.58 L 12.54,7.58 V 2 a 1,1 0 0 0 -1,-1 c -0.54,0 -1,0.45 -1,1 V 8.41 L 9.72,8.78 9.03,3.32 C 8.96,2.77 8.46,2.38 7.91,2.45 7.36,2.5 6.97,3 7.04,3.57 L 7.81,9.63 7.43,9.8 C 7.3,9.85 7.18,9.93 7.07,10 L 5.97,6.11 C 5.81,5.54 5.25,5.2 4.71,5.34 4.18,5.5 3.88,6.08 4.04,6.65 l 2.57,9.12 c 0,0.03 0.02,0.07 0.03,0.1 L 6.67,16 h 0.01 c 0.22,0.57 0.79,1 1.4,1 h 6.5 c 0.39,0 0.74,-0.16 1,-0.43 l 4.92,-4.2 z"
     id="path2" />
  <g
     aria-label="Wave"
     id="text836"
     style="font-size:6.8108px;line-height:1.25;font-family:FredokaOne;-inkscape-font-specification:FredokaOne;letter-spacing:0px;word-spacing:0px;stroke-width:0.17027">
    <path
       d="m 9.3711815,24.922433 q 0.4563236,0.163459 0.4563236,0.435891 0,0.08854 -0.08173,0.33373 l -1.3076736,3.779994 q -0.013622,0.04767 -0.047676,0.115783 -0.034054,0.06811 -0.1838916,0.183892 -0.1430268,0.108973 -0.3473508,0.108973 -0.1975132,0 -0.3473508,-0.108973 Q 7.3688063,29.655939 7.3211307,29.546966 L 6.5242671,27.19724 q -0.7559988,2.233943 -0.7696204,2.274808 -0.013622,0.04086 -0.061297,0.115783 -0.047676,0.07492 -0.1089728,0.136216 -0.1566485,0.156649 -0.3745941,0.156649 -0.2179456,0 -0.3609724,-0.102162 Q 4.7125942,29.676372 4.6649186,29.57421 L 4.617243,29.472048 3.3027586,25.692054 q -0.074919,-0.224757 -0.074919,-0.33373 0,-0.272432 0.4563236,-0.42908 0.1975132,-0.06811 0.3541616,-0.06811 0.1634592,0 0.2451888,0.108973 0.08854,0.108973 0.1566484,0.333729 l 0.749188,2.274807 0.7423773,-2.240753 q 0.095351,-0.286054 0.3473508,-0.395026 0.1089728,-0.04768 0.2792428,-0.04768 0.1770808,0 0.3269184,0.115784 0.1498376,0.108972 0.1907024,0.217945 l 0.783242,2.363348 0.749188,-2.288429 q 0.054486,-0.156648 0.08854,-0.231567 0.034054,-0.07492 0.1225944,-0.143027 0.095351,-0.07492 0.2315672,-0.07492 0.136216,0 0.3201076,0.06811 z"
       style="stroke-width:0.17027"
       id="path832" />
    <path
       d="m 12.046017,26.67962 q 0.04086,-0.381405 0.538053,-0.381405 0.265621,0 0.395027,0.04087 0.129405,0.04086 0.17708,0.143026 0.05449,0.102162 0.0613,0.183892 0.01362,0.07492 0.01362,0.231567 v 2.38378 q 0,0.156649 -0.01362,0.238378 -0.0068,0.07492 -0.05449,0.177081 -0.09535,0.177081 -0.469945,0.177081 -0.367783,0 -0.497188,-0.08854 -0.122595,-0.09535 -0.143027,-0.272432 -0.252,0.360973 -0.844539,0.360973 -0.585729,0 -1.089728,-0.538053 -0.5039996,-0.538054 -0.5039996,-1.246377 0,-0.715134 0.5039996,-1.246376 0.51081,-0.538053 1.116971,-0.538053 0.231567,0 0.422269,0.08173 0.190703,0.08173 0.265622,0.156649 0.07492,0.06811 0.122594,0.136216 z m -1.239566,1.416646 q 0,0.224756 0.177081,0.408648 0.177081,0.177081 0.429081,0.177081 0.251999,0 0.415458,-0.183892 0.17027,-0.183891 0.17027,-0.401837 0,-0.224756 -0.163459,-0.415459 -0.156648,-0.190702 -0.42908,-0.190702 -0.265621,0 -0.435891,0.190702 -0.16346,0.190703 -0.16346,0.415459 z"
       style="stroke-width:0.17027"
       id="path834" />
    <path
       d="m 17.284054,26.379944 q 0.354161,0.211135 0.354161,0.449513 0,0.136216 -0.136216,0.374594 l -1.409835,2.417834 q -0.06811,0.115784 -0.217946,0.211135 -0.149837,0.08854 -0.299675,0.08854 -0.143027,0 -0.279243,-0.06811 -0.129405,-0.07492 -0.183891,-0.149837 l -0.0613,-0.07492 -1.416646,-2.424645 q -0.136216,-0.224756 -0.136216,-0.367783 0,-0.245189 0.354162,-0.456324 0.25881,-0.149837 0.408648,-0.149837 0.149837,0 0.231567,0.09535 0.08854,0.08854 0.183891,0.272432 l 0.892215,1.716322 0.892215,-1.716322 q 0.07492,-0.129405 0.108973,-0.183892 0.04087,-0.0613 0.122594,-0.115783 0.08173,-0.0613 0.217946,-0.0613 0.136216,0 0.374594,0.143026 z"
       style="stroke-width:0.17027"
       id="path836" />
    <path
       d="m 21.277737,27.667186 q 0,0.415458 -0.211135,0.619782 -0.204324,0.197514 -0.456323,0.197514 h -1.61416 q 0,0.190702 0.224756,0.320107 0.224757,0.129405 0.449513,0.129405 0.395027,0 0.619783,-0.08173 l 0.07492,-0.02724 q 0.163459,-0.07492 0.272432,-0.07492 0.217945,0 0.374594,0.306486 0.08854,0.183891 0.08854,0.313297 0,0.606161 -1.4507,0.606161 -0.503999,0 -0.899026,-0.17027 -0.388215,-0.177081 -0.606161,-0.463135 -0.42908,-0.551674 -0.42908,-1.232754 0,-0.858161 0.551674,-1.368971 0.558486,-0.517621 1.389404,-0.517621 0.946701,0 1.389403,0.667458 0.231567,0.354162 0.231567,0.776432 z m -1.437079,0.197513 q 0.258811,0 0.258811,-0.217946 0,-0.156648 -0.122595,-0.251999 -0.115783,-0.09535 -0.34054,-0.09535 -0.217945,0 -0.435891,0.183892 -0.217946,0.177081 -0.217946,0.381405 z"
       style="stroke-width:0.17027"
       id="path838" />
  </g>
</svg>
