<?xml version="1.0" encoding="UTF-8" standalone="no"?>
<svg
   viewBox="0 0 36 36"
   version="1.1"
   id="svg32"
   sodipodi:docname="happy.svg"
   inkscape:version="1.1 (ce6663b3b7, 2021-05-25)"
   xmlns:inkscape="http://www.inkscape.org/namespaces/inkscape"
   xmlns:sodipodi="http://sodipodi.sourceforge.net/DTD/sodipodi-0.dtd"
   xmlns="http://www.w3.org/2000/svg"
   xmlns:svg="http://www.w3.org/2000/svg">
  <defs
     id="defs36" />
  <sodipodi:namedview
     id="namedview34"
     pagecolor="#ffffff"
     bordercolor="#666666"
     borderopacity="1.0"
     inkscape:pageshadow="2"
     inkscape:pageopacity="0.0"
     inkscape:pagecheckerboard="0"
     showgrid="false"
     inkscape:zoom="20.916667"
     inkscape:cx="18"
     inkscape:cy="18"
     inkscape:window-width="2560"
     inkscape:window-height="1052"
     inkscape:window-x="1920"
     inkscape:window-y="0"
     inkscape:window-maximized="1"
     inkscape:current-layer="svg32" />
  <circle
     fill="#ffcc4d"
     cx="17.19013"
     cy="18.80987"
     r="13.767788"
     id="circle2"
     style="stroke-width:0.80987" />
  <ellipse
     fill="#664500"
     cx="17.999191"
     cy="24.47896"
     rx="1.6197398"
     ry="2.0246747"
     id="ellipse4"
     style="stroke-width:0.80987" />
  <path
     fill="#664500"
     d="m 9.9911966,20.73979 c -0.1473963,0 -0.2972222,-0.04049 -0.4308508,-0.12472 -0.3782092,-0.238102 -0.491591,-0.737792 -0.2534893,-1.116811 0.7418405,-1.176741 2.9973285,-3.189267 6.2278995,-2.398834 0.43409,0.106093 0.699728,0.545042 0.593635,0.979132 -0.106903,0.434091 -0.547472,0.698108 -0.979133,0.593635 -2.918771,-0.714305 -4.455904,1.665093 -4.471292,1.689389 -0.154685,0.24458 -0.417893,0.378209 -0.6867694,0.378209 z m 9.6965724,-3.030533 c -0.234862,0 -0.466485,-0.101234 -0.626839,-0.296413 -0.283455,-0.345814 -0.233243,-0.856842 0.113381,-1.140296 2.572147,-2.108902 5.476341,-1.265017 6.653082,-0.523176 0.378209,0.238101 0.491591,0.738601 0.252679,1.11681 -0.237292,0.37659 -0.735362,0.491591 -1.114381,0.255109 -0.111762,-0.06803 -2.471723,-1.476393 -4.765274,0.404125 -0.150636,0.12391 -0.332047,0.183841 -0.512648,0.183841 z"
     id="path6"
     style="stroke-width:0.80987" />
  <path
     fill="#e2a62d"
     d="m 14.230866,28.749403 c -0.05507,0 -0.110953,-0.0073 -0.166024,-0.02268 -0.322328,-0.09152 -0.510218,-0.426802 -0.418703,-0.74994 0.353914,-1.247199 0.208947,-2.453096 -0.396836,-3.309128 -0.402505,-0.568529 -0.975893,-0.915963 -1.573577,-0.954027 -0.335286,-0.02025 -0.589585,-0.30937 -0.568529,-0.643846 0.02106,-0.334477 0.308561,-0.608213 0.643847,-0.567719 0.966175,0.05993 1.873229,0.593634 2.48873,1.463435 0.818779,1.157304 1.028535,2.73979 0.574198,4.341712 -0.07532,0.268067 -0.319089,0.442189 -0.583106,0.442189 z M 23.1694,26.270391 c -0.115002,0 -0.230813,-0.03239 -0.333667,-0.100423 -0.945118,-0.6236 -1.473963,-1.714495 -1.451287,-2.99247 0.02349,-1.324137 0.655185,-2.55352 1.606782,-3.133386 0.285884,-0.174932 0.659234,-0.08423 0.834166,0.203277 0.174932,0.286694 0.08423,0.659234 -0.203277,0.834166 -0.595255,0.362822 -1.007478,1.213995 -1.023676,2.117 -0.0162,0.854413 0.31504,1.567908 0.905435,1.957455 0.280215,0.184651 0.357152,0.56124 0.172502,0.841455 -0.116621,0.177362 -0.30937,0.272926 -0.506978,0.272926 z"
     id="path8"
     style="stroke-width:0.80987" />
  <path
     fill="#dd2e44"
     d="m 17.335097,5.625188 c -0.03483,-0.039684 -0.08909,-0.06155 -0.153066,-0.073698 0,0 -12.8963678,-2.4482367 -13.4543682,-1.9558358 C 3.1704723,4.088865 4.0216456,17.18851 4.0216456,17.18851 c 0.00405,0.0656 0.018627,0.121481 0.054261,0.161164 0.4891614,0.553951 3.853361,-1.622979 7.5147834,-4.860029 3.662231,-3.2378594 6.233568,-6.3105058 5.744407,-6.864457 z"
     id="path10"
     style="stroke-width:0.80987" />
  <path
     fill="#ea596e"
     d="m 3.7049865,3.6418166 c -0.012148,0.024296 -0.022676,0.057501 -0.030775,0.099614 C 3.8029807,4.8517622 5.0469409,13.987905 5.8219864,16.843506 6.9849596,16.19318 8.1665597,15.309612 9.5546767,14.208999 8.3755062,12.050696 4.3601712,3.5405829 3.7049865,3.6418166 Z"
     id="path12"
     style="stroke-width:0.80987" />
  <path
     fill="#3b88c3"
     d="m 27.639071,27.094029 -8.562754,-1.05526 c -0.915153,-0.08261 -2.524364,-0.09071 -2.441758,-1.540373 0.07532,-1.314419 1.652135,-1.111951 2.817538,-0.939449 l 8.615396,1.436709 z"
     id="path14"
     style="stroke-width:0.80987" />
  <path
     fill="#88c9f9"
     d="M 28.066683,24.996466 24.647412,24.41012 c -0.400076,-0.07208 -0.756418,0.523986 -0.774236,1.154875 -0.02025,0.701347 0.183841,1.05607 0.587966,1.138677 l 3.356101,0.414653 z"
     id="path16"
     style="stroke-width:0.80987" />
  <path
     fill="#3b88c3"
     d="m 31.701379,24.755125 -2.123479,1.952596 -3.79586,-4.127907 2.123479,-1.952596 c 1.102233,-1.013957 2.833734,-0.941069 3.847692,0.161164 l 0.109332,0.119051 c 1.013147,1.103043 0.941069,2.833735 -0.161164,3.847692 z"
     id="path18"
     style="stroke-width:0.80987" />
  <ellipse
     transform="rotate(-42.597)"
     fill="#88c9f9"
     cx="3.6947539"
     cy="36.876015"
     rx="2.2433395"
     ry="2.8037696"
     id="ellipse20"
     style="stroke-width:0.80987" />
  <ellipse
     transform="rotate(-42.597)"
     fill="#226699"
     cx="3.6947539"
     cy="36.876015"
     rx="1.1216698"
     ry="1.6820997"
     id="ellipse22"
     style="stroke-width:0.80987" />
  <circle
     fill="#55acee"
     cx="5.4470167"
     cy="30.552984"
     r="1.2148049"
     id="circle24"
     style="stroke-width:0.80987" />
  <circle
     fill="#55acee"
     cx="26.908569"
     cy="5.0420818"
     r="1.6197398"
     id="circle26"
     style="stroke-width:0.80987" />
  <path
     fill="#ea596e"
     d="M 7.3615491,27.107797 5.4680732,22.559568 3.7560083,27.455231 Z M 24.478959,7.4716914 21.23948,8.2815613 22.049349,5.0420817 Z"
     id="path28"
     style="stroke-width:0.80987" />
  <path
     fill="#77b255"
     d="M 29.337369,13.950651 32.577658,9.9004912 30.148048,8.2815613 Z"
     id="path30"
     style="stroke-width:0.80987" />
</svg>
