<?xml version="1.0" encoding="UTF-8" standalone="no"?>
<svg
   viewBox="0 0 36 36"
   version="1.1"
   id="svg10"
   sodipodi:docname="laughing.svg"
   inkscape:version="1.1 (ce6663b3b7, 2021-05-25)"
   xmlns:inkscape="http://www.inkscape.org/namespaces/inkscape"
   xmlns:sodipodi="http://sodipodi.sourceforge.net/DTD/sodipodi-0.dtd"
   xmlns="http://www.w3.org/2000/svg"
   xmlns:svg="http://www.w3.org/2000/svg">
  <defs
     id="defs14" />
  <sodipodi:namedview
     id="namedview12"
     pagecolor="#ffffff"
     bordercolor="#666666"
     borderopacity="1.0"
     inkscape:pageshadow="2"
     inkscape:pageopacity="0.0"
     inkscape:pagecheckerboard="0"
     showgrid="false"
     inkscape:zoom="20.916667"
     inkscape:cx="18"
     inkscape:cy="18"
     inkscape:window-width="2560"
     inkscape:window-height="1052"
     inkscape:window-x="1920"
     inkscape:window-y="0"
     inkscape:window-maximized="1"
     inkscape:current-layer="svg10" />
  <path
     fill="#ffcc4d"
     d="M 32.453327,18 C 32.453327,25.982251 25.982251,32.453327 18,32.453327 10.018551,32.453327 3.5466727,25.982251 3.5466727,18 3.5466727,10.018551 10.018551,3.5466727 18,3.5466727 25.982251,3.5466727 32.453327,10.018551 32.453327,18"
     id="path2"
     style="stroke-width:0.802963" />
  <path
     fill="#664500"
     d="m 26.39658,17.836999 c -0.04818,-0.1084 -1.203641,-2.647368 -3.578804,-2.647368 -2.374361,0 -3.530627,2.538968 -3.578805,2.647368 -0.07387,0.166213 -0.02569,0.36053 0.11643,0.47455 0.140518,0.114021 0.342062,0.118036 0.489807,0.01124 0.0096,-0.0072 1.013339,-0.724272 2.972568,-0.724272 1.947987,0 2.950084,0.70741 2.972567,0.723469 0.07066,0.053 0.155775,0.07949 0.239283,0.07949 0.08833,0 0.177455,-0.02971 0.250525,-0.08752 0.142124,-0.11402 0.191105,-0.309943 0.116429,-0.476959 z m -9.635551,0 c -0.04818,-0.1084 -1.203641,-2.647368 -3.578805,-2.647368 -2.37436,0 -3.5306265,2.538968 -3.5788042,2.647368 -0.073873,0.166213 -0.025695,0.36053 0.1156266,0.47455 0.1413214,0.114021 0.3428646,0.118036 0.4898076,0.01124 0.01044,-0.0072 1.013338,-0.724272 2.97337,-0.724272 1.947988,0 2.950085,0.70741 2.972568,0.723469 0.07066,0.053 0.155775,0.07949 0.239283,0.07949 0.08833,0 0.177454,-0.02971 0.250524,-0.08752 0.142927,-0.11402 0.190302,-0.309943 0.11643,-0.476959 z m 11.677485,-1.442924 c -0.317973,0 -0.619887,-0.191105 -0.745952,-0.505064 -1.427668,-3.569169 -4.996837,-4.320742 -5.03297,-4.328771 -0.434403,-0.08672 -0.717045,-0.509882 -0.629523,-0.945087 0.08672,-0.435206 0.509882,-0.71544 0.945087,-0.629523 0.18147,0.036133 4.461261,0.93786 6.208507,5.305977 0.164608,0.41192 -0.03613,0.879244 -0.448053,1.043851 -0.09636,0.04015 -0.197528,0.05862 -0.297096,0.05862 z m -20.8770282,0 c -0.099567,0 -0.1999377,-0.01847 -0.2978991,-0.05781 C 6.8516669,16.171654 6.6517292,15.70433 6.8163365,15.29241 8.5635832,10.924293 12.843374,10.022566 13.024844,9.986433 c 0.436008,-0.085114 0.857564,0.19512 0.945087,0.629523 0.08672,0.433599 -0.194317,0.855958 -0.627114,0.944284 -0.148548,0.03051 -3.6181499,0.786903 -5.0353789,4.328771 C 8.181373,16.20297 7.879459,16.394075 7.5614858,16.394075 Z M 18,21.211851 c -2.909134,0 -4.839456,-0.338851 -7.226664,-0.802963 -0.545211,-0.105188 -1.6059249,0 -1.6059249,1.605925 0,3.211851 3.6896129,7.226664 8.8325889,7.226664 5.142173,0 8.832589,-4.014813 8.832589,-7.226664 0,-1.605925 -1.060714,-1.711916 -1.605925,-1.605925 C 22.839456,20.873 20.909134,21.211851 18,21.211851 Z"
     id="path4"
     style="stroke-width:0.802963" />
  <path
     fill="#ffffff"
     d="m 10.773336,22.014813 c 0,0 2.408888,0.802963 7.226664,0.802963 4.817776,0 7.226664,-0.802963 7.226664,-0.802963 0,0 -1.605926,3.211851 -7.226664,3.211851 -5.620738,0 -7.226664,-3.211851 -7.226664,-3.211851 z"
     id="path6"
     style="stroke-width:0.802963" />
  <path
     fill="#5dadec"
     d="m 12.256408,26.213505 c -0.546014,2.149531 -2.7300726,3.448724 -4.8796036,2.90271 -2.148728,-0.545212 -3.4487245,-2.72927 -2.9035128,-4.878801 0.5452116,-2.149531 5.0883741,-6.992199 5.8672474,-6.79467 0.778874,0.198332 2.461081,6.622033 1.915869,8.770761 z m 11.471124,0 c 0.546015,2.149531 2.730073,3.448724 4.879604,2.90271 2.149531,-0.545212 3.449528,-2.72927 2.903513,-4.878801 -0.546014,-2.149531 -5.089177,-6.992199 -5.868051,-6.79467 -0.777268,0.198332 -2.460277,6.622033 -1.915066,8.770761 z"
     id="path8"
     style="stroke-width:0.802963" />
</svg>
