<?xml version="1.0" encoding="UTF-8" standalone="no"?>
<svg
   xmlns:dc="http://purl.org/dc/elements/1.1/"
   xmlns:cc="http://creativecommons.org/ns#"
   xmlns:rdf="http://www.w3.org/1999/02/22-rdf-syntax-ns#"
   xmlns:svg="http://www.w3.org/2000/svg"
   xmlns="http://www.w3.org/2000/svg"
   xmlns:sodipodi="http://sodipodi.sourceforge.net/DTD/sodipodi-0.dtd"
   xmlns:inkscape="http://www.inkscape.org/namespaces/inkscape"
   version="1.1"
   id="mdi-timer-outline"
   width="24.5"
   height="32"
   viewBox="0 0 24.5 32"
   sodipodi:docname="ok.svg"
   inkscape:version="1.0.1 (0767f8302a, 2020-10-17)">
  <metadata
     id="metadata9">
    <rdf:RDF>
      <cc:Work
         rdf:about="">
        <dc:format>image/svg+xml</dc:format>
        <dc:type
           rdf:resource="http://purl.org/dc/dcmitype/StillImage" />
        <dc:title></dc:title>
      </cc:Work>
    </rdf:RDF>
  </metadata>
  <defs
     id="defs7" />
  <sodipodi:namedview
     pagecolor="#ffffff"
     bordercolor="#666666"
     borderopacity="1"
     objecttolerance="10"
     gridtolerance="10"
     guidetolerance="10"
     inkscape:pageopacity="0"
     inkscape:pageshadow="2"
     inkscape:window-width="1920"
     inkscape:window-height="1052"
     id="namedview5"
     showgrid="false"
     inkscape:snap-page="true"
     fit-margin-top="0"
     fit-margin-left="0"
     fit-margin-right="0"
     fit-margin-bottom="0"
     inkscape:zoom="15.312501"
     inkscape:cx="38.10456"
     inkscape:cy="23.650711"
     inkscape:window-x="1920"
     inkscape:window-y="0"
     inkscape:window-maximized="1"
     inkscape:current-layer="text881"
     inkscape:document-rotation="0" />
  <g
     aria-label="connect"
     id="text881"
     style="font-style:normal;font-weight:normal;font-size:6.27891px;line-height:1.25;font-family:sans-serif;letter-spacing:0px;word-spacing:0px;fill:#000000;fill-opacity:1;stroke:none;stroke-width:0.156973">
    <path
       d="m 12.25,1.9240667 c -5.5,0 -10.0000003,4.5 -10.0000003,10.0000003 0,5.5 4.5000003,10 10.0000003,10 5.5,0 10,-4.5 10,-10 0,-5.5000003 -4.5,-10.0000003 -10,-10.0000003 m 0,18.0000003 c -4.41,0 -8.0000003,-3.59 -8.0000003,-8 0,-4.4100003 3.5900003,-8.0000003 8.0000003,-8.0000003 4.41,0 8,3.59 8,8.0000003 0,4.41 -3.59,8 -8,8 m 4.59,-12.4200003 -6.59,6.5900003 -2.59,-2.58 -1.4100003,1.41 4.0000003,4 8,-8.0000003 z"
       id="path948" />
    <g
       aria-label="confirm"
       id="text836"
       style="font-size:6.4535px;line-height:1.25;font-family:FredokaOne;-inkscape-font-specification:FredokaOne;letter-spacing:0px;word-spacing:0px;stroke-width:0.161337">
      <path
         d="m 1.5129249,27.162156 q 0,0.271047 0.1806979,0.425931 0.180698,0.148431 0.3807565,0.148431 0.206512,0 0.3807565,-0.116163 0.180698,-0.122617 0.2904075,-0.122617 0.193605,0 0.4711055,0.342036 0.1484305,0.187151 0.1484305,0.335582 0,0.245233 -0.3549425,0.458198 -0.3678495,0.25814 -0.90349,0.25814 -0.6001754,0 -1.15517643,-0.432384 -0.26459349,-0.206512 -0.43238449,-0.548548 -0.16779099,-0.348489 -0.16779099,-0.761513 0,-0.419477 0.16779099,-0.755059 0.167791,-0.342036 0.43238449,-0.548548 0.53564053,-0.425931 1.14226943,-0.425931 0.245233,0 0.477559,0.07099 0.232326,0.06453 0.3420355,0.12907 l 0.103256,0.06453 q 0.116163,0.07744 0.180698,0.122616 0.167791,0.12907 0.167791,0.296861 0,0.161338 -0.1355235,0.36785 -0.232326,0.354942 -0.4452915,0.354942 -0.1226165,0 -0.348489,-0.141977 -0.116163,-0.109709 -0.335582,-0.109709 -0.2129655,0 -0.400117,0.154884 -0.1871514,0.154884 -0.1871514,0.432384 z"
         style="stroke-width:0.161337"
         id="path917" />
      <path
         d="m 3.6914853,27.162156 q 0,-0.77442 0.542094,-1.277793 0.542094,-0.503373 1.2390719,-0.503373 0.696978,0 1.2326185,0.503373 0.5356405,0.49692 0.5356405,1.27134 0,0.53564 -0.2775005,0.955118 -0.2775005,0.413024 -0.6776175,0.613082 -0.3936635,0.193605 -0.8195945,0.193605 -0.4259309,0 -0.8260479,-0.206512 -0.400117,-0.212965 -0.6776175,-0.619536 -0.271047,-0.413024 -0.271047,-0.929304 z m 1.3487815,0.464652 q 0.206512,0.154884 0.4194774,0.154884 0.2129655,0 0.425931,-0.161337 0.2129655,-0.161338 0.2129655,-0.477559 0,-0.316222 -0.2000585,-0.471106 -0.2000585,-0.154884 -0.4323845,-0.154884 -0.2323259,0 -0.4323844,0.161338 -0.2000585,0.161337 -0.2000585,0.477559 0,0.309768 0.206512,0.471105 z"
         style="stroke-width:0.161337"
         id="path919" />
      <path
         d="m 9.5487421,25.458432 q 0.6453499,0 1.0712809,0.49692 0.432385,0.490466 0.432385,1.200351 v 1.135816 q 0,0.14843 -0.01291,0.225872 -0.0065,0.07099 -0.05163,0.161338 -0.09035,0.174244 -0.503373,0.174244 -0.458199,0 -0.5291874,-0.238779 -0.038721,-0.10971 -0.038721,-0.329129 v -1.135816 q 0,-0.264593 -0.154884,-0.413024 -0.1484305,-0.14843 -0.4065705,-0.14843 -0.2516865,0 -0.413024,0.154884 -0.154884,0.154884 -0.154884,0.40657 v 1.14227 q 0,0.14843 -0.012907,0.225872 -0.00645,0.07099 -0.058081,0.161338 -0.083896,0.174244 -0.4969195,0.174244 -0.4065705,0 -0.4969195,-0.174244 -0.045175,-0.0968 -0.058082,-0.167791 -0.00645,-0.07744 -0.00645,-0.225873 v -2.284539 q 0,-0.141977 0.00645,-0.212965 0.012907,-0.07744 0.064535,-0.167791 0.090349,-0.161338 0.4969195,-0.161338 0.3936635,0 0.4840125,0.148431 0.064535,0.109709 0.064535,0.264593 0.025814,-0.04517 0.116163,-0.12907 0.090349,-0.08389 0.1742445,-0.135523 0.219419,-0.148431 0.4840125,-0.148431 z"
         style="stroke-width:0.161337"
         id="path921" />
      <path
         d="m 13.426893,25.464886 q 0.445291,0 0.522733,0.245233 0.03872,0.122616 0.03872,0.322675 0,0.200058 -0.04517,0.322675 -0.03872,0.116163 -0.12907,0.167791 -0.135524,0.07744 -0.393664,0.07744 l -0.413024,-0.02581 v 1.729538 q 0,0.245233 -0.06453,0.367849 -0.05808,0.116163 -0.187151,0.154884 -0.122617,0.03872 -0.322675,0.03872 -0.200059,0 -0.322675,-0.03872 -0.116163,-0.04517 -0.167791,-0.135523 -0.05163,-0.0968 -0.06454,-0.174245 -0.0065,-0.07744 -0.0065,-0.225872 v -1.710178 h -0.232326 q -0.167791,-0.01291 -0.238779,-0.07744 -0.122617,-0.122616 -0.122617,-0.471105 0,-0.529187 0.380757,-0.529187 h 0.212965 v -0.342036 q 0,-0.496919 0.354943,-0.897036 0.354942,-0.406571 1.026106,-0.406571 0.148431,0 0.219419,0.01291 0.07744,0.0065 0.174245,0.05808 0.174244,0.0839 0.174244,0.496919 0,0.309768 -0.109709,0.445292 -0.09035,0.103256 -0.283954,0.116163 -0.05808,0 -0.180698,0 -0.23878,0 -0.23878,0.161337 v 0.354943 z m 0.942211,0.561454 q 0,-0.14843 0.0065,-0.219419 0.01291,-0.07744 0.05808,-0.174244 0.09035,-0.167791 0.503373,-0.167791 0.309768,0 0.438838,0.109709 0.109709,0.09035 0.116163,0.277501 0.0065,0.06453 0.0065,0.187151 v 2.258725 q 0,0.148431 -0.01291,0.225873 -0.0065,0.07099 -0.05808,0.167791 -0.0839,0.16779 -0.49692,0.16779 -0.40657,0 -0.496919,-0.174244 -0.04517,-0.0968 -0.05808,-0.167791 -0.0065,-0.07099 -0.0065,-0.225872 z m 1.058374,-1.193897 q -0.04518,0.09035 -0.167791,0.12907 -0.122617,0.03872 -0.329129,0.03872 -0.200058,0 -0.322675,-0.03872 -0.122616,-0.03872 -0.174244,-0.135524 -0.04517,-0.0968 -0.05808,-0.167791 -0.0065,-0.07744 -0.0065,-0.225872 0,-0.148431 0.0065,-0.219419 0.01291,-0.07744 0.05808,-0.167791 0.09035,-0.174245 0.503373,-0.174245 0.40657,0 0.490466,0.174245 0.05163,0.0968 0.05808,0.174244 0.01291,0.07099 0.01291,0.219419 0,0.148431 -0.01291,0.225873 -0.0065,0.07099 -0.05808,0.167791 z"
         style="stroke-width:0.161337"
         id="path923" />
      <path
         d="m 18.324998,25.497153 q 0.122616,0.03872 0.200058,0.135524 0.0839,0.09035 0.0839,0.296861 0,0.206512 -0.122617,0.451745 -0.122616,0.245233 -0.354942,0.245233 -0.116163,0 -0.225873,-0.05163 -0.103256,-0.05163 -0.2775,-0.05163 -0.174245,0 -0.329129,0.122616 -0.14843,0.122617 -0.14843,0.296861 v 1.355235 q 0,0.148431 -0.01291,0.225873 -0.0065,0.07099 -0.05808,0.167791 -0.0968,0.16779 -0.503373,0.16779 -0.309768,0 -0.445291,-0.109709 -0.103256,-0.09035 -0.116163,-0.2775 0,-0.06453 0,-0.187152 v -2.265178 q 0,-0.148431 0.0065,-0.219419 0.01291,-0.07744 0.05808,-0.167791 0.09035,-0.174245 0.503373,-0.174245 0.38721,0 0.484012,0.148431 0.07099,0.103256 0.07099,0.212965 0.03227,-0.04517 0.09035,-0.109709 0.06453,-0.06453 0.264593,-0.174245 0.200059,-0.109709 0.348489,-0.109709 0.154884,0 0.25814,0.01936 0.103256,0.01291 0.225873,0.05163 z"
         style="stroke-width:0.161337"
         id="path925" />
      <path
         d="m 20.074098,25.910177 q 0.303315,-0.458198 0.729246,-0.458198 0.658257,0 0.980932,0.561454 0.07099,-0.0968 0.167791,-0.200058 0.103256,-0.10971 0.322675,-0.232326 0.219419,-0.12907 0.451745,-0.12907 0.51628,0 0.864769,0.400117 0.348489,0.393663 0.348489,1.31006 v 1.129363 q 0,0.14843 -0.01291,0.225872 -0.0065,0.07099 -0.05808,0.167791 -0.0839,0.174244 -0.496919,0.174244 -0.406571,0 -0.49692,-0.180697 -0.04517,-0.0968 -0.05808,-0.167791 -0.0065,-0.07744 -0.0065,-0.225873 v -1.129362 q 0,-0.561455 -0.400117,-0.561455 -0.225872,0 -0.309768,0.148431 -0.07744,0.14843 -0.07744,0.419477 v 1.129363 q 0,0.154884 -0.01291,0.225872 -0.0065,0.07099 -0.05808,0.167791 -0.09035,0.174244 -0.503373,0.174244 -0.406571,0 -0.49692,-0.180697 -0.04517,-0.0968 -0.05808,-0.167791 -0.0065,-0.07744 -0.0065,-0.225873 v -1.129362 q 0,-0.561455 -0.400117,-0.561455 -0.38721,0 -0.38721,0.561455 v 1.142269 q 0,0.148431 -0.01291,0.225873 -0.0065,0.07099 -0.05808,0.167791 -0.0968,0.16779 -0.503373,0.16779 -0.406571,0 -0.49692,-0.174244 -0.04517,-0.0968 -0.05808,-0.167791 -0.0065,-0.07099 -0.0065,-0.225872 v -2.271632 q 0,-0.148431 0.0065,-0.219419 0.01291,-0.07744 0.06453,-0.167791 0.0968,-0.174245 0.458198,-0.174245 0.361396,0 0.471106,0.116163 0.109709,0.116163 0.109709,0.335582 z"
         style="stroke-width:0.161337"
         id="path927" />
    </g>
  </g>
</svg>
