<?xml version="1.0" encoding="UTF-8" standalone="no"?>
<svg
   xmlns:dc="http://purl.org/dc/elements/1.1/"
   xmlns:cc="http://creativecommons.org/ns#"
   xmlns:rdf="http://www.w3.org/1999/02/22-rdf-syntax-ns#"
   xmlns:svg="http://www.w3.org/2000/svg"
   xmlns="http://www.w3.org/2000/svg"
   xmlns:sodipodi="http://sodipodi.sourceforge.net/DTD/sodipodi-0.dtd"
   xmlns:inkscape="http://www.inkscape.org/namespaces/inkscape"
   version="1.1"
   id="mdi-timer-outline"
   width="24.5"
   height="32"
   viewBox="0 0 24.5 32"
   sodipodi:docname="robot-connecting.svg"
   inkscape:version="1.0.1 (0767f8302a, 2020-10-17)">
  <metadata
     id="metadata9">
    <rdf:RDF>
      <cc:Work
         rdf:about="">
        <dc:format>image/svg+xml</dc:format>
        <dc:type
           rdf:resource="http://purl.org/dc/dcmitype/StillImage" />
        <dc:title></dc:title>
      </cc:Work>
    </rdf:RDF>
  </metadata>
  <defs
     id="defs7" />
  <sodipodi:namedview
     pagecolor="#ffffff"
     bordercolor="#666666"
     borderopacity="1"
     objecttolerance="10"
     gridtolerance="10"
     guidetolerance="10"
     inkscape:pageopacity="0"
     inkscape:pageshadow="2"
     inkscape:window-width="1920"
     inkscape:window-height="1052"
     id="namedview5"
     showgrid="false"
     inkscape:snap-page="true"
     fit-margin-top="0"
     fit-margin-left="0"
     fit-margin-right="0"
     fit-margin-bottom="0"
     inkscape:zoom="7.6562503"
     inkscape:cx="61.709956"
     inkscape:cy="18.844106"
     inkscape:window-x="2048"
     inkscape:window-y="0"
     inkscape:window-maximized="1"
     inkscape:current-layer="mdi-timer-outline"
     inkscape:document-rotation="0" />
  <path
     d="m 19.29793,6.824125 h 1 v 1 h -1 v -1 m 1,-3 h -1 v 2 h 1 v -1 h 0.5 c 0.28,0 0.5,-0.22 0.5,-0.5 v -2 c 0,-0.28 -0.22,-0.5 -0.5,-0.5 h -2.5 v 1 h 2 v 1 m -3,-2 h -1 v 4 h 1 v -4 m -3.5,12.5 c 0,1.11 0.9,2 2,2 1.1,0 2,-0.89 2,-2 0,-1.11 -0.89,-2 -2,-2 -1.11,0 -2,0.9 -2,2 m 3.5,-7.5 h -1 v 1 h 1 v -1 m 5,6 h -1 c 0,-1.5 -0.47,-2.8699996 -1.26,-4 h -2.77 c 1.22,0.9100004 2.03,2.36 2.03,4 v 2 h 2 v 1 h -2 v 3 H 5.2979296 v -3 h -2 v -1 h 2 v -2 c 0,-2.76 2.24,-5 5.0000004,-5 h 4 c 0.34,0 0.68,0.04 1,0.1 v -2.02 c -0.33,-0.05 -0.66,-0.08 -1,-0.08 h -1 v -1.27 c 0.6,-0.34 1,-0.99 1,-1.73 0,-1.1 -0.89,-2 -2,-2 -1.11,0 -2,0.9 -2,2 0,0.74 0.4,1.39 1,1.73 v 1.27 h -1 c -3.8700004,0 -7.0000004,3.13 -7.0000004,7 h -1 c -0.55,0 -1,0.45 -1,1 v 3 c 0,0.55 0.45,1 1,1 h 1 v 1 c 0,1.11 0.9,2 2,2 H 19.29793 c 1.11,0 2,-0.89 2,-2 v -1 h 1 c 0.55,0 1,-0.45 1,-1 v -3 c 0,-0.55 -0.45,-1 -1,-1 m -13.5000004,-0.5 c -1.1,0 -2,0.9 -2,2 0,1.1 0.9,2 2,2 1.1,0 2.0000004,-0.89 2.0000004,-2 0,-1.11 -0.8900004,-2 -2.0000004,-2 z"
     id="path2"
     style="fill:#ff7800" />
</svg>
