<?xml version="1.0" encoding="UTF-8" standalone="no"?>
<svg
   xmlns:dc="http://purl.org/dc/elements/1.1/"
   xmlns:cc="http://creativecommons.org/ns#"
   xmlns:rdf="http://www.w3.org/1999/02/22-rdf-syntax-ns#"
   xmlns:svg="http://www.w3.org/2000/svg"
   xmlns="http://www.w3.org/2000/svg"
   xmlns:sodipodi="http://sodipodi.sourceforge.net/DTD/sodipodi-0.dtd"
   xmlns:inkscape="http://www.inkscape.org/namespaces/inkscape"
   version="1.1"
   id="mdi-timer-outline"
   width="24.5"
   height="32"
   viewBox="0 0 24.5 32"
   sodipodi:docname="robot-connecting-hover.svg"
   inkscape:version="1.0.1 (0767f8302a, 2020-10-17)">
  <metadata
     id="metadata9">
    <rdf:RDF>
      <cc:Work
         rdf:about="">
        <dc:format>image/svg+xml</dc:format>
        <dc:type
           rdf:resource="http://purl.org/dc/dcmitype/StillImage" />
        <dc:title></dc:title>
      </cc:Work>
    </rdf:RDF>
  </metadata>
  <defs
     id="defs7" />
  <sodipodi:namedview
     pagecolor="#ffffff"
     bordercolor="#666666"
     borderopacity="1"
     objecttolerance="10"
     gridtolerance="10"
     guidetolerance="10"
     inkscape:pageopacity="0"
     inkscape:pageshadow="2"
     inkscape:window-width="1920"
     inkscape:window-height="1052"
     id="namedview5"
     showgrid="false"
     inkscape:snap-page="true"
     fit-margin-top="0"
     fit-margin-left="0"
     fit-margin-right="0"
     fit-margin-bottom="0"
     inkscape:zoom="21.655146"
     inkscape:cx="9.0384154"
     inkscape:cy="23.216128"
     inkscape:window-x="2048"
     inkscape:window-y="0"
     inkscape:window-maximized="1"
     inkscape:current-layer="text1082"
     inkscape:document-rotation="0" />
  <path
     d="m 19.29793,6.824125 h 1 v 1 h -1 v -1 m 1,-3 h -1 v 2 h 1 v -1 h 0.5 c 0.28,0 0.5,-0.22 0.5,-0.5 v -2 c 0,-0.28 -0.22,-0.5 -0.5,-0.5 h -2.5 v 1 h 2 v 1 m -3,-2 h -1 v 4 h 1 v -4 m -3.5,12.5 c 0,1.11 0.9,2 2,2 1.1,0 2,-0.89 2,-2 0,-1.11 -0.89,-2 -2,-2 -1.11,0 -2,0.9 -2,2 m 3.5,-7.5 h -1 v 1 h 1 v -1 m 5,6 h -1 c 0,-1.5 -0.47,-2.8699996 -1.26,-4 h -2.77 c 1.22,0.9100004 2.03,2.36 2.03,4 v 2 h 2 v 1 h -2 v 3 H 5.2979296 v -3 h -2 v -1 h 2 v -2 c 0,-2.76 2.24,-5 5.0000004,-5 h 4 c 0.34,0 0.68,0.04 1,0.1 v -2.02 c -0.33,-0.05 -0.66,-0.08 -1,-0.08 h -1 v -1.27 c 0.6,-0.34 1,-0.99 1,-1.73 0,-1.1 -0.89,-2 -2,-2 -1.11,0 -2,0.9 -2,2 0,0.74 0.4,1.39 1,1.73 v 1.27 h -1 c -3.8700004,0 -7.0000004,3.13 -7.0000004,7 h -1 c -0.55,0 -1,0.45 -1,1 v 3 c 0,0.55 0.45,1 1,1 h 1 v 1 c 0,1.11 0.9,2 2,2 H 19.29793 c 1.11,0 2,-0.89 2,-2 v -1 h 1 c 0.55,0 1,-0.45 1,-1 v -3 c 0,-0.55 -0.45,-1 -1,-1 m -13.5000004,-0.5 c -1.1,0 -2,0.9 -2,2 0,1.1 0.9,2 2,2 1.1,0 2.0000004,-0.89 2.0000004,-2 0,-1.11 -0.8900004,-2 -2.0000004,-2 z"
     id="path2"
     style="fill:#ff7800" />
  <g
     aria-label="stop"
     id="text1082"
     style="font-size:5.94159px;line-height:1.25;font-family:FredokaOne;-inkscape-font-specification:FredokaOne;letter-spacing:0px;word-spacing:0px;stroke-width:0.14854">
    <path
       d="m 6.8713805,28.541733 q -0.1128902,-0.0713 -0.1128902,-0.22578 0,-0.154482 0.2257804,-0.469386 0.065358,-0.101007 0.2079556,-0.101007 0.1485398,0 0.3980866,0.14854 0.2495467,0.142598 0.4515608,0.142598 0.362437,0 0.362437,-0.142598 0,-0.112891 -0.3980865,-0.166365 Q 7.631904,27.674261 7.2635254,27.44848 7.0912193,27.341532 6.9783291,27.115751 6.8654389,26.884029 6.8654389,26.569125 q 0,-0.938771 1.289325,-0.938771 0.4218529,0 0.8674721,0.202014 0.2079557,0.09507 0.2079557,0.237664 0,0.142598 -0.130715,0.350553 -0.130715,0.207956 -0.2673716,0.207956 -0.071299,0 -0.2673715,-0.08912 -0.1901309,-0.08912 -0.4159113,-0.08912 -0.3505538,0 -0.3505538,0.130715 0,0.178248 0.4040281,0.231722 0.3921449,0.04159 0.7605235,0.225781 0.1723061,0.08318 0.2851963,0.291138 0.1188318,0.202014 0.1188318,0.510976 0,0.308963 -0.1188318,0.528802 -0.1128902,0.213897 -0.3208458,0.320846 -0.3802618,0.184189 -0.956596,0.184189 -0.5703926,0 -1.0991941,-0.332729 z"
       style="stroke-width:0.14854"
       id="path1084" />
    <path
       d="m 11.47407,26.741431 -0.386203,-0.02377 v 0.819939 q 0,0.160423 0.04753,0.231722 0.05347,0.0713 0.19013,0.0713 0.142599,0 0.213898,0.01188 0.07724,0.0059 0.160423,0.05347 0.136656,0.07724 0.136656,0.398086 0,0.374321 -0.166364,0.457503 -0.08912,0.04159 -0.160423,0.05347 -0.06536,0.0059 -0.196073,0.0059 -0.617925,0 -0.938771,-0.279255 Q 10.05403,28.262478 10.05403,27.59702 v -0.879355 q -0.11289,0.01782 -0.2436049,0.01782 -0.130715,0 -0.2198389,-0.101007 -0.083182,-0.101007 -0.083182,-0.344613 0,-0.243605 0.029708,-0.350553 0.029708,-0.112891 0.083182,-0.160423 0.095065,-0.07724 0.2376636,-0.07724 l 0.1960722,0.02377 v -0.611983 q 0,-0.136657 0.0059,-0.202014 0.01188,-0.06536 0.05942,-0.142599 0.07724,-0.148539 0.457502,-0.148539 0.404028,0 0.481269,0.219839 0.02971,0.09507 0.02971,0.303021 v 0.582275 q 0.26143,-0.02377 0.392145,-0.02377 0.136656,0 0.202014,0.01188 0.0713,0.0059 0.160423,0.05347 0.154481,0.07724 0.154481,0.457502 0,0.37432 -0.160423,0.457502 -0.08912,0.04159 -0.160423,0.05347 -0.06536,0.0059 -0.202014,0.0059 z"
       style="stroke-width:0.14854"
       id="path1086" />
    <path
       d="m 12.235893,27.25835 q 0,-0.712991 0.499094,-1.176435 0.499094,-0.463444 1.140785,-0.463444 0.641692,0 1.134844,0.463444 0.493152,0.457502 0.493152,1.170493 0,0.493152 -0.255489,0.879355 -0.255488,0.380262 -0.623866,0.564451 -0.362437,0.178248 -0.754582,0.178248 -0.392145,0 -0.760524,-0.190131 -0.368378,-0.196072 -0.623867,-0.570392 -0.249547,-0.380262 -0.249547,-0.855589 z m 1.241793,0.427794 q 0.190131,0.142598 0.386203,0.142598 0.196073,0 0.392145,-0.14854 0.196072,-0.148539 0.196072,-0.439677 0,-0.291138 -0.184189,-0.433736 -0.184189,-0.142598 -0.398086,-0.142598 -0.213898,0 -0.398087,0.148539 -0.184189,0.14854 -0.184189,0.439678 0,0.285196 0.190131,0.433736 z"
       style="stroke-width:0.14854"
       id="path1088" />
    <path
       d="m 15.88765,29.670635 v -3.469888 q 0,-0.136657 0.0059,-0.202014 0.01188,-0.06536 0.05347,-0.14854 0.08318,-0.160423 0.398087,-0.160423 0.314904,0 0.421853,0.08318 0.11289,0.07724 0.130715,0.231722 0.22578,-0.308963 0.707049,-0.308963 0.48721,0 0.920946,0.457503 0.433736,0.457502 0.433736,1.063544 0,0.606043 -0.433736,1.063545 -0.427794,0.457502 -0.915005,0.457502 -0.48721,0 -0.707049,-0.273313 v 1.200201 q 0,0.136657 -0.01188,0.202015 -0.0059,0.06536 -0.05347,0.148539 -0.04159,0.08912 -0.14854,0.124774 -0.106949,0.03565 -0.291138,0.03565 -0.184189,0 -0.297079,-0.03565 -0.106949,-0.03565 -0.154482,-0.118832 -0.04159,-0.08318 -0.05347,-0.14854 -0.0059,-0.06536 -0.0059,-0.202014 z m 1.176435,-2.798489 q -0.136656,0.160423 -0.136656,0.350554 0,0.190131 0.136656,0.350554 0.142598,0.154481 0.356496,0.154481 0.219838,0 0.368378,-0.154481 0.154481,-0.154481 0.154481,-0.350554 0,-0.196072 -0.142598,-0.350554 -0.142598,-0.160423 -0.37432,-0.160423 -0.22578,0 -0.362437,0.160423 z"
       style="stroke-width:0.14854"
       id="path1090" />
  </g>
</svg>
