<?xml version="1.0" encoding="UTF-8" standalone="no"?>
<svg
   xmlns:dc="http://purl.org/dc/elements/1.1/"
   xmlns:cc="http://creativecommons.org/ns#"
   xmlns:rdf="http://www.w3.org/1999/02/22-rdf-syntax-ns#"
   xmlns:svg="http://www.w3.org/2000/svg"
   xmlns="http://www.w3.org/2000/svg"
   xmlns:sodipodi="http://sodipodi.sourceforge.net/DTD/sodipodi-0.dtd"
   xmlns:inkscape="http://www.inkscape.org/namespaces/inkscape"
   version="1.1"
   id="mdi-timer-outline"
   width="24.5"
   height="32"
   viewBox="0 0 24.5 32"
   sodipodi:docname="robot-sleepy.svg"
   inkscape:version="1.0.1 (0767f8302a, 2020-10-17)">
  <metadata
     id="metadata9">
    <rdf:RDF>
      <cc:Work
         rdf:about="">
        <dc:format>image/svg+xml</dc:format>
        <dc:type
           rdf:resource="http://purl.org/dc/dcmitype/StillImage" />
        <dc:title></dc:title>
      </cc:Work>
    </rdf:RDF>
  </metadata>
  <defs
     id="defs7" />
  <sodipodi:namedview
     pagecolor="#ffffff"
     bordercolor="#666666"
     borderopacity="1"
     objecttolerance="10"
     gridtolerance="10"
     guidetolerance="10"
     inkscape:pageopacity="0"
     inkscape:pageshadow="2"
     inkscape:window-width="1920"
     inkscape:window-height="1052"
     id="namedview5"
     showgrid="false"
     inkscape:snap-page="true"
     fit-margin-top="0"
     fit-margin-left="0"
     fit-margin-right="0"
     fit-margin-bottom="0"
     inkscape:zoom="7.6562503"
     inkscape:cx="61.709956"
     inkscape:cy="18.844106"
     inkscape:window-x="2048"
     inkscape:window-y="0"
     inkscape:window-maximized="1"
     inkscape:current-layer="mdi-timer-outline"
     inkscape:document-rotation="0" />
  <g
     aria-label="Away"
     id="text836"
     style="font-style:normal;font-weight:normal;font-size:8.13819px;line-height:1.25;font-family:sans-serif;letter-spacing:0px;word-spacing:0px;fill:#000000;fill-opacity:1;stroke:none;stroke-width:0.203455">
    <text
       xml:space="preserve"
       style="font-style:normal;font-weight:normal;font-size:6.78923px;line-height:1.25;font-family:sans-serif;letter-spacing:0px;word-spacing:0px;fill:#000000;fill-opacity:1;stroke:none;stroke-width:0.0345326"
       x="1.1873528"
       y="36.204067"
       id="text843"><tspan
         sodipodi:role="line"
         id="tspan841"
         x="1.1873528"
         y="36.204067"
         style="stroke-width:0.0345326" /></text>
    <path
       d="m 22.29793,12.824125 h -1 c 0,-3.87 -3.13,-7 -7,-7 h -1 V 4.5541251 c 0.6,-0.34 1,-0.99 1,-1.73 0,-1.1 -0.89,-2 -2,-2 -1.11,0 -2,0.9 -2,2 0,0.74 0.4,1.39 1,1.73 V 5.824125 h -1 c -3.8700003,0 -7.0000003,3.13 -7.0000003,7 h -1 c -0.55,0 -1,0.45 -1,1 v 3 c 0,0.55 0.45,1 1,1 h 1 v 1 c 0,1.11 0.9,2 2,2 H 19.29793 c 1.11,0 2,-0.89 2,-2 v -1 h 1 c 0.55,0 1,-0.45 1,-1 v -3 c 0,-0.55 -0.45,-1 -1,-1 m -1,3 h -2 v 3 H 5.2979297 v -3 h -2 v -1 h 2 v -2 c 0,-2.76 2.24,-5 5.0000003,-5 h 4 c 2.76,0 5,2.24 5,5 v 2 h 2 v 1 m -12.5000003,0.04 -2.36,-2.36 1.18,-1.18 1.18,1.18 1.1800003,-1.18 1.18,1.18 -2.3600003,2.36 m 7.0000003,0 -2.36,-2.36 1.18,-1.18 1.18,1.18 1.18,-1.18 1.18,1.18 z"
       id="path2"
       sodipodi:nodetypes="ccsccsssccscsssscsssscssscccccccccssssccccccccccccccccc"
       style="fill:#1a5fb4" />
  </g>
</svg>
