<?xml version="1.0" encoding="UTF-8" standalone="no"?>
<svg
   xmlns:dc="http://purl.org/dc/elements/1.1/"
   xmlns:cc="http://creativecommons.org/ns#"
   xmlns:rdf="http://www.w3.org/1999/02/22-rdf-syntax-ns#"
   xmlns:svg="http://www.w3.org/2000/svg"
   xmlns="http://www.w3.org/2000/svg"
   xmlns:sodipodi="http://sodipodi.sourceforge.net/DTD/sodipodi-0.dtd"
   xmlns:inkscape="http://www.inkscape.org/namespaces/inkscape"
   version="1.1"
   id="mdi-timer-outline"
   width="24.5"
   height="32"
   viewBox="0 0 24.5 32"
   sodipodi:docname="robot-sleepy-hover.svg"
   inkscape:version="1.0.1 (0767f8302a, 2020-10-17)">
  <metadata
     id="metadata9">
    <rdf:RDF>
      <cc:Work
         rdf:about="">
        <dc:format>image/svg+xml</dc:format>
        <dc:type
           rdf:resource="http://purl.org/dc/dcmitype/StillImage" />
        <dc:title></dc:title>
      </cc:Work>
    </rdf:RDF>
  </metadata>
  <defs
     id="defs7" />
  <sodipodi:namedview
     pagecolor="#ffffff"
     bordercolor="#666666"
     borderopacity="1"
     objecttolerance="10"
     gridtolerance="10"
     guidetolerance="10"
     inkscape:pageopacity="0"
     inkscape:pageshadow="2"
     inkscape:window-width="1920"
     inkscape:window-height="1052"
     id="namedview5"
     showgrid="false"
     inkscape:snap-page="true"
     fit-margin-top="0"
     fit-margin-left="0"
     fit-margin-right="0"
     fit-margin-bottom="0"
     inkscape:zoom="7.6562503"
     inkscape:cx="61.709956"
     inkscape:cy="18.844106"
     inkscape:window-x="2048"
     inkscape:window-y="0"
     inkscape:window-maximized="1"
     inkscape:current-layer="mdi-timer-outline"
     inkscape:document-rotation="0" />
  <g
     aria-label="Away"
     id="text836"
     style="font-style:normal;font-weight:normal;font-size:8.13819px;line-height:1.25;font-family:sans-serif;letter-spacing:0px;word-spacing:0px;fill:#000000;fill-opacity:1;stroke:none;stroke-width:0.203455">
    <text
       xml:space="preserve"
       style="font-style:normal;font-weight:normal;font-size:6.78923px;line-height:1.25;font-family:sans-serif;letter-spacing:0px;word-spacing:0px;fill:#000000;fill-opacity:1;stroke:none;stroke-width:0.0345326"
       x="1.1873528"
       y="36.204067"
       id="text843"><tspan
         sodipodi:role="line"
         id="tspan841"
         x="1.1873528"
         y="36.204067"
         style="stroke-width:0.0345326" /></text>
    <path
       d="m 22.29793,12.824125 h -1 c 0,-3.87 -3.13,-7 -7,-7 h -1 V 4.5541251 c 0.6,-0.34 1,-0.99 1,-1.73 0,-1.1 -0.89,-2 -2,-2 -1.11,0 -2,0.9 -2,2 0,0.74 0.4,1.39 1,1.73 V 5.824125 h -1 c -3.8700003,0 -7.0000003,3.13 -7.0000003,7 h -1 c -0.55,0 -1,0.45 -1,1 v 3 c 0,0.55 0.45,1 1,1 h 1 v 1 c 0,1.11 0.9,2 2,2 H 19.29793 c 1.11,0 2,-0.89 2,-2 v -1 h 1 c 0.55,0 1,-0.45 1,-1 v -3 c 0,-0.55 -0.45,-1 -1,-1 m -1,3 h -2 v 3 H 5.2979297 v -3 h -2 v -1 h 2 v -2 c 0,-2.76 2.24,-5 5.0000003,-5 h 4 c 2.76,0 5,2.24 5,5 v 2 h 2 v 1 m -12.5000003,0.04 -2.36,-2.36 1.18,-1.18 1.18,1.18 1.1800003,-1.18 1.18,1.18 -2.3600003,2.36 m 7.0000003,0 -2.36,-2.36 1.18,-1.18 1.18,1.18 1.18,-1.18 1.18,1.18 z"
       id="path2"
       sodipodi:nodetypes="ccsccsssccscsssscsssscssscccccccccssssccccccccccccccccc"
       style="fill:#1a5fb4" />
  </g>
  <g
     aria-label="connect"
     id="text881"
     style="font-style:normal;font-weight:normal;font-size:6.27891px;line-height:1.25;font-family:sans-serif;letter-spacing:0px;word-spacing:0px;fill:#000000;fill-opacity:1;stroke:none;stroke-width:0.156973">
    <path
       d="m 1.4390708,27.207745 q 0,0.263714 0.1758095,0.414408 0.1758094,0.144415 0.3704557,0.144415 0.2009251,0 0.3704557,-0.11302 0.1758094,-0.1193 0.2825509,-0.1193 0.1883673,0 0.4583605,0.332783 0.1444149,0.182088 0.1444149,0.326503 0,0.238599 -0.3453401,0.445803 -0.3578978,0.251156 -0.8790474,0.251156 -0.5839386,0 -1.1239249,-0.420687 -0.25743532,-0.200925 -0.42068698,-0.533707 -0.16325167,-0.339062 -0.16325167,-0.740912 0,-0.408129 0.16325167,-0.734632 0.16325166,-0.332782 0.42068698,-0.533708 0.5211495,-0.414408 1.1113671,-0.414408 0.2385986,0 0.4646393,0.06907 0.2260408,0.06279 0.3327823,0.125579 l 0.1004625,0.06279 q 0.1130204,0.07535 0.1758095,0.119299 0.1632517,0.125578 0.1632517,0.28883 0,0.156973 -0.1318571,0.357898 -0.2260408,0.34534 -0.4332448,0.34534 -0.1192993,0 -0.3390612,-0.138136 -0.1130204,-0.106742 -0.3265033,-0.106742 -0.207204,0 -0.3892924,0.150694 -0.1820884,0.150694 -0.1820884,0.420687 z"
       style="font-style:normal;font-variant:normal;font-weight:normal;font-stretch:normal;font-family:FredokaOne;-inkscape-font-specification:FredokaOne;stroke-width:0.156973"
       id="path921" />
    <path
       d="m 3.5586934,27.207745 q 0,-0.753469 0.5274284,-1.243224 0.5274285,-0.489755 1.2055508,-0.489755 0.6781223,0 1.1992718,0.489755 0.5211496,0.483476 0.5211496,1.236945 0,0.52115 -0.2699932,0.929279 -0.2699931,0.40185 -0.6592855,0.596496 -0.3830136,0.188368 -0.7974216,0.188368 -0.4144081,0 -0.8037005,-0.200925 Q 4.0924007,28.507479 3.8224076,28.111908 3.5586934,27.710058 3.5586934,27.207745 Z m 1.3122922,0.452082 q 0.2009251,0.150693 0.4081292,0.150693 0.207204,0 0.414408,-0.156972 0.2072041,-0.156973 0.2072041,-0.46464 0,-0.307666 -0.1946462,-0.45836 -0.1946463,-0.150694 -0.420687,-0.150694 -0.2260408,0 -0.420687,0.156973 -0.1946462,0.156973 -0.1946462,0.464639 0,0.301388 0.2009251,0.458361 z"
       style="font-style:normal;font-variant:normal;font-weight:normal;font-stretch:normal;font-family:FredokaOne;-inkscape-font-specification:FredokaOne;stroke-width:0.156973"
       id="path923" />
    <path
       d="m 9.2574912,25.550113 q 0.6278911,0 1.0422988,0.483476 0.420687,0.477197 0.420687,1.167877 v 1.105088 q 0,0.144415 -0.01256,0.219762 -0.0063,0.06907 -0.05023,0.156973 -0.08791,0.169531 -0.489755,0.169531 -0.4458024,0 -0.5148704,-0.23232 -0.037674,-0.106742 -0.037674,-0.320225 v -1.105088 q 0,-0.257435 -0.1506938,-0.40185 -0.144415,-0.144415 -0.3955714,-0.144415 -0.2448775,0 -0.4018502,0.150694 -0.1506939,0.150694 -0.1506939,0.395571 v 1.111367 q 0,0.144415 -0.012558,0.219762 -0.00628,0.06907 -0.05651,0.156973 -0.081626,0.169531 -0.483476,0.169531 -0.3955714,0 -0.4834761,-0.169531 -0.043952,-0.09418 -0.05651,-0.163252 -0.00628,-0.07535 -0.00628,-0.219762 v -2.222734 q 0,-0.138136 0.00628,-0.207204 0.012558,-0.07535 0.062789,-0.163251 0.087905,-0.156973 0.4834761,-0.156973 0.3830135,0 0.4709182,0.144415 0.062789,0.106741 0.062789,0.257435 0.025116,-0.04395 0.1130204,-0.125578 0.087905,-0.08163 0.1695306,-0.131857 0.2134829,-0.144415 0.4709182,-0.144415 z"
       style="font-style:normal;font-variant:normal;font-weight:normal;font-stretch:normal;font-family:FredokaOne;-inkscape-font-specification:FredokaOne;stroke-width:0.156973"
       id="path925" />
    <path
       d="m 13.059175,25.550113 q 0.627891,0 1.042299,0.483476 0.420687,0.477197 0.420687,1.167877 v 1.105088 q 0,0.144415 -0.01256,0.219762 -0.0063,0.06907 -0.05023,0.156973 -0.0879,0.169531 -0.489755,0.169531 -0.445803,0 -0.514871,-0.23232 -0.03767,-0.106742 -0.03767,-0.320225 v -1.105088 q 0,-0.257435 -0.150694,-0.40185 -0.144415,-0.144415 -0.395572,-0.144415 -0.244877,0 -0.40185,0.150694 -0.150694,0.150694 -0.150694,0.395571 v 1.111367 q 0,0.144415 -0.01256,0.219762 -0.0063,0.06907 -0.05651,0.156973 -0.08163,0.169531 -0.483476,0.169531 -0.395571,0 -0.483476,-0.169531 -0.04395,-0.09418 -0.05651,-0.163252 -0.0063,-0.07535 -0.0063,-0.219762 v -2.222734 q 0,-0.138136 0.0063,-0.207204 0.01256,-0.07535 0.06279,-0.163251 0.0879,-0.156973 0.483476,-0.156973 0.383014,0 0.470918,0.144415 0.06279,0.106741 0.06279,0.257435 0.02512,-0.04395 0.113021,-0.125578 0.08791,-0.08163 0.16953,-0.131857 0.213483,-0.144415 0.470919,-0.144415 z"
       style="font-style:normal;font-variant:normal;font-weight:normal;font-stretch:normal;font-family:FredokaOne;-inkscape-font-specification:FredokaOne;stroke-width:0.156973"
       id="path927" />
    <path
       d="m 18.210825,26.812174 q 0,0.383013 -0.194646,0.571381 -0.188368,0.182088 -0.420687,0.182088 H 16.10739 q 0,0.175809 0.207204,0.295109 0.207204,0.119299 0.414408,0.119299 0.364177,0 0.571381,-0.07535 l 0.06907,-0.02512 q 0.150694,-0.06907 0.251156,-0.06907 0.200925,0 0.34534,0.282551 0.08163,0.169531 0.08163,0.28883 0,0.558823 -1.337408,0.558823 -0.464639,0 -0.828816,-0.156972 -0.357898,-0.163252 -0.558823,-0.426966 -0.395571,-0.508592 -0.395571,-1.136483 0,-0.791143 0.508591,-1.262061 0.514871,-0.477197 1.280898,-0.477197 0.872769,0 1.280898,0.615333 0.213483,0.326503 0.213483,0.715796 z m -1.32485,0.182088 q 0.238598,0 0.238598,-0.200925 0,-0.144415 -0.11302,-0.23232 -0.106742,-0.0879 -0.313946,-0.0879 -0.200925,0 -0.40185,0.16953 -0.200925,0.163252 -0.200925,0.351619 z"
       style="font-style:normal;font-variant:normal;font-weight:normal;font-stretch:normal;font-family:FredokaOne;-inkscape-font-specification:FredokaOne;stroke-width:0.156973"
       id="path929" />
    <path
       d="m 19.650363,27.207745 q 0,0.263714 0.17581,0.414408 0.175809,0.144415 0.370455,0.144415 0.200925,0 0.370456,-0.11302 0.175809,-0.1193 0.282551,-0.1193 0.188367,0 0.45836,0.332783 0.144415,0.182088 0.144415,0.326503 0,0.238599 -0.34534,0.445803 -0.357898,0.251156 -0.879047,0.251156 -0.583939,0 -1.123925,-0.420687 -0.257435,-0.200925 -0.420687,-0.533707 -0.163252,-0.339062 -0.163252,-0.740912 0,-0.408129 0.163252,-0.734632 0.163252,-0.332782 0.420687,-0.533708 0.521149,-0.414408 1.111367,-0.414408 0.238599,0 0.464639,0.06907 0.226041,0.06279 0.332783,0.125579 l 0.100462,0.06279 q 0.11302,0.07535 0.17581,0.119299 0.163251,0.125578 0.163251,0.28883 0,0.156973 -0.131857,0.357898 -0.226041,0.34534 -0.433245,0.34534 -0.119299,0 -0.339061,-0.138136 -0.11302,-0.106742 -0.326503,-0.106742 -0.207204,0 -0.389293,0.150694 -0.182088,0.150694 -0.182088,0.420687 z"
       style="font-style:normal;font-variant:normal;font-weight:normal;font-stretch:normal;font-family:FredokaOne;-inkscape-font-specification:FredokaOne;stroke-width:0.156973"
       id="path931" />
    <path
       d="m 23.724198,26.66148 -0.408129,-0.02512 v 0.86649 q 0,0.16953 0.05023,0.244877 0.05651,0.07535 0.200926,0.07535 0.150693,0 0.22604,0.01256 0.08163,0.0063 0.169531,0.05651 0.144415,0.08163 0.144415,0.420687 0,0.395572 -0.17581,0.483476 -0.09418,0.04395 -0.16953,0.05651 -0.06907,0.0063 -0.207204,0.0063 -0.653007,0 -0.992068,-0.295108 -0.339061,-0.295109 -0.339061,-0.998347 v -0.929279 q -0.119299,0.01884 -0.257435,0.01884 -0.138137,0 -0.23232,-0.106742 -0.0879,-0.106741 -0.0879,-0.364176 0,-0.257436 0.03139,-0.370456 0.03139,-0.119299 0.0879,-0.169531 0.100463,-0.08162 0.251157,-0.08162 l 0.207204,0.02511 v -0.646728 q 0,-0.144414 0.0063,-0.213482 0.01256,-0.06907 0.06279,-0.150694 0.08163,-0.156973 0.483476,-0.156973 0.426966,0 0.508592,0.23232 0.03139,0.100462 0.03139,0.320224 v 0.615333 q 0.276272,-0.02511 0.414408,-0.02511 0.144415,0 0.213483,0.01256 0.07535,0.0063 0.169531,0.05651 0.163251,0.08162 0.163251,0.483476 0,0.395571 -0.16953,0.483476 -0.09418,0.04395 -0.169531,0.05651 -0.06907,0.0063 -0.213483,0.0063 z"
       style="font-style:normal;font-variant:normal;font-weight:normal;font-stretch:normal;font-family:FredokaOne;-inkscape-font-specification:FredokaOne;stroke-width:0.156973"
       id="path933" />
  </g>
</svg>
