<?xml version="1.0" encoding="UTF-8" standalone="no"?>
<svg
   xmlns:dc="http://purl.org/dc/elements/1.1/"
   xmlns:cc="http://creativecommons.org/ns#"
   xmlns:rdf="http://www.w3.org/1999/02/22-rdf-syntax-ns#"
   xmlns:svg="http://www.w3.org/2000/svg"
   xmlns="http://www.w3.org/2000/svg"
   xmlns:sodipodi="http://sodipodi.sourceforge.net/DTD/sodipodi-0.dtd"
   xmlns:inkscape="http://www.inkscape.org/namespaces/inkscape"
   version="1.1"
   id="mdi-exit-to-app"
   width="24.500002"
   height="32"
   viewBox="0 0 24.500002 32"
   sodipodi:docname="settings.svg"
   inkscape:version="1.0.1 (0767f8302a, 2020-10-17)">
  <metadata
     id="metadata9">
    <rdf:RDF>
      <cc:Work
         rdf:about="">
        <dc:format>image/svg+xml</dc:format>
        <dc:type
           rdf:resource="http://purl.org/dc/dcmitype/StillImage" />
        <dc:title />
      </cc:Work>
    </rdf:RDF>
  </metadata>
  <defs
     id="defs7" />
  <sodipodi:namedview
     pagecolor="#ffffff"
     bordercolor="#666666"
     borderopacity="1"
     objecttolerance="10"
     gridtolerance="10"
     guidetolerance="10"
     inkscape:pageopacity="0"
     inkscape:pageshadow="2"
     inkscape:window-width="1920"
     inkscape:window-height="1052"
     id="namedview5"
     showgrid="false"
     inkscape:snap-page="true"
     fit-margin-top="0"
     fit-margin-left="0"
     fit-margin-right="0"
     fit-margin-bottom="0"
     inkscape:zoom="15.3125"
     inkscape:cx="24.473879"
     inkscape:cy="14.623984"
     inkscape:window-x="1920"
     inkscape:window-y="0"
     inkscape:window-maximized="1"
     inkscape:current-layer="mdi-exit-to-app"
     inkscape:document-rotation="0" />
  <path
     d="m 12.331354,15.568068 a 3.5,3.5 0 0 1 -3.4999999,-3.5 3.5,3.5 0 0 1 3.4999999,-3.4999995 3.5,3.5 0 0 1 3.5,3.4999995 3.5,3.5 0 0 1 -3.5,3.5 m 7.43,-2.53 c 0.04,-0.32 0.07,-0.64 0.07,-0.97 0,-0.33 -0.03,-0.66 -0.07,-1 l 2.11,-1.6299995 c 0.19,-0.15 0.24,-0.42 0.12,-0.64 l -2,-3.46 c -0.12,-0.22 -0.39,-0.31 -0.61,-0.22 l -2.49,1 c -0.52,-0.39 -1.06,-0.73 -1.69,-0.98 l -0.37,-2.65 c -0.04,-0.24 -0.25,-0.42 -0.5,-0.42 h -4 c -0.25,0 -0.4599996,0.18 -0.4999996,0.42 l -0.37,2.65 c -0.6300003,0.25 -1.1700003,0.59 -1.6900003,0.98 l -2.49,-1 c -0.22,-0.09 -0.49,0 -0.61,0.22 l -2,3.46 c -0.13,0.22 -0.07,0.49 0.12,0.64 l 2.11,1.6299995 c -0.04,0.34 -0.07,0.67 -0.07,1 0,0.33 0.03,0.65 0.07,0.97 l -2.11,1.66 c -0.19,0.15 -0.25,0.42 -0.12,0.64 l 2,3.46 c 0.12,0.22 0.39,0.3 0.61,0.22 l 2.49,-1.01 c 0.52,0.4 1.06,0.74 1.6900003,0.99 l 0.37,2.65 c 0.04,0.24 0.2499996,0.42 0.4999996,0.42 h 4 c 0.25,0 0.46,-0.18 0.5,-0.42 l 0.37,-2.65 c 0.63,-0.26 1.17,-0.59 1.69,-0.99 l 2.49,1.01 c 0.22,0.08 0.49,0 0.61,-0.22 l 2,-3.46 c 0.12,-0.22 0.07,-0.49 -0.12,-0.64 z"
     id="path830" />
</svg>
