<?xml version="1.0" encoding="UTF-8" standalone="no"?>
<svg
   xmlns:dc="http://purl.org/dc/elements/1.1/"
   xmlns:cc="http://creativecommons.org/ns#"
   xmlns:rdf="http://www.w3.org/1999/02/22-rdf-syntax-ns#"
   xmlns:svg="http://www.w3.org/2000/svg"
   xmlns="http://www.w3.org/2000/svg"
   xmlns:sodipodi="http://sodipodi.sourceforge.net/DTD/sodipodi-0.dtd"
   xmlns:inkscape="http://www.inkscape.org/namespaces/inkscape"
   version="1.1"
   id="mdi-timer-outline"
   width="24.5"
   height="32"
   viewBox="0 0 24.5 32"
   sodipodi:docname="timer-outline.svg"
   inkscape:version="1.0.1 (0767f8302a, 2020-10-17)">
  <metadata
     id="metadata9">
    <rdf:RDF>
      <cc:Work
         rdf:about="">
        <dc:format>image/svg+xml</dc:format>
        <dc:type
           rdf:resource="http://purl.org/dc/dcmitype/StillImage" />
        <dc:title></dc:title>
      </cc:Work>
    </rdf:RDF>
  </metadata>
  <defs
     id="defs7" />
  <sodipodi:namedview
     pagecolor="#ffffff"
     bordercolor="#666666"
     borderopacity="1"
     objecttolerance="10"
     gridtolerance="10"
     guidetolerance="10"
     inkscape:pageopacity="0"
     inkscape:pageshadow="2"
     inkscape:window-width="1920"
     inkscape:window-height="1043"
     id="namedview5"
     showgrid="false"
     inkscape:snap-page="true"
     fit-margin-top="0"
     fit-margin-left="0"
     fit-margin-right="0"
     fit-margin-bottom="0"
     inkscape:zoom="10.827573"
     inkscape:cx="13.524405"
     inkscape:cy="14.444128"
     inkscape:window-x="0"
     inkscape:window-y="0"
     inkscape:window-maximized="1"
     inkscape:current-layer="mdi-timer-outline"
     inkscape:document-rotation="0" />
  <path
     d="M 12.25,20.25 A 7,7 0 0 1 5.2499999,13.25 7,7 0 0 1 12.25,6.2499999 a 7,7 0 0 1 7,7.0000001 7,7 0 0 1 -7,7 m 7.03,-12.6100001 1.42,-1.42 c -0.45,-0.51 -0.9,-0.97 -1.41,-1.41 l -1.42,1.44 c -1.55,-1.26 -3.5,-2 -5.62,-2 A 9,9 0 0 0 3.2499999,13.25 9,9 0 0 0 12.25,22.25 c 5,0 9,-4.03 9,-9 0,-2.12 -0.74,-4.0700001 -1.97,-5.6100001 M 11.25,14.25 h 2 V 8.2499999 h -2 m 4,-7 H 9.2499999 v 2 H 15.25 Z"
     id="path2" />
</svg>
