<?xml version="1.0" encoding="UTF-8" standalone="no"?>
<svg
   xmlns:dc="http://purl.org/dc/elements/1.1/"
   xmlns:cc="http://creativecommons.org/ns#"
   xmlns:rdf="http://www.w3.org/1999/02/22-rdf-syntax-ns#"
   xmlns:svg="http://www.w3.org/2000/svg"
   xmlns="http://www.w3.org/2000/svg"
   xmlns:sodipodi="http://sodipodi.sourceforge.net/DTD/sodipodi-0.dtd"
   xmlns:inkscape="http://www.inkscape.org/namespaces/inkscape"
   version="1.1"
   id="mdi-timer-outline"
   width="24.5"
   height="32"
   viewBox="0 0 24.5 32"
   sodipodi:docname="timer-outline-hover.svg"
   inkscape:version="1.0.1 (0767f8302a, 2020-10-17)">
  <metadata
     id="metadata9">
    <rdf:RDF>
      <cc:Work
         rdf:about="">
        <dc:format>image/svg+xml</dc:format>
        <dc:type
           rdf:resource="http://purl.org/dc/dcmitype/StillImage" />
        <dc:title></dc:title>
      </cc:Work>
    </rdf:RDF>
  </metadata>
  <defs
     id="defs7" />
  <sodipodi:namedview
     pagecolor="#ffffff"
     bordercolor="#666666"
     borderopacity="1"
     objecttolerance="10"
     gridtolerance="10"
     guidetolerance="10"
     inkscape:pageopacity="0"
     inkscape:pageshadow="2"
     inkscape:window-width="1920"
     inkscape:window-height="1043"
     id="namedview5"
     showgrid="false"
     inkscape:snap-page="true"
     fit-margin-top="0"
     fit-margin-left="0"
     fit-margin-right="0"
     fit-margin-bottom="0"
     inkscape:zoom="10.827573"
     inkscape:cx="13.524405"
     inkscape:cy="14.39795"
     inkscape:window-x="0"
     inkscape:window-y="0"
     inkscape:window-maximized="1"
     inkscape:current-layer="mdi-timer-outline"
     inkscape:document-rotation="0" />
  <path
     d="M 12.25,20.25 A 7,7 0 0 1 5.2499999,13.25 7,7 0 0 1 12.25,6.2499999 a 7,7 0 0 1 7,7.0000001 7,7 0 0 1 -7,7 m 7.03,-12.6100001 1.42,-1.42 c -0.45,-0.51 -0.9,-0.97 -1.41,-1.41 l -1.42,1.44 c -1.55,-1.26 -3.5,-2 -5.62,-2 A 9,9 0 0 0 3.2499999,13.25 9,9 0 0 0 12.25,22.25 c 5,0 9,-4.03 9,-9 0,-2.12 -0.74,-4.0700001 -1.97,-5.6100001 M 11.25,14.25 h 2 V 8.2499999 h -2 m 4,-7 H 9.2499999 v 2 H 15.25 Z"
     id="path2" />
  <g
     aria-label="Away"
     id="text836"
     style="font-style:normal;font-weight:normal;font-size:8.13819px;line-height:1.25;font-family:sans-serif;letter-spacing:0px;word-spacing:0px;fill:#000000;fill-opacity:1;stroke:none;stroke-width:0.203455">
    <path
       d="m 5.1002137,23.588115 2.1973114,4.54111 q 0.1383492,0.276698 0.1383492,0.415048 0,0.292974 -0.472015,0.528982 -0.2766985,0.138349 -0.4394623,0.138349 -0.1546256,0 -0.2604221,-0.07324 -0.097658,-0.07324 -0.1464874,-0.154626 -0.040691,-0.08138 -0.1220728,-0.244146 L 5.5722288,27.860665 H 3.3179501 l -0.4231859,0.878924 q -0.081382,0.162764 -0.1302111,0.236008 -0.040691,0.07324 -0.1464874,0.154625 -0.097658,0.07324 -0.2604221,0.07324 -0.1546256,0 -0.4313241,-0.138349 -0.472015,-0.22787 -0.472015,-0.520844 0,-0.13835 0.1383492,-0.415048 l 2.1973114,-4.549248 q 0.08952,-0.187179 0.2685603,-0.301113 0.1871784,-0.113935 0.3906331,-0.113935 0.4394623,0 0.6510552,0.423186 z M 4.4410203,25.54128 3.9038998,26.656212 h 1.0823793 z"
       style="font-style:normal;font-variant:normal;font-weight:normal;font-stretch:normal;font-family:FredokaOne;-inkscape-font-specification:FredokaOne;stroke-width:0.203455"
       id="path868" />
    <path
       d="m 12.563061,24.873949 q 0.520844,0.227869 0.520844,0.561535 0,0.138349 -0.130211,0.4476 -0.130211,0.301113 -0.219731,0.528983 l -0.895201,2.181035 q -0.122073,0.35808 -0.406909,0.504568 -0.122073,0.05697 -0.309251,0.05697 -0.187179,0 -0.366219,-0.138349 -0.170902,-0.146488 -0.227869,-0.292975 l -0.06511,-0.138349 q -0.0651,-0.162764 -0.4801531,-1.269558 -0.081382,0.195316 -0.2441457,0.642917 -0.1546256,0.439462 -0.2034548,0.553397 -0.040691,0.105796 -0.056967,0.146487 -0.00814,0.03255 -0.065105,0.130211 -0.056967,0.09766 -0.1302111,0.170902 -0.1953165,0.195317 -0.4476004,0.195317 -0.2522839,0 -0.4231859,-0.138349 Q 8.2416822,28.8698 8.1847149,28.723313 L 6.9558481,25.728459 q -0.081382,-0.244146 -0.081382,-0.31739 0,-0.325527 0.4638769,-0.512706 0.2604221,-0.105796 0.4231859,-0.105796 0.1627638,0 0.260422,0.07324 0.1057965,0.0651 0.1464875,0.138349 0.040691,0.06511 0.065105,0.138349 0.1383492,0.325528 0.5778115,1.52998 l 0.4801532,-1.318387 q 0.048829,-0.162764 0.1790402,-0.284837 0.2360075,-0.236007 0.4801532,-0.236007 0.2441459,0 0.4150479,0.130211 0.17904,0.130211 0.244146,0.260422 l 0.0651,0.138349 q 0.40691,1.139347 0.480153,1.302111 l 0.49643,-1.35094 q 0.195316,-0.520844 0.58595,-0.520844 0.154625,0 0.325527,0.08138 z"
       style="font-style:normal;font-variant:normal;font-weight:normal;font-stretch:normal;font-family:FredokaOne;-inkscape-font-specification:FredokaOne;stroke-width:0.203455"
       id="path870" />
    <path
       d="m 16.155564,25.297135 q 0.04883,-0.455739 0.642917,-0.455739 0.317389,0 0.472015,0.04883 0.154625,0.04883 0.211593,0.170902 0.06511,0.122073 0.07324,0.219731 0.01628,0.08952 0.01628,0.276699 v 2.848366 q 0,0.187179 -0.01628,0.284837 -0.0081,0.08952 -0.0651,0.211593 -0.113935,0.211593 -0.561535,0.211593 -0.439463,0 -0.594088,-0.105797 -0.146488,-0.113934 -0.170902,-0.325527 -0.301113,0.431324 -1.009136,0.431324 -0.699884,0 -1.30211,-0.642917 -0.602226,-0.642917 -0.602226,-1.489289 0,-0.85451 0.602226,-1.489289 0.610364,-0.642917 1.334663,-0.642917 0.276698,0 0.504568,0.09766 0.227869,0.09766 0.317389,0.187178 0.08952,0.08138 0.146488,0.162764 z m -1.481151,1.692743 q 0,0.268561 0.211593,0.488292 0.211593,0.211593 0.512706,0.211593 0.301113,0 0.49643,-0.219731 0.203454,-0.219732 0.203454,-0.480154 0,-0.26856 -0.195316,-0.496429 -0.187179,-0.22787 -0.512706,-0.22787 -0.31739,0 -0.520844,0.22787 -0.195317,0.227869 -0.195317,0.496429 z"
       style="font-style:normal;font-variant:normal;font-weight:normal;font-stretch:normal;font-family:FredokaOne;-inkscape-font-specification:FredokaOne;stroke-width:0.203455"
       id="path872" />
    <path
       d="m 22.049012,24.890225 q 0.480153,0.211593 0.480153,0.512706 0,0.146488 -0.0651,0.276699 -0.06511,0.130211 -0.06511,0.138349 l -2.132206,4.768979 q -0.0651,0.154626 -0.113934,0.236008 -0.04069,0.08138 -0.138349,0.154626 -0.09766,0.07324 -0.244146,0.07324 -0.146488,0 -0.431324,-0.122073 -0.480153,-0.211593 -0.480153,-0.504567 0,-0.195317 0.781266,-1.863646 l -1.6195,-2.726294 q -0.162764,-0.26856 -0.162764,-0.398771 0,-0.260422 0.439462,-0.520844 0.276699,-0.162764 0.431325,-0.162764 0.154625,0 0.252283,0.0651 0.09766,0.06511 0.13835,0.13835 0.04883,0.0651 0.4476,0.756851 0.40691,0.683608 0.773128,1.277696 0.04069,-0.130211 0.439462,-1.000997 0.398772,-0.878925 0.423186,-0.935892 0.03255,-0.05697 0.09766,-0.138349 0.105796,-0.138349 0.292974,-0.138349 0.195317,0 0.455739,0.113934 z"
       style="font-style:normal;font-variant:normal;font-weight:normal;font-stretch:normal;font-family:FredokaOne;-inkscape-font-specification:FredokaOne;stroke-width:0.203455"
       id="path874" />
  </g>
</svg>
