<?xml version="1.0" encoding="UTF-8" standalone="no"?>
<svg
   viewBox="0 0 36 36"
   version="1.1"
   id="svg10"
   sodipodi:docname="tired.svg"
   inkscape:version="1.1 (ce6663b3b7, 2021-05-25)"
   xmlns:inkscape="http://www.inkscape.org/namespaces/inkscape"
   xmlns:sodipodi="http://sodipodi.sourceforge.net/DTD/sodipodi-0.dtd"
   xmlns="http://www.w3.org/2000/svg"
   xmlns:svg="http://www.w3.org/2000/svg">
  <defs
     id="defs14" />
  <sodipodi:namedview
     id="namedview12"
     pagecolor="#ffffff"
     bordercolor="#666666"
     borderopacity="1.0"
     inkscape:pageshadow="2"
     inkscape:pageopacity="0.0"
     inkscape:pagecheckerboard="0"
     showgrid="false"
     inkscape:zoom="20.916667"
     inkscape:cx="18"
     inkscape:cy="18"
     inkscape:window-width="2560"
     inkscape:window-height="1052"
     inkscape:window-x="1920"
     inkscape:window-y="0"
     inkscape:window-maximized="1"
     inkscape:current-layer="svg10" />
  <path
     fill="#ffcc4d"
     d="m 31.765333,17.19022 c 0,7.602513 -6.16282,13.765333 -13.765333,13.765333 -7.601703,0 -13.7653332,-6.16282 -13.7653332,-13.765333 C 4.2346668,9.5885173 10.398297,3.4248869 18,3.4248869 c 7.602513,0 13.765333,6.1636304 13.765333,13.7653331"
     id="path2"
     style="stroke-width:0.809725" />
  <ellipse
     fill="#664500"
     cx="18"
     cy="19.214533"
     rx="5.6680784"
     ry="6.0729413"
     id="ellipse4"
     style="stroke-width:0.809725" />
  <path
     fill="#f4900c"
     d="m 21.617853,25.587883 c 0,0 0.807297,-0.583812 0.133605,-1.306897 -0.673691,-0.723085 -1.312565,0.04211 -1.312565,0.04211 l -3.358741,3.130399 c -0.05587,-0.165994 -0.371664,-0.601626 -0.445349,-0.76681 l 4.65997,-4.344987 c 0,0 0.808106,-0.583812 0.132795,-1.307707 -0.673692,-0.722275 -1.313375,0.0413 -1.313375,0.0413 l -4.383044,4.085875 c -0.101215,-0.127937 -0.373283,-0.437252 -0.480977,-0.565189 l 5.081837,-4.736894 c 0,0 0.807297,-0.584622 0.132795,-1.306897 -0.673691,-0.723085 -1.312565,0.0413 -1.312565,0.0413 l -5.083456,4.735275 c -0.121459,-0.11741 -0.495552,-0.493123 -0.61863,-0.604055 l 4.749849,-4.427579 c 0,0 0.806487,-0.584622 0.132795,-1.306897 -0.674501,-0.723085 -1.312565,0.0413 -1.312565,0.0413 l -5.022727,4.681023 -0.402434,0.375713 -0.178139,0.167613 c 0,0 -0.435632,0.602435 -0.880172,0.144941 l 1.491515,-3.366839 c 0,0 0.46964,-0.869645 -0.399195,-1.340096 -0.870455,-0.47045 -1.340096,0.399195 -1.340096,0.399195 l -1.3506219,2.233223 c -0.536848,0.88503 -1.0923196,1.763582 -1.7481973,2.5644 -1.849413,2.261564 -1.790303,5.598442 0.2574927,7.796847 2.2340326,2.395978 5.9887295,2.527963 8.3847075,0.29474 l 0.361947,-0.338465 z"
     id="path6"
     style="stroke-width:0.809725" />
  <path
     fill="#664500"
     d="M 12.344877,8.3480178 C 10.518946,8.837092 9.5270326,9.9391284 9.4663031,10.007955 c -0.29474,0.336036 -0.2615413,0.847783 0.073685,1.143332 0.336036,0.29555 0.8469729,0.263161 1.1425229,-0.07368 0.06397,-0.07045 1.692326,-1.8243111 4.704505,-1.20811 0.438871,0.08988 0.866406,-0.1935244 0.955476,-0.6307762 0.08988,-0.4380614 -0.192715,-0.8664062 -0.630776,-0.955476 -1.323901,-0.2720678 -2.45023,-0.1805688 -3.366839,0.064778 z m 11.310246,8.097e-4 C 22.738514,8.1034807 21.612185,8.0119817 20.287474,8.28243 c -0.438061,0.08988 -0.720655,0.5174146 -0.630776,0.9554761 0.09069,0.4380615 0.517415,0.7206557 0.955476,0.6307762 3.015418,-0.6170108 4.640537,1.1376647 4.707744,1.2121587 0.29717,0.329559 0.809726,0.359518 1.141713,0.06316 0.331988,-0.29636 0.365186,-0.802438 0.07126,-1.136855 -0.06073,-0.068017 -1.052643,-1.1692433 -2.877764,-1.6583175 z"
     id="path8"
     style="stroke-width:0.809725" />
</svg>
