<?xml version="1.0" encoding="UTF-8" standalone="no"?>
<svg
   viewBox="0 0 36 36"
   version="1.1"
   id="svg14"
   sodipodi:docname="unknown.svg"
   inkscape:version="1.1 (ce6663b3b7, 2021-05-25)"
   xmlns:inkscape="http://www.inkscape.org/namespaces/inkscape"
   xmlns:sodipodi="http://sodipodi.sourceforge.net/DTD/sodipodi-0.dtd"
   xmlns="http://www.w3.org/2000/svg"
   xmlns:svg="http://www.w3.org/2000/svg">
  <defs
     id="defs18" />
  <sodipodi:namedview
     id="namedview16"
     pagecolor="#ffffff"
     bordercolor="#666666"
     borderopacity="1.0"
     inkscape:pageshadow="2"
     inkscape:pageopacity="0.0"
     inkscape:pagecheckerboard="0"
     showgrid="false"
     inkscape:zoom="20.916667"
     inkscape:cx="18"
     inkscape:cy="18"
     inkscape:window-width="2560"
     inkscape:window-height="1052"
     inkscape:window-x="1920"
     inkscape:window-y="0"
     inkscape:window-maximized="1"
     inkscape:current-layer="svg14" />
  <circle
     fill="#ffcb4c"
     cx="18"
     cy="17.21102"
     r="13.687014"
     id="circle2"
     style="stroke-width:0.805118" />
  <path
     fill="#65471b"
     d="m 15.201408,20.445986 c -0.116742,-0.09339 -0.20772,-0.220602 -0.251197,-0.373575 -0.107886,-0.370354 0.104666,-0.739098 0.47502,-0.822025 3.645577,-0.822026 6.100383,1.097376 6.204243,1.179498 0.309165,0.246366 0.369549,0.680325 0.139285,0.970168 -0.230263,0.288232 -0.666638,0.322852 -0.974998,0.0781 -0.08856,-0.06763 -2.031314,-1.548242 -4.977242,-0.88402 -0.220603,0.04911 -0.446036,-0.01288 -0.615111,-0.148142 z"
     id="path4"
     style="stroke-width:0.805118" />
  <ellipse
     fill="#65471b"
     cx="14.070217"
     cy="12.505908"
     rx="1.7108767"
     ry="2.1383946"
     id="ellipse6"
     style="stroke-width:0.805118" />
  <ellipse
     fill="#65471b"
     cx="23.132629"
     cy="13.360944"
     rx="1.7108767"
     ry="2.1383946"
     id="ellipse8"
     style="stroke-width:0.805118" />
  <path
     fill="#f19020"
     d="m 17.417094,31.808623 c 0,0 1.018475,-0.330904 1.150515,-1.08852 0.139285,-0.782575 -0.502394,-0.939573 -0.502394,-0.939573 0,0 0.838128,-0.167465 0.943598,-1.107843 0.09903,-0.886436 -0.693207,-1.097377 -0.693207,-1.097377 0,0 0.780965,-0.322047 0.818001,-1.239077 0.03059,-0.772109 -0.801093,-1.149709 -0.801093,-1.149709 0,0 4.056187,-0.98305 4.473238,-1.079664 0.415441,-0.09661 1.062756,-0.495148 0.860672,-1.363871 -0.200475,-0.869528 -0.969363,-0.900122 -1.366286,-0.807533 -0.397729,0.09259 -5.429719,1.260815 -7.165555,1.664985 L 13.976018,23.86935 C 13.541254,23.9716 13.344,23.780787 13.65075,23.457129 c 0.409,-0.431543 0.670664,-0.908978 0.761642,-1.701215 0.09581,-0.833297 -0.186787,-1.862239 -0.348616,-2.261578 -0.301114,-0.741514 -0.809144,-1.32764 -1.396075,-1.52892 -0.91542,-0.313996 -1.565956,0.258444 -1.241493,1.25679 0.486291,1.49269 0.167464,2.717275 -0.670664,3.456374 -1.9717349,1.73664 -2.8887648,2.974913 -2.278485,5.614091 0.666638,2.878298 3.524003,4.730876 6.402302,4.064238 z"
     id="path10"
     style="stroke-width:0.805118" />
  <path
     fill="#65471b"
     d="M 10.992249,8.622822 C 10.86021,8.5519716 10.748298,8.4424755 10.677448,8.3015797 10.503542,7.956989 10.645243,7.5552349 10.993859,7.406288 c 3.434636,-1.4741719 6.198607,-0.03462 6.314544,0.027374 0.348617,0.1859824 0.489512,0.6014235 0.314802,0.9291067 -0.173906,0.326073 -0.595788,0.4395947 -0.944404,0.2560277 -0.09903,-0.050723 -2.280096,-1.1529296 -5.054534,0.037841 -0.206915,0.087758 -0.4404,0.068435 -0.632018,-0.033815 z m 9.770112,3.019194 c -0.125598,-0.0789 -0.230263,-0.195644 -0.291452,-0.34137 -0.150558,-0.355862 0.01852,-0.746345 0.376795,-0.872748 3.527224,-1.2366624 6.187335,0.386456 6.298442,0.456502 0.334124,0.209331 0.44684,0.633628 0.251197,0.948429 -0.194839,0.313996 -0.624772,0.398534 -0.958897,0.191618 -0.09661,-0.05797 -2.195558,-1.305097 -5.045677,-0.305139 -0.214161,0.07327 -0.44523,0.03703 -0.630408,-0.07729 z"
     id="path12"
     style="stroke-width:0.805118" />
</svg>
